<?xml version="1.0" encoding="utf-8"?>
<!-- Generator: Adobe Illustrator 21.1.0, SVG Export Plug-In . SVG Version: 6.00 Build 0)  -->
<svg version="1.1" id="Livello_1" xmlns="http://www.w3.org/2000/svg" xmlns:xlink="http://www.w3.org/1999/xlink" x="0px" y="0px"
	 viewBox="0 0 198.7 136.3" style="enable-background:new 0 0 198.7 136.3;" xml:space="preserve">
<style type="text/css">
	.st0{fill:none;}
	.st1{enable-background:new    ;}
	.st2{fill:#8DC740;}
	.st3{fill:#FFFFFF;stroke:#FFFFFF;stroke-miterlimit:10;}
	.st4{fill:#8EC741;}
</style>
<g id="Livello_2">
	<rect width="198.7" height="137.7"/>
</g>
<g id="Layer_1">
	<rect x="1606.2" y="-5.6" class="st0" width="751.4" height="459.3"/>
	<text transform="matrix(1 0 0 1 1863.1901 55.2015)" style="font-family:'Antonio-Regular'; font-size:70px; letter-spacing:1;">SUITABLE </text>
	<text transform="matrix(1 0 0 1 1938.1901 165.2013)" style="font-family:'Antonio-Regular'; font-size:50px; letter-spacing:11;">FOR</text>
	<text transform="matrix(1 0 0 1 2037.1901 165.2013)" style="font-family:'Antonio-Regular'; font-size:70px; letter-spacing:1;"> </text>
	<text transform="matrix(1 0 0 1 1881.5902 275.2013)" style="font-family:'Antonio-Regular'; font-size:70px; letter-spacing:1;">VEGANS</text>
	<path class="st2" d="M72.6,48.9c0,0-31.7,11-27.1,62.4c-1.8-6.9-0.7-24.3-7.2-39.4C25.7,42.8,3.1,25.6,3.1,25.6s-7.2,38.2,4.3,67.7
		s29.3,43.1,37.2,39.1c0.7-0.4,1.4-0.9,2-1.7c4.5-4.3,12.3-19.8,17.1-39.1C69.8,68.1,72.6,48.9,72.6,48.9z"/>
	<g>
		<path class="st3" d="M44.5,14.8c0.9,0.5,1.3,1.2,1.3,2.1c0,1.3-0.1,2.2-0.2,2.8s-0.4,0.9-0.7,0.9c-0.4,0-0.7-0.3-0.7-0.8
			c-0.1-0.5-0.3-1.1-0.8-1.9c-0.9-1.6-2.2-2.3-3.7-2.3c-1.1,0-2,0.3-2.6,0.9c-0.7,0.6-1,1.4-1,2.3c0,0.6,0.1,1.1,0.4,1.5
			c0.3,0.4,0.6,0.8,1.1,1.2s1.1,0.7,1.8,1.1s1.5,0.7,2.3,1.2c1.8,0.9,3.2,2,4.1,3.2s1.3,2.7,1.3,4.4c0,1.4-0.2,2.6-0.7,3.7
			c-0.4,1.1-1,2-1.8,2.7s-1.7,1.3-2.8,1.7c-1.1,0.4-2.3,0.6-3.5,0.6c-1.3,0-2.4-0.1-3.4-0.4s-1.8-0.6-2.3-0.9
			c-0.3-0.2-0.5-0.4-0.6-0.7c-0.1-0.3-0.1-0.7-0.1-1.2v-1.4c0-1.5,0-2.6,0.1-3.2c0.1-0.7,0.3-1,0.7-1c0.3,0,0.5,0.1,0.6,0.3
			s0.2,0.4,0.3,0.8c0.1,0.3,0.2,0.8,0.3,1.3s0.3,1,0.7,1.7c1.1,2.2,2.6,3.3,4.5,3.3c1.2,0,2.2-0.4,3-1.2c0.8-0.8,1.2-1.9,1.2-3.2
			c0-0.7-0.1-1.3-0.4-1.8c-0.2-0.5-0.6-1-1.1-1.4s-1-0.8-1.7-1.2s-1.4-0.8-2.3-1.2c-0.9-0.5-1.8-0.9-2.5-1.4s-1.3-0.9-1.8-1.5
			c-0.5-0.5-0.9-1.1-1.1-1.8c-0.2-0.7-0.4-1.5-0.4-2.4c0-2.3,0.7-4,2.2-5.4c1.5-1.3,3.3-2,5.6-2C42,14.1,43.6,14.3,44.5,14.8z"/>
		<path class="st3" d="M58.9,30.5c0,2,0.4,3.5,1.3,4.6s2,1.7,3.5,1.7c1.5,0,2.7-0.5,3.6-1.4s1.4-2.4,1.4-4.4V19.1
			c0-0.6-0.1-1.1-0.2-1.4c-0.1-0.3-0.3-0.5-0.7-0.8c-0.3-0.2-0.6-0.3-0.9-0.4c-0.3-0.1-0.5-0.1-0.7-0.2c-0.2-0.1-0.4-0.1-0.5-0.2
			c-0.1-0.1-0.2-0.3-0.2-0.6c0-0.6,0.3-0.9,1-0.9c0.4,0,0.9,0.1,1.6,0.2c0.7,0.1,1.5,0.2,2.5,0.2c0.5,0,1,0,1.3-0.1
			c0.3,0,0.6-0.1,0.8-0.1c0.4,0,0.6,0.1,0.7,0.2c0.1,0.1,0.1,0.4,0.1,0.7v18.4c0,0.9,0.1,1.6,0.4,1.9c0.3,0.3,0.6,0.5,0.9,0.6
			s0.6,0.1,0.9,0.1s0.4,0.2,0.4,0.6s-0.2,0.6-0.6,0.8s-0.9,0.4-1.6,0.6c-2.4,0.8-3.8,1.2-4.2,1.2c-0.5,0-0.7-0.4-0.7-1.1v-2.1
			c0-0.5-0.1-0.8-0.2-0.8c-0.2,0-0.3,0.1-0.5,0.4L67.7,37c-0.8,0.9-1.7,1.6-2.7,2.1c-1.1,0.5-2.1,0.8-3.3,0.8
			c-2.3,0-4.1-0.7-5.4-2.2c-1.4-1.5-2-3.5-2-6V19.1c0-0.9-0.2-1.5-0.5-1.8s-0.7-0.5-1.1-0.7c-0.4-0.1-0.8-0.2-1.1-0.3
			c-0.3-0.1-0.5-0.3-0.5-0.7c0-0.6,0.3-0.9,1-0.9c0.5,0,1.1,0.1,1.7,0.2c0.7,0.1,1.4,0.2,2.3,0.2c0.5,0,0.9,0,1.2-0.1
			c0.3-0.1,0.6-0.1,0.8-0.1c0.4,0,0.6,0.1,0.7,0.2c0.1,0.1,0.1,0.4,0.1,0.7L58.9,30.5L58.9,30.5z"/>
		<path class="st3" d="M88,35c0,0.7,0.1,1.1,0.2,1.5c0.1,0.3,0.4,0.6,0.7,0.8c0.3,0.1,0.6,0.2,0.9,0.3c0.3,0,0.5,0.1,0.7,0.1
			c0.2,0.1,0.4,0.1,0.5,0.2c0.1,0.1,0.2,0.3,0.2,0.5c0,0.6-0.3,0.9-1,0.9c-0.6,0-1.2-0.1-2-0.2c-0.8-0.1-1.6-0.2-2.5-0.2
			c-1,0-1.8,0.1-2.5,0.2c-0.7,0.1-1.2,0.2-1.6,0.2c-0.6,0-0.8-0.3-0.8-0.9c0-0.3,0-0.4,0.1-0.5s0.2-0.2,0.4-0.2
			c0.2,0,0.3-0.1,0.5-0.1s0.4-0.1,0.6-0.2c0.4-0.2,0.7-0.5,0.8-0.8s0.1-0.8,0.1-1.6V22.1c0-1-0.1-1.6-0.4-2
			c-0.2-0.3-0.5-0.5-0.8-0.6s-0.5-0.1-0.8-0.2c-0.2,0-0.4-0.2-0.4-0.6c0-0.4,0.3-0.7,0.8-1s1.2-0.6,2.2-1.1c0.6-0.3,1-0.7,1.4-1
			s0.7-0.6,1-0.9c0.3-0.3,0.5-0.5,0.6-0.6c0.2-0.2,0.3-0.2,0.5-0.2c0.4,0,0.6,0.4,0.6,1.1L88,35L88,35z M87.7,5.6
			c0.5,0.6,0.7,1.3,0.7,2.1c0,0.8-0.2,1.5-0.7,2.1s-1.1,0.9-1.8,0.9s-1.3-0.3-1.8-0.9c-0.5-0.6-0.7-1.3-0.7-2.1
			c0-0.8,0.2-1.5,0.7-2.1s1.1-0.9,1.8-0.9S87.2,4.9,87.7,5.6z"/>
		<path class="st3" d="M102,14.4c0,0.5,0.2,0.7,0.7,0.7h4.2c0.3,0,0.5,0,0.6,0.1s0.1,0.2,0.1,0.4v1.1c0,0.3,0,0.5-0.1,0.6
			s-0.3,0.2-0.6,0.2h-4.3c-0.5,0-0.7,0.2-0.7,0.7V32c0,1.7,0.2,3,0.5,3.7c0.3,0.8,0.9,1.2,1.8,1.2c0.4,0,0.8-0.1,1.1-0.2
			c0.3-0.1,0.6-0.3,0.9-0.5s0.5-0.4,0.7-0.5s0.4-0.2,0.6-0.2c0.4,0,0.6,0.3,0.6,0.8c0,0.3-0.2,0.6-0.5,1s-0.8,0.9-1.4,1.3
			c-0.6,0.4-1.3,0.8-2,1.1c-0.8,0.3-1.6,0.5-2.5,0.5c-2.9,0-4.4-2.3-4.4-6.9V31l0.2-11.7c0-0.5,0-0.9-0.1-1.2s-0.3-0.5-0.7-0.5h-1
			c-0.7,0-1-0.2-1-0.7c0-0.2,0.1-0.4,0.3-0.6c0.2-0.2,0.5-0.4,0.8-0.6c0.3-0.2,0.7-0.5,1.2-0.8c0.4-0.3,0.9-0.8,1.4-1.3
			c0.9-1,1.5-1.9,2-2.6c0.4-0.7,0.8-1.1,1.1-1.1c0.3,0,0.4,0.1,0.5,0.4c0.1,0.2,0.1,0.6,0.1,1v3.1H102z"/>
		<path class="st3" d="M127.9,33c0,1.2,0.1,2,0.2,2.6c0.2,0.6,0.5,0.9,1.2,0.9c0.4,0,0.8-0.2,1.1-0.5c0.3-0.4,0.7-0.5,1-0.5
			c0.5,0,0.7,0.3,0.7,0.8c0,0.3-0.2,0.6-0.5,1.1c-0.3,0.4-0.7,0.8-1.2,1.2s-1,0.7-1.5,1s-1,0.4-1.5,0.4c-1,0-1.8-0.3-2.4-0.9
			c-0.6-0.6-1.2-1.5-1.6-2.8h-0.3l-1.2,1c-1,0.8-1.9,1.5-2.8,2c-0.9,0.6-1.8,0.8-2.9,0.8c-1.2,0-2.2-0.4-2.9-1.2s-1.1-1.9-1.1-3.2
			c0-1.2,0.2-2.3,0.6-3.2c0.4-0.9,1-1.7,1.8-2.5c0.8-0.7,1.7-1.4,2.9-2.1s2.4-1.3,3.7-2l1.4-0.7c0.3-0.1,0.5-0.3,0.5-0.5
			c0.1-0.2,0.1-0.4,0.1-0.8V20c0-1.5-0.1-2.6-0.4-3.3s-0.9-1-1.8-1c-1,0-1.8,0.3-2.3,1c-0.6,0.6-1.1,1.5-1.6,2.7
			c-0.4,0.9-0.9,1.7-1.4,2.3s-1.3,1-2.5,1c-0.3,0-0.6-0.1-0.8-0.3s-0.3-0.4-0.3-0.7c0-0.8,0.3-1.7,0.8-2.6s1.2-1.7,2.2-2.5
			c0.9-0.7,2-1.4,3.3-1.9s2.6-0.7,4.1-0.7c1.2,0,2.2,0.1,2.9,0.4c0.7,0.3,1.3,0.7,1.7,1.2s0.6,1.2,0.7,2c0.1,0.8,0.2,1.7,0.2,2.7
			L127.9,33L127.9,33z M122.9,26.8c-0.1,0-0.3,0.1-0.6,0.2l-1.9,0.9c-2.2,1.1-3.3,2.9-3.3,5.5c0,1.1,0.2,1.9,0.6,2.4
			c0.4,0.5,0.9,0.8,1.6,0.8c0.5,0,0.9-0.1,1.4-0.4c0.5-0.2,0.9-0.6,1.2-1c0.4-0.4,0.7-0.9,0.9-1.5s0.4-1.2,0.4-2v-4.3
			C123.2,27,123.1,26.8,122.9,26.8z"/>
		<path class="st3" d="M141.3,17.8c0,0.2,0,0.3,0.1,0.3s0.3-0.1,0.5-0.3l0.7-0.7c1.1-1.1,2.1-1.8,3-2.3s2-0.7,3.3-0.7
			c1.2,0,2.4,0.3,3.6,0.9c1.1,0.6,2.1,1.4,2.9,2.5c0.8,1.1,1.5,2.4,2,3.9s0.7,3.2,0.7,5.1c0,2-0.3,3.9-0.8,5.6
			c-0.6,1.7-1.4,3.1-2.4,4.3s-2.3,2.1-3.7,2.8s-3,1-4.7,1c-1,0-1.9-0.1-2.7-0.3s-1.4-0.4-2-0.6c-0.6-0.2-1-0.4-1.4-0.6
			c-0.4-0.2-0.7-0.3-1-0.3s-0.6,0.1-0.8,0.4c-0.2,0.3-0.4,0.6-0.6,1c-0.2,0.4-0.4,0.7-0.6,1c-0.2,0.3-0.4,0.4-0.7,0.4
			c-0.4,0-0.6-0.3-0.6-1c0-0.9,0.1-1.9,0.2-3.1c0.2-1.2,0.2-2.6,0.2-4.1V7c0-0.5-0.1-0.8-0.4-1s-0.6-0.4-0.9-0.5
			c-0.3-0.1-0.6-0.2-0.9-0.4c-0.3-0.1-0.4-0.3-0.4-0.5c0-0.4,0.3-0.7,0.8-0.8c0.5-0.1,1.1-0.3,1.8-0.6c1.3-0.5,2.3-0.9,2.9-1.3
			s1-0.6,1.2-0.6c0.3,0,0.5,0.1,0.6,0.3c0.1,0.2,0.1,0.4,0.1,0.8c0,0.5,0,1.1-0.1,1.7c0,0.6-0.1,1.3-0.1,2v11.7H141.3z M142.5,37.3
			c0.8,0.8,1.9,1.3,3.4,1.3c1.1,0,2.1-0.3,3-0.8s1.7-1.2,2.4-2.2c0.7-0.9,1.2-2,1.5-3.3c0.4-1.3,0.5-2.7,0.5-4.2
			c0-3.3-0.7-5.8-2.1-7.6c-1.4-1.8-3.2-2.7-5.4-2.7c-1.1,0-2,0.2-2.6,0.5c-0.6,0.4-1.1,0.9-1.4,1.5c-0.3,0.7-0.5,1.5-0.5,2.4
			c-0.1,0.9-0.1,2-0.1,3.1v8.1C141.3,35.2,141.7,36.5,142.5,37.3z"/>
		<path class="st3" d="M170,34.9c0,1.2,0.4,2,1.1,2.3c0.3,0.1,0.6,0.2,0.9,0.2c0.3,0,0.6,0,0.8,0.1c0.2,0,0.4,0.1,0.6,0.2
			c0.2,0.1,0.2,0.4,0.2,0.7c0,0.5-0.4,0.8-1.1,0.8c-0.6,0-1.4-0.1-2.2-0.2c-0.8-0.1-1.7-0.2-2.6-0.2c-1,0-1.8,0.1-2.6,0.2
			c-0.8,0.1-1.4,0.2-1.9,0.2c-0.7,0-1-0.3-1-0.9c0-0.5,0.2-0.8,0.6-0.8c0.4,0,0.9-0.1,1.5-0.3c0.5-0.2,0.8-0.4,1-0.7
			c0.1-0.3,0.2-0.7,0.2-1.3V6.9c0-0.5-0.1-0.8-0.4-1c-0.2-0.2-0.5-0.4-0.8-0.5s-0.6-0.2-0.8-0.3c-0.2-0.1-0.4-0.3-0.4-0.5
			c0-0.4,0.3-0.7,0.8-0.8c0.5-0.1,1.1-0.3,1.8-0.6c1.3-0.5,2.3-0.9,2.9-1.3c0.6-0.4,1-0.6,1.2-0.6c0.3,0,0.5,0.1,0.6,0.3
			c0.1,0.2,0.1,0.4,0.1,0.8c0,0.5,0,1-0.1,1.6s-0.1,1.3-0.1,2.1v28.8H170z"/>
		<path class="st3" d="M183,23.7c-0.3,0-0.5,0.1-0.6,0.2c-0.1,0.1-0.1,0.3-0.1,0.7v1.3c0,3.4,0.7,6.1,2.2,8s3.4,2.9,5.8,2.9
			c1.1,0,2-0.2,2.7-0.5s1.4-0.7,1.9-1.1c0.5-0.4,0.9-0.8,1.2-1.1s0.5-0.5,0.6-0.5c0.3,0,0.5,0.2,0.5,0.6c0,0.4-0.2,0.9-0.7,1.6
			s-1.1,1.3-2,1.9c-0.8,0.6-1.9,1.2-3,1.7c-1.2,0.5-2.5,0.7-4,0.7s-3-0.3-4.2-0.9c-1.3-0.6-2.3-1.5-3.2-2.6s-1.6-2.5-2.1-4.1
			c-0.5-1.6-0.7-3.4-0.7-5.4s0.3-3.8,0.8-5.4c0.5-1.6,1.3-3,2.3-4.1s2.1-2,3.5-2.6c1.3-0.6,2.8-0.9,4.4-0.9c1.4,0,2.6,0.2,3.7,0.7
			c1.1,0.5,2.1,1.1,2.9,1.8c0.8,0.8,1.4,1.7,1.8,2.7c0.4,1,0.7,2.1,0.7,3.3c0,0.5-0.2,0.8-0.5,0.9c-0.3,0.1-0.8,0.2-1.5,0.2
			C195.4,23.7,183,23.7,183,23.7z M191.2,21.4c0.8-0.4,1.3-1.2,1.3-2.4c0-0.9-0.4-1.7-1.2-2.5s-1.8-1.1-3-1.1
			c-1.3,0-2.5,0.5-3.4,1.5c-1,1-1.6,2.2-1.9,3.7l-0.2,0.9v0.1c0,0.3,0.2,0.5,0.7,0.5h3.7C189,22,190.4,21.8,191.2,21.4z"/>
		<path class="st3" d="M84.4,58.4c0,0.5,0.2,0.7,0.7,0.7h4.3c0.3,0,0.6,0.1,0.6,0.2c0.1,0.1,0.1,0.4,0.1,0.7v0.3
			c0,0.4,0,0.6-0.1,0.8c-0.1,0.2-0.3,0.2-0.7,0.2H85c-0.5,0-0.7,0.2-0.7,0.7v17c0,0.6,0.1,1.1,0.2,1.4s0.4,0.6,0.8,0.7
			c0.5,0.2,0.9,0.4,1.2,0.4c0.4,0.1,0.7,0.1,1,0.2s0.5,0.1,0.6,0.2s0.2,0.3,0.2,0.6c0,0.5-0.4,0.8-1.3,0.8c-0.8,0-1.6-0.1-2.5-0.2
			s-1.8-0.2-2.8-0.2s-1.8,0.1-2.6,0.2c-0.8,0.1-1.5,0.2-2.2,0.2s-1.1-0.3-1.1-0.9c0-0.5,0.2-0.8,0.6-0.7c0.4,0,1-0.1,1.7-0.4
			c0.5-0.3,0.9-0.5,1-0.9s0.2-0.8,0.2-1.4V62c0-0.5-0.3-0.7-0.8-0.7h-1c-0.2,0-0.4-0.1-0.6-0.2c-0.2-0.2-0.3-0.3-0.3-0.5
			c0-0.3,0.4-0.7,1.1-1l1-0.5c0.3-0.2,0.6-0.5,0.6-0.9l0.2-2.8c0.1-1.6,0.4-3,1-4.2c0.5-1.3,1.2-2.3,2.1-3.2c0.8-0.9,1.8-1.5,2.9-2
			s2.2-0.7,3.3-0.7c1.1,0,2.1,0.2,2.9,0.7s1.2,1,1.2,1.5c0,0.3-0.1,0.6-0.2,1s-0.3,0.8-0.5,1.1c-0.2,0.4-0.4,0.7-0.7,1
			C91.2,50.9,91,51,90.8,51c-0.4,0-0.7-0.2-1-0.6s-0.6-0.8-1-1.3c-0.3-0.5-0.6-0.9-1-1.3c-0.3-0.4-0.7-0.6-1-0.6
			c-0.8,0-1.4,0.7-1.9,2.1s-0.8,3.6-0.8,6.4v2.7H84.4z"/>
		<path class="st3" d="M93.4,65.7c0.6-1.6,1.4-3,2.5-4.1s2.4-2,3.9-2.6s3.2-0.9,5-0.9s3.4,0.3,4.9,1c1.5,0.6,2.7,1.5,3.7,2.7
			c1,1.1,1.8,2.5,2.4,4.1c0.6,1.6,0.8,3.4,0.8,5.3s-0.3,3.7-0.9,5.3s-1.4,3-2.5,4.1s-2.4,2-3.9,2.6s-3.3,0.9-5.2,0.9
			c-1.7,0-3.3-0.3-4.8-1c-1.4-0.6-2.7-1.5-3.7-2.7c-1-1.1-1.8-2.5-2.4-4.1s-0.8-3.4-0.8-5.3C92.5,69.1,92.8,67.3,93.4,65.7z
			 M99.5,62.4c-1.2,1.9-1.8,4.5-1.8,7.9c0,3.9,0.6,6.9,1.9,9c1.3,2.2,3,3.2,5.1,3.2c2.1,0,3.8-0.9,5-2.8s1.8-4.5,1.8-7.9
			c0-3.9-0.6-6.9-1.9-9c-1.3-2.2-3-3.2-5-3.2C102.4,59.6,100.7,60.6,99.5,62.4z"/>
		<path class="st3" d="M128.8,61.2c0,0.3,0.1,0.5,0.2,0.5c0.1,0,0.2-0.1,0.5-0.4l1.2-1.2c1.2-1.4,2.6-2.1,3.9-2.1
			c1,0,1.9,0.4,2.7,1.1c0.7,0.7,1.1,1.6,1.1,2.7c0,0.8-0.3,1.5-0.8,2c-0.5,0.5-1.2,0.8-1.9,0.8c-0.6,0-1.1-0.1-1.5-0.4
			c-0.4-0.3-0.8-0.6-1.2-0.9c-0.3-0.3-0.7-0.6-1-0.9s-0.6-0.4-0.9-0.4c-1.4,0-2.1,1.7-2.1,5.1v11.8c0,0.6,0.1,1.1,0.2,1.4
			c0.2,0.3,0.5,0.6,0.9,0.7c0.5,0.2,0.9,0.4,1.3,0.4s0.7,0.1,1,0.2s0.5,0.1,0.6,0.2c0.2,0.1,0.2,0.3,0.2,0.6c0,0.2-0.1,0.4-0.3,0.6
			s-0.5,0.2-1,0.2c-0.8,0-1.6-0.1-2.5-0.2s-1.9-0.2-2.8-0.2c-0.9,0-1.8,0.1-2.6,0.2s-1.5,0.2-2.1,0.2c-0.7,0-1-0.3-1-0.9
			c0-0.3,0.1-0.4,0.2-0.5s0.3-0.2,0.5-0.2c0.2-0.1,0.4-0.1,0.7-0.1s0.6-0.1,0.9-0.3c0.5-0.3,0.9-0.5,1-0.8s0.1-0.7,0.1-1.2v-14
			c0-0.7-0.1-1.1-0.4-1.3c-0.3-0.2-0.5-0.4-0.8-0.4c-0.3-0.1-0.6-0.1-0.8-0.2c-0.3-0.1-0.4-0.2-0.4-0.6s0.3-0.7,0.8-0.9
			c0.5-0.2,1.2-0.6,2-1.1c1.1-0.7,1.9-1.4,2.4-2s0.9-0.9,1.3-0.9c0.4,0,0.6,0.4,0.6,1.1v2.3H128.8z"/>
		<path class="st3" d="M69.1,107.4c-0.3,0-0.5,0.1-0.6,0.2c-0.1,0.1-0.1,0.4-0.1,0.7v1.3c0,3.4,0.8,6.2,2.4,8.2s3.6,3,6.1,3
			c1.1,0,2.1-0.2,2.9-0.5s1.5-0.7,2-1.1c0.5-0.4,1-0.8,1.3-1.1s0.5-0.5,0.6-0.5c0.3,0,0.5,0.2,0.5,0.6c0,0.4-0.2,0.9-0.7,1.6
			c-0.5,0.7-1.2,1.3-2.1,2c-0.9,0.6-2,1.2-3.2,1.7s-2.6,0.7-4.2,0.7s-3.1-0.3-4.5-0.9c-1.3-0.6-2.5-1.5-3.4-2.6
			c-1-1.1-1.7-2.5-2.2-4.2c-0.5-1.6-0.8-3.5-0.8-5.5s0.3-3.9,0.9-5.5c0.6-1.6,1.4-3,2.4-4.2c1-1.1,2.3-2,3.7-2.7
			c1.4-0.6,3-0.9,4.6-0.9c1.4,0,2.8,0.2,4,0.7s2.2,1.1,3.1,1.9c0.8,0.8,1.5,1.7,1.9,2.7c0.5,1,0.7,2.1,0.7,3.3
			c0,0.5-0.2,0.8-0.5,0.9c-0.3,0.1-0.8,0.2-1.6,0.2L69.1,107.4L69.1,107.4z M77.7,105.1c0.9-0.4,1.3-1.2,1.3-2.4
			c0-0.9-0.4-1.8-1.2-2.6c-0.8-0.8-1.9-1.2-3.1-1.2c-1.4,0-2.6,0.5-3.7,1.5c-1,1-1.7,2.3-2,3.8l-0.2,0.9v0.1c0,0.3,0.2,0.5,0.7,0.5
			h3.9C75.4,105.7,76.8,105.5,77.7,105.1z"/>
		<path class="st3" d="M111.9,99.6c0.1,0,0.2,0,0.3,0s0.3,0,0.6,0c0.5,0,0.9,0.1,1.1,0.4c0.2,0.3,0.3,0.9,0.3,1.8
			c0,0.2-0.2,0.3-0.5,0.3s-0.8,0.1-1.5,0.1c-0.2,0-0.4,0-0.6,0c-0.3,0-0.6,0-1,0.1c0.6,1.4,0.9,2.8,0.9,4.2c0,2.5-0.8,4.5-2.4,5.9
			c-1.6,1.5-4,2.3-7.2,2.6c-1.4,0.1-2.5,0.3-3.2,0.6c-0.8,0.3-1.1,0.8-1.1,1.5c0,0.8,0.4,1.3,1.3,1.5s2,0.2,3.2,0.2h1.4
			c1.8,0,3.3,0.1,4.7,0.2c1.4,0.2,2.5,0.5,3.4,0.9s1.6,1,2.1,1.8s0.7,1.8,0.7,3c0,1.4-0.4,2.7-1,4c-0.7,1.3-1.7,2.4-2.9,3.4
			s-2.7,1.8-4.4,2.3c-1.7,0.6-3.5,0.9-5.5,0.9c-3.3,0-5.8-0.6-7.5-1.7c-1.7-1.1-2.6-2.6-2.6-4.4c0-1.4,0.9-2.8,2.7-4l2-1.3
			c0.4-0.3,0.7-0.6,0.7-0.8c0-0.1-0.1-0.3-0.4-0.6l-0.8-0.9c-0.8-0.9-1.3-1.6-1.8-2.3c-0.4-0.6-0.6-1.2-0.6-1.6s0.2-0.8,0.5-1
			s0.8-0.5,1.3-0.7l2.3-1c0.5-0.2,0.7-0.4,0.7-0.5c0,0-0.2-0.2-0.7-0.5l-0.9-0.6c-1.2-0.7-2.1-1.7-2.7-2.9s-1-2.5-1-3.9
			c0-1.2,0.2-2.4,0.7-3.5s1.1-2,2-2.8s1.9-1.4,3.1-1.9s2.5-0.7,3.9-0.7s2.6,0.1,3.6,0.4c0.9,0.3,1.9,0.7,2.8,1.2
			c0.3,0.1,0.6,0.2,0.8,0.3c0.2,0.1,0.6,0.2,1.2,0.2h0.5L111.9,99.6z M95.3,128c0,1.6,0.6,2.8,1.8,3.9c1.2,1,2.8,1.6,4.8,1.6
			c2.3,0,4.2-0.5,5.7-1.6c1.5-1,2.2-2.3,2.2-3.9c0-1.1-0.2-2-0.7-2.5c-0.5-0.6-1.2-1-2.2-1.2c-1-0.3-2.3-0.4-3.8-0.5
			s-3.3-0.1-5.4-0.1C96.1,124.8,95.3,126.2,95.3,128z M98.4,101.1c-0.8,1.2-1.3,3-1.3,5.2c0,2.2,0.4,3.9,1.3,5.2
			c0.8,1.3,1.9,1.9,3.2,1.9s2.3-0.6,3.1-1.9c0.8-1.3,1.2-3,1.2-5.2s-0.4-3.9-1.2-5.2c-0.8-1.3-1.9-1.9-3.1-1.9S99.2,99.9,98.4,101.1
			z"/>
		<path class="st3" d="M136.5,116.9c0,1.2,0.1,2.1,0.2,2.7c0.2,0.6,0.6,0.9,1.3,0.9c0.4,0,0.8-0.2,1.2-0.6c0.4-0.4,0.7-0.6,1.1-0.6
			c0.5,0,0.7,0.3,0.7,0.8c0,0.3-0.2,0.7-0.5,1.1s-0.8,0.8-1.3,1.2s-1,0.8-1.6,1.1s-1.1,0.4-1.6,0.4c-1,0-1.9-0.3-2.6-0.9
			c-0.7-0.6-1.2-1.6-1.7-2.8h-0.4l-1.3,1c-1,0.8-2,1.5-2.9,2.1s-1.9,0.9-3.1,0.9c-1.3,0-2.3-0.4-3.1-1.2s-1.2-1.9-1.2-3.3
			c0-1.2,0.2-2.3,0.7-3.2c0.4-0.9,1.1-1.8,1.9-2.5c0.8-0.8,1.9-1.5,3-2.1c1.2-0.7,2.5-1.3,3.9-2l1.5-0.7c0.3-0.1,0.5-0.3,0.6-0.5
			s0.1-0.5,0.1-0.9v-3.9c0-1.6-0.1-2.7-0.4-3.4c-0.3-0.7-0.9-1.1-2-1.1c-1,0-1.9,0.3-2.5,1c-0.6,0.6-1.2,1.6-1.7,2.7
			c-0.4,0.9-0.9,1.7-1.5,2.4c-0.5,0.6-1.4,1-2.6,1c-0.3,0-0.6-0.1-0.8-0.3s-0.3-0.4-0.3-0.7c0-0.8,0.3-1.7,0.8-2.6s1.3-1.8,2.3-2.5
			c1-0.8,2.1-1.4,3.5-1.9c1.3-0.5,2.8-0.7,4.4-0.7c1.3,0,2.3,0.1,3.1,0.4s1.4,0.7,1.8,1.2c0.4,0.5,0.7,1.2,0.8,2s0.2,1.7,0.2,2.7
			L136.5,116.9L136.5,116.9z M131.3,110.6c-0.1,0-0.3,0.1-0.6,0.2l-2,0.9c-2.4,1.1-3.5,3-3.5,5.5c0,1.1,0.2,1.9,0.6,2.4
			c0.4,0.6,1,0.8,1.6,0.8c0.5,0,1-0.1,1.4-0.4c0.5-0.2,0.9-0.6,1.3-1c0.4-0.4,0.7-0.9,1-1.5s0.4-1.3,0.4-2v-4.4
			C131.6,110.8,131.5,110.6,131.3,110.6z"/>
		<path class="st3" d="M153.6,101c0,0.5,0.1,0.7,0.2,0.7c0.1,0,0.3-0.1,0.5-0.3l0.7-0.7c0.8-1,1.8-1.7,2.9-2.2s2.2-0.8,3.4-0.8
			c2.5,0,4.4,0.8,5.8,2.4c1.4,1.6,2.1,3.9,2.1,7V119c0,1.1,0.3,1.9,0.9,2.3c0.3,0.1,0.6,0.2,0.9,0.3c0.3,0,0.6,0.1,0.8,0.1
			s0.4,0.1,0.6,0.2c0.1,0.1,0.2,0.3,0.2,0.6c0,0.6-0.4,0.9-1.1,0.9c-0.6,0-1.2-0.1-2-0.2c-0.8-0.1-1.7-0.2-2.7-0.2s-1.9,0.1-2.6,0.2
			c-0.7,0.1-1.3,0.2-1.7,0.2c-0.6,0-1-0.3-1-0.9c0-0.3,0-0.4,0.2-0.6c0.1-0.1,0.2-0.2,0.4-0.2s0.4-0.1,0.6-0.1
			c0.2,0,0.5-0.1,0.7-0.2c0.5-0.2,0.8-0.5,0.8-0.9c0.1-0.4,0.1-0.9,0.1-1.5v-11.3c0-2.2-0.4-3.9-1.3-5c-0.9-1.1-2.2-1.7-3.8-1.7
			c-1.5,0-2.8,0.5-3.7,1.4c-1,1-1.4,2.4-1.4,4.4v12c0,0.6,0,1.1,0.2,1.5c0.1,0.4,0.3,0.6,0.7,0.8s0.7,0.3,1,0.3s0.5,0,0.7,0.1
			s0.4,0.1,0.5,0.2c0.1,0.1,0.2,0.3,0.2,0.7c0,0.6-0.4,0.8-1.1,0.8c-0.6,0-1.2-0.1-2-0.2c-0.8-0.1-1.7-0.2-2.7-0.2s-1.9,0.1-2.6,0.2
			c-0.7,0.1-1.3,0.2-1.7,0.2c-0.6,0-1-0.3-1-0.9c0-0.3,0-0.4,0.2-0.6c0.1-0.1,0.2-0.2,0.4-0.2s0.3-0.1,0.6-0.1
			c0.2,0,0.4-0.1,0.7-0.2c0.4-0.2,0.7-0.4,0.8-0.8c0.1-0.3,0.2-0.9,0.2-1.6v-13.1c0-1-0.1-1.7-0.4-2c-0.3-0.3-0.5-0.5-0.9-0.6
			c-0.3-0.1-0.6-0.1-0.9-0.1c-0.3,0-0.4-0.2-0.4-0.6s0.3-0.7,0.8-1s1.3-0.7,2.3-1.2c1.2-0.6,2-1.2,2.5-1.8c0.5-0.6,0.9-0.9,1.3-0.9
			c0.1,0,0.2,0.1,0.4,0.3c0.1,0.2,0.2,0.5,0.2,0.9v2.3H153.6z"/>
		<path class="st3" d="M191.9,98.4c0.9,0.5,1.4,1.2,1.4,2.2c0,1.3-0.1,2.2-0.2,2.9c-0.1,0.6-0.4,0.9-0.8,0.9c-0.4,0-0.7-0.3-0.8-0.8
			s-0.4-1.2-0.8-1.9c-1-1.6-2.3-2.4-4-2.4c-1.2,0-2.1,0.3-2.8,0.9s-1.1,1.4-1.1,2.3c0,0.6,0.1,1.2,0.4,1.6c0.3,0.4,0.7,0.8,1.2,1.2
			s1.1,0.7,1.9,1.1c0.7,0.3,1.6,0.7,2.5,1.2c2,1,3.4,2,4.3,3.2c0.9,1.2,1.4,2.7,1.4,4.5c0,1.4-0.2,2.7-0.7,3.8s-1.1,2-1.9,2.8
			c-0.8,0.8-1.8,1.3-3,1.7c-1.1,0.4-2.4,0.6-3.7,0.6c-1.4,0-2.6-0.1-3.7-0.4s-1.9-0.6-2.5-0.9c-0.4-0.2-0.6-0.4-0.7-0.7
			c-0.1-0.3-0.1-0.7-0.1-1.2v-1.4c0-1.5,0-2.6,0.1-3.3s0.3-1,0.8-1c0.3,0,0.5,0.1,0.6,0.3s0.2,0.5,0.3,0.8c0.1,0.4,0.2,0.8,0.4,1.3
			c0.1,0.5,0.4,1.1,0.7,1.7c1.1,2.3,2.7,3.4,4.8,3.4c1.3,0,2.3-0.4,3.1-1.2s1.2-1.9,1.2-3.3c0-0.7-0.1-1.3-0.4-1.9
			c-0.3-0.5-0.6-1-1.1-1.4s-1.1-0.8-1.8-1.2s-1.5-0.8-2.4-1.2c-1-0.5-1.9-1-2.6-1.4c-0.8-0.5-1.4-1-1.9-1.5s-0.9-1.1-1.2-1.8
			s-0.4-1.5-0.4-2.4c0-2.3,0.8-4.1,2.3-5.5c1.5-1.3,3.5-2,5.9-2C189.3,97.7,191,97.9,191.9,98.4z"/>
	</g>
	<path class="st4" d="M45.2,114.6L45.2,114.6c-1.9,0-3.5-1.6-3.5-3.5V106c0-1.9,1.6-3.5,3.5-3.5l0,0c1.9,0,3.5,1.6,3.5,3.5v5.1
		C48.7,113,47.1,114.6,45.2,114.6z"/>
</g>
</svg>
