<?xml version="1.0" encoding="utf-8"?>
<!-- Generator: Adobe Illustrator 21.1.0, SVG Export Plug-In . SVG Version: 6.00 Build 0)  -->
<svg version="1.1" id="Ebene_1" xmlns="http://www.w3.org/2000/svg" xmlns:xlink="http://www.w3.org/1999/xlink" x="0px" y="0px"
	 viewBox="0 0 388.8 102" style="enable-background:new 0 0 388.8 102;" xml:space="preserve">
<style type="text/css">
	.st0{fill:#020204;stroke:#000000;stroke-miterlimit:10;}
	.st1{fill:#94C11C;}
	.st2{fill:#FFFFFF;}
	.st3{fill:none;}
	.st4{enable-background:new    ;}
</style>
<rect class="st0" width="388.8" height="102"/>
<g>
	<rect class="st1" width="153.1" height="102"/>
</g>
<path class="st2" d="M59.6,23.6c1.6,0.1,2.4,0.2,4,0.4c0.5,0.1,1-0.2,1.1-0.5c0.3-1.1,0.4-1.6,0.7-2.7c0.1-0.4,0.4-0.3,0.6,0.1
	c0.7,1.2,1,1.8,1.7,3.1c0.2,0.4,0.8,0.8,1.3,0.9c1.5,0.3,2,0.4,3.9,0.9c0.5,0.1,0.6,0.4,0.2,0.5c-1.1,0.4-1.7,0.5-2.8,1
	c-0.4,0.1-0.5,0.6-0.3,1c0.6,1.2,0.9,1.9,1.5,3.2c0.2,0.4,0,0.5-0.4,0.1c-1.3-1.1-1.9-1.5-3.2-2.4c-0.4-0.3-1.1-0.4-1.5-0.3
	c-1.1,0.5-1.7,0.8-2.8,1.3c-0.4,0.2-0.6,0-0.5-0.3c0.3-1,0.4-1.7,0.7-2.7c0.1-0.3-0.2-0.9-0.7-1.1c-1.4-0.8-2.1-1.2-3.6-2
	C59,23.7,59.1,23.5,59.6,23.6"/>
<path class="st2" d="M43.7,35.2c1.9-0.4,2.5-0.5,4.4-0.8c0.6-0.1,1.1-0.4,1.2-0.8c0.4-1.1,0.6-1.7,1-2.8c0.1-0.4,0.4-0.4,0.6,0
	c0.6,1,0.9,1.6,1.6,2.6c0.2,0.3,0.8,0.6,1.3,0.6c1.7-0.1,2.1-0.2,3.9-0.3c0.5,0,0.6,0.2,0.2,0.4c-1.3,0.9-1.8,1.2-3,2
	c-0.4,0.2-0.6,0.7-0.4,1c0.6,1.1,0.9,1.6,1.4,2.8c0.2,0.4,0,0.5-0.4,0.2c-1.3-0.7-2-1.1-3.3-1.7c-0.5-0.2-1.2-0.2-1.6,0.1
	c-1.3,0.8-1.7,1-3.4,2.1c-0.5,0.3-0.7,0.2-0.5-0.2c0.5-1.4,0.7-1.7,1.2-2.9c0.1-0.4-0.1-0.8-0.6-0.9c-1.5-0.5-2.2-0.6-3.8-1
	C43,35.5,43.1,35.3,43.7,35.2"/>
<path class="st2" d="M35.3,50c1.8-0.1,2.6-0.2,4.3-0.2c0.5,0,1.2-0.3,1.5-0.7c0.8-1.1,1.2-1.7,2.1-2.8c0.3-0.4,0.5-0.3,0.6,0
	c0.2,1.2,0.2,1.7,0.4,2.9c0,0.4,0.5,0.7,1,0.8c1.7,0.2,1.9,0.3,3.6,0.6c0.5,0.1,0.5,0.3,0,0.4c-1.4,0.4-2,0.7-3.5,1.2
	c-0.5,0.2-0.9,0.7-0.9,1c0,1.2,0,1.8,0,3c0,0.4-0.2,0.5-0.5,0.2c-0.9-0.9-1.4-1.3-2.3-2.1c-0.3-0.3-1-0.3-1.5-0.1
	c-1.6,0.7-2.3,1-3.9,1.8c-0.5,0.2-0.7,0.1-0.4-0.3c0.9-1.2,1.4-1.8,2.3-2.9c0.3-0.4,0.3-0.9-0.1-1.1c-1.1-0.7-1.7-1-2.9-1.6
	C34.6,50.2,34.7,50,35.3,50"/>
<path class="st2" d="M63.9,69.7c-1.2,0.7-1.8,1.1-3.1,2c-0.4,0.3-0.7,0.9-0.5,1.4c0.3,1.4,0.5,2.1,0.8,3.6c0.1,0.5-0.1,0.6-0.5,0.4
	c-1.1-0.9-1.6-1.4-2.7-2.2c-0.4-0.3-1-0.2-1.4,0.1c-1.3,1-1.9,1.5-3.2,2.5c-0.4,0.3-0.6,0.2-0.4-0.3c0.6-1.5,0.9-2.3,1.5-3.7
	c0.2-0.5,0.1-1.1-0.3-1.3c-1.1-0.7-1.7-1.1-2.8-1.8c-0.4-0.2-0.3-0.4,0.2-0.5c1.5-0.2,2.2-0.3,3.7-0.4c0.5,0,1-0.4,1.2-0.9
	c0.6-1.4,0.8-2.1,1.4-3.3c0.2-0.4,0.4-0.4,0.5,0c0.3,1.3,0.5,1.9,0.8,3.2c0.1,0.4,0.6,0.8,1,0.8c1.4,0,2.2-0.1,3.6,0.1
	C64.2,69.2,64.2,69.5,63.9,69.7"/>
<path class="st2" d="M83.1,71.9c-1,0.3-1.5,0.5-2.6,0.9c-0.3,0.1-0.5,0.6-0.3,1c0.5,1.3,0.7,1.9,1.2,3.2c0.2,0.4,0,0.5-0.4,0.2
	c-1.1-1-1.7-1.5-2.8-2.5c-0.4-0.3-0.9-0.5-1.3-0.4c-1.1,0.4-1.6,0.7-2.7,1.2c-0.4,0.2-0.5,0-0.4-0.4c0.4-1.2,0.6-1.7,1-2.8
	c0.1-0.4,0-0.9-0.4-1.3c-1.1-1.1-1.6-1.6-2.6-2.7c-0.3-0.3-0.3-0.5,0.2-0.4c1.3,0.4,2,0.6,3.3,1c0.4,0.1,0.9,0,1-0.4
	c0.4-1,0.6-1.5,0.9-2.5c0.1-0.3,0.3-0.2,0.5,0.2c0.4,1.3,0.6,1.9,1.1,3.2c0.1,0.4,0.6,0.9,1,1c1.3,0.4,2,0.6,3.3,1.1
	C83.3,71.5,83.4,71.7,83.1,71.9"/>
<path class="st2" d="M100.3,66.8c-1.1,0.4-1.7,0.7-2.8,1.1c-0.4,0.1-0.5,0.6-0.3,1c0.6,1.2,0.9,1.8,1.5,3c0.2,0.4,0,0.5-0.4,0.2
	c-1.3-0.9-1.9-1.4-3.2-2.5c-0.4-0.4-1-0.6-1.4-0.5c-1.1,0.3-1.6,0.5-2.6,0.8c-0.3,0.1-0.5-0.1-0.5-0.4c0.3-1,0.5-1.6,0.8-2.6
	c0.1-0.3-0.1-0.9-0.5-1.3c-1.2-1.2-1.8-1.8-2.9-2.9c-0.4-0.4-0.3-0.5,0.1-0.4c1.4,0.6,2.1,0.8,3.4,1.4c0.4,0.2,0.9,0,1-0.3
	c0.3-1,0.5-1.5,0.8-2.5c0.1-0.3,0.3-0.2,0.5,0.2c0.5,1.3,0.8,2,1.3,3.3c0.2,0.4,0.7,0.9,1.2,1.1c1.4,0.5,2.2,0.6,3.7,0.9
	C100.6,66.4,100.7,66.6,100.3,66.8"/>
<path class="st2" d="M111.5,55.3c-1.1,0.8-1.6,1.1-2.7,1.8c-0.3,0.2-0.5,0.6-0.3,1c0.5,1,0.7,1.4,1.2,2.4c0.2,0.3,0,0.4-0.4,0.2
	c-1.1-0.6-1.7-0.9-2.8-1.6c-0.4-0.2-0.9-0.3-1.2-0.2c-1,0.4-1.5,0.7-2.4,1.1c-0.3,0.1-0.5,0-0.4-0.3c0.3-0.9,0.5-1.3,0.8-2.2
	c0.1-0.3-0.1-0.8-0.4-1c-1-0.8-1.6-1.3-2.6-2.2c-0.3-0.3-0.3-0.4,0.1-0.3c1.2,0.3,1.8,0.4,3.1,0.7c0.4,0.1,0.8-0.2,1-0.5
	c0.4-1,0.5-1.6,0.9-2.7c0.1-0.3,0.3-0.3,0.5,0c0.4,1.2,0.6,1.7,1.1,2.9c0.1,0.4,0.6,0.7,1,0.7c1.3,0.1,2,0.1,3.4,0
	C111.8,54.9,111.9,55.1,111.5,55.3"/>
<path class="st2" d="M120.7,38c-1.1,1.1-1.6,1.6-2.6,2.7c-0.3,0.3-0.5,0.9-0.4,1.2c0.4,0.9,0.5,1.4,0.9,2.3c0.1,0.3,0,0.5-0.4,0.4
	c-1-0.2-1.5-0.4-2.5-0.7c-0.3-0.1-0.8,0-1.2,0.3c-1,0.9-1.5,1.4-2.5,2.2c-0.3,0.3-0.5,0.2-0.3-0.2c0.3-1.1,0.6-1.7,1-2.8
	c0.1-0.4,0-0.8-0.3-1c-0.9-0.5-1.4-0.7-2.3-1.2c-0.3-0.2-0.2-0.4,0.1-0.4c1.2-0.2,1.8-0.3,2.9-0.6c0.4-0.1,0.8-0.5,1-0.9
	c0.4-1.2,0.6-1.8,1.1-3.1c0.1-0.4,0.3-0.5,0.4-0.1c0.3,1,0.5,1.6,0.8,2.6c0.1,0.3,0.5,0.5,0.9,0.3c1.2-0.4,1.9-0.7,3.2-1.2
	C120.9,37.5,121,37.6,120.7,38"/>
<path class="st2" d="M100.8,26.5c1.1,0.1,1.5,0.1,2.8,0c0.4,0,0.7-0.3,0.9-0.7c0.3-1.2,0.5-1.8,0.8-3.1c0.1-0.4,0.3-0.4,0.4-0.1
	c0.4,1.2,0.6,1.8,0.9,2.9c0.1,0.4,0.5,0.6,0.9,0.6c1,0,1.6,0,2.9-0.1c0.4,0,0.5,0.1,0.1,0.4c-0.9,0.7-1.4,1-2.3,1.7
	c-0.3,0.2-0.4,0.8-0.3,1.1c0.4,1,0.6,1.5,1,2.5c0.1,0.3,0,0.4-0.3,0.3c-0.9-0.5-1.4-0.8-2.3-1.3c-0.3-0.2-0.8-0.1-1.1,0.1
	c-0.9,0.7-1.3,1.1-2.1,1.7c-0.3,0.2-0.4,0.1-0.3-0.2c0.3-1,0.4-1.5,0.7-2.6c0.1-0.4-0.1-0.8-0.4-1c-0.9-0.7-1.4-1.1-2.3-1.8
	C100.4,26.7,100.5,26.5,100.8,26.5"/>
<path class="st2" d="M80.8,22.7c1.3,0.4,1.9,0.5,3.2,0.9c0.4,0.1,0.8-0.1,0.9-0.4c0.3-1,0.5-1.5,0.9-2.6c0.1-0.3,0.3-0.3,0.5,0.1
	c0.4,1.3,0.6,1.9,1.1,3.1c0.1,0.4,0.6,0.8,1,0.9c1.3,0.4,1.9,0.5,3.1,0.9c0.4,0.1,0.5,0.3,0.1,0.5c-1,0.4-1.5,0.6-2.5,1
	c-0.3,0.1-0.5,0.5-0.4,0.9c0.4,1.2,0.6,1.8,0.9,3c0.1,0.4,0,0.4-0.4,0.1c-1-1-1.4-1.5-2.4-2.5c-0.3-0.3-0.8-0.5-1.2-0.4
	c-0.9,0.3-1.4,0.5-2.3,0.8c-0.3,0.1-0.5-0.1-0.4-0.4c0.3-0.9,0.5-1.3,0.8-2.3c0.1-0.3-0.1-0.8-0.4-1.1c-1-1-1.6-1.4-2.6-2.4
	C80.3,22.7,80.4,22.6,80.8,22.7"/>
<path class="st2" d="M130.6,21.9c-0.9,0.8-1.4,1.3-2.4,2.2c-0.3,0.3-0.5,0.7-0.4,1c0.3,0.8,0.5,1.1,0.9,1.8c0.1,0.2,0,0.4-0.4,0.3
	c-1-0.1-1.5-0.2-2.4-0.4c-0.3-0.1-0.8,0.1-1.2,0.4c-1,0.9-1.6,1.4-2.6,2.4c-0.3,0.3-0.5,0.3-0.4-0.1c0.5-1.1,0.7-1.6,1.1-2.7
	c0.2-0.4,0-0.7-0.3-0.8c-0.9-0.3-1.4-0.5-2.3-0.8c-0.3-0.1-0.2-0.3,0.2-0.4c1.2-0.3,1.8-0.5,3-0.9c0.4-0.1,0.8-0.5,1-0.9
	c0.5-1.1,0.7-1.7,1.1-2.8c0.2-0.4,0.3-0.4,0.4-0.1c0.3,0.9,0.4,1.4,0.7,2.2c0.1,0.3,0.5,0.4,0.9,0.3c1.2-0.4,1.8-0.6,2.9-0.9
	C130.8,21.5,130.9,21.7,130.6,21.9"/>
<path class="st2" d="M89.7,41.9c0.7-0.2,0.8-0.5,0-0.5c-1.4,0.1-17.3,3.7-31.1,11.8C43.6,62,39,66.3,35.8,68.8
	c-0.8,0.7-1.5,0.7-1.6,0.3c-0.5-1.4-0.8-2.1-1.3-3.4c-0.1-0.4-0.5-0.3-0.7,0.2c-0.6,1.9-0.8,3-1.4,4.7c-0.2,0.5-0.4,1.1-1.4,1.8
	c-2,1.4-2.4,1.6-3.6,2.5c-0.4,0.3-0.7,0.6,0.2,0.8s1,0.2,2.2,0.4c0.9,0.2,0.6,0.8,0.5,1.3c-0.4,1.6-0.5,2.2-1,3.8
	c-0.2,0.5,0,0.6,0.5,0.1c1.3-1.4,1.7-1.8,3.1-3.3c0.5-0.5,1-1.2,1.6-1.1c1.4,0.2,1.5,0.3,3.4,0.6c0.8,0.2,0.8-0.2,0.6-0.8
	c-0.7-1.6-0.5-1.4-1-2.8c-0.2-0.4-0.2-1.2,0.3-1.7c7.9-7.7,11.2-10.2,22.1-17.3C66.8,49.5,78.2,45.1,89.7,41.9z"/>
<rect x="160.7" y="6.7" class="st3" width="244.6" height="88.5"/>
<g class="st4">
	<path class="st2" d="M168,8c0.6,0.3,1.1,0.8,1.5,1.3c0.4,0.6,0.8,1.2,1,2c0.3,0.8,0.4,1.6,0.4,2.5s-0.1,1.7-0.4,2.5
		c-0.3,0.8-0.6,1.4-1,2c-0.4,0.6-1,1-1.6,1.3c-0.6,0.3-1.2,0.5-1.9,0.5c-0.7,0-1.3-0.2-1.9-0.5c-0.6-0.3-1.1-0.8-1.5-1.3
		c-0.4-0.6-0.8-1.2-1-2c-0.3-0.8-0.4-1.6-0.4-2.5s0.1-1.7,0.4-2.5c0.3-0.8,0.6-1.4,1-2c0.4-0.6,1-1,1.5-1.3c0.6-0.3,1.2-0.5,1.9-0.5
		C166.8,7.5,167.4,7.7,168,8z M164.8,8.4c-0.4,0.2-0.7,0.6-1,1.1s-0.5,1-0.6,1.7s-0.2,1.5-0.2,2.4c0,1,0.1,1.8,0.2,2.6
		c0.2,0.8,0.4,1.4,0.7,1.9c0.3,0.5,0.6,0.9,1,1.2s0.8,0.4,1.2,0.4c0.4,0,0.8-0.1,1.2-0.4c0.4-0.2,0.7-0.6,1-1.1
		c0.3-0.5,0.5-1.1,0.6-1.7c0.2-0.7,0.2-1.5,0.2-2.4c0-1-0.1-1.8-0.3-2.6s-0.4-1.4-0.7-1.9c-0.3-0.5-0.6-0.9-1-1.2s-0.8-0.4-1.2-0.4
		C165.6,8.1,165.2,8.2,164.8,8.4z"/>
	<path class="st2" d="M174.4,12.2c0,0.1,0,0.2,0.1,0.2c0,0,0.1,0,0.2-0.1l0.3-0.4c0.4-0.5,0.8-0.7,1.2-0.7c0.3,0,0.6,0.1,0.8,0.4
		s0.3,0.6,0.3,0.9c0,0.3-0.1,0.5-0.2,0.7c-0.2,0.2-0.3,0.3-0.6,0.3c-0.2,0-0.3,0-0.4-0.1c-0.1-0.1-0.2-0.2-0.3-0.3
		c-0.1-0.1-0.2-0.2-0.3-0.3c-0.1-0.1-0.2-0.1-0.3-0.1c-0.4,0-0.6,0.6-0.6,1.8v4.1c0,0.2,0,0.4,0.1,0.5c0,0.1,0.1,0.2,0.3,0.3
		c0.1,0.1,0.3,0.1,0.4,0.1s0.2,0,0.3,0.1c0.1,0,0.1,0,0.2,0.1c0,0,0.1,0.1,0.1,0.2c0,0.1,0,0.1-0.1,0.2c-0.1,0.1-0.2,0.1-0.3,0.1
		c-0.2,0-0.5,0-0.8-0.1c-0.3,0-0.6-0.1-0.8-0.1c-0.3,0-0.5,0-0.8,0.1c-0.2,0-0.4,0.1-0.6,0.1c-0.2,0-0.3-0.1-0.3-0.3
		c0-0.1,0-0.1,0.1-0.2c0,0,0.1-0.1,0.1-0.1c0.1,0,0.1,0,0.2,0c0.1,0,0.2,0,0.3-0.1c0.2-0.1,0.3-0.2,0.3-0.3c0-0.1,0-0.2,0-0.4v-4.9
		c0-0.2,0-0.4-0.1-0.5c-0.1-0.1-0.2-0.1-0.2-0.2s-0.2,0-0.2-0.1c-0.1,0-0.1-0.1-0.1-0.2c0-0.1,0.1-0.2,0.2-0.3s0.3-0.2,0.6-0.4
		c0.3-0.3,0.6-0.5,0.7-0.7c0.2-0.2,0.3-0.3,0.4-0.3c0.1,0,0.2,0.1,0.2,0.4V12.2z"/>
	<path class="st2" d="M183.9,11.8C184,11.8,184,11.8,183.9,11.8c0.1,0,0.2,0,0.3,0c0.1,0,0.3,0,0.3,0.1c0.1,0.1,0.1,0.3,0.1,0.6
		c0,0.1,0,0.1-0.1,0.1c-0.1,0-0.2,0-0.4,0c0,0-0.1,0-0.2,0c-0.1,0-0.2,0-0.3,0c0.2,0.5,0.3,1,0.3,1.4c0,0.8-0.2,1.5-0.7,2
		c-0.5,0.5-1.2,0.8-2.1,0.9c-0.4,0-0.7,0.1-0.9,0.2c-0.2,0.1-0.3,0.3-0.3,0.5c0,0.3,0.1,0.4,0.4,0.5c0.3,0.1,0.6,0.1,0.9,0.1h0.4
		c0.5,0,1,0,1.3,0.1c0.4,0.1,0.7,0.2,1,0.3c0.3,0.1,0.5,0.4,0.6,0.6c0.1,0.3,0.2,0.6,0.2,1c0,0.5-0.1,0.9-0.3,1.4s-0.5,0.8-0.8,1.1
		c-0.4,0.3-0.8,0.6-1.3,0.8c-0.5,0.2-1,0.3-1.6,0.3c-0.9,0-1.7-0.2-2.2-0.6c-0.5-0.4-0.8-0.9-0.8-1.5c0-0.5,0.3-0.9,0.8-1.4l0.6-0.5
		c0.1-0.1,0.2-0.2,0.2-0.3c0,0,0-0.1-0.1-0.2l-0.2-0.3c-0.2-0.3-0.4-0.6-0.5-0.8s-0.2-0.4-0.2-0.6c0-0.2,0-0.3,0.1-0.4
		c0.1-0.1,0.2-0.2,0.4-0.3l0.7-0.3c0.1-0.1,0.2-0.1,0.2-0.2c0,0-0.1-0.1-0.2-0.2l-0.3-0.2c-0.3-0.3-0.6-0.6-0.8-1
		c-0.2-0.4-0.3-0.9-0.3-1.3c0-0.4,0.1-0.8,0.2-1.2c0.1-0.4,0.3-0.7,0.6-1c0.2-0.3,0.5-0.5,0.9-0.6c0.3-0.2,0.7-0.2,1.1-0.2
		c0.4,0,0.8,0,1,0.1c0.3,0.1,0.5,0.2,0.8,0.4c0.1,0,0.2,0.1,0.2,0.1c0.1,0,0.2,0.1,0.3,0.1h0.2L183.9,11.8z M179.2,21.5
		c0,0.5,0.2,1,0.5,1.3c0.3,0.4,0.8,0.5,1.4,0.5c0.7,0,1.2-0.2,1.6-0.5c0.4-0.4,0.6-0.8,0.6-1.3c0-0.4-0.1-0.7-0.2-0.9
		c-0.1-0.2-0.4-0.3-0.6-0.4c-0.3-0.1-0.7-0.1-1.1-0.2c-0.4,0-1,0-1.6,0C179.4,20.4,179.2,20.9,179.2,21.5z M180.1,12.3
		c-0.2,0.4-0.4,1-0.4,1.8c0,0.8,0.1,1.3,0.4,1.8c0.2,0.4,0.5,0.7,0.9,0.7c0.4,0,0.7-0.2,0.9-0.7c0.2-0.4,0.4-1,0.4-1.8
		c0-0.8-0.1-1.3-0.4-1.8c-0.2-0.4-0.5-0.7-0.9-0.7C180.6,11.7,180.3,11.9,180.1,12.3z"/>
	<path class="st2" d="M190.4,17.7c0,0.4,0,0.7,0.1,0.9s0.2,0.3,0.4,0.3c0.1,0,0.2-0.1,0.3-0.2c0.1-0.1,0.2-0.2,0.3-0.2
		c0.1,0,0.2,0.1,0.2,0.3c0,0.1-0.1,0.2-0.2,0.4c-0.1,0.1-0.2,0.3-0.4,0.4c-0.1,0.1-0.3,0.3-0.5,0.4s-0.3,0.2-0.5,0.2
		c-0.3,0-0.5-0.1-0.7-0.3c-0.2-0.2-0.4-0.5-0.5-1h-0.1l-0.4,0.3c-0.3,0.3-0.6,0.5-0.9,0.7c-0.3,0.2-0.6,0.3-0.9,0.3
		c-0.4,0-0.7-0.1-0.9-0.4c-0.2-0.3-0.3-0.6-0.3-1.1c0-0.4,0.1-0.8,0.2-1.1c0.1-0.3,0.3-0.6,0.6-0.9c0.2-0.3,0.5-0.5,0.9-0.7
		s0.7-0.5,1.1-0.7l0.4-0.2c0.1-0.1,0.1-0.1,0.2-0.2c0-0.1,0-0.2,0-0.3v-1.3c0-0.5,0-0.9-0.1-1.2c-0.1-0.2-0.3-0.4-0.6-0.4
		s-0.5,0.1-0.7,0.3s-0.3,0.5-0.5,0.9c-0.1,0.3-0.3,0.6-0.4,0.8s-0.4,0.3-0.8,0.3c-0.1,0-0.2,0-0.2-0.1s-0.1-0.1-0.1-0.2
		c0-0.3,0.1-0.6,0.2-0.9c0.2-0.3,0.4-0.6,0.7-0.9c0.3-0.3,0.6-0.5,1-0.6c0.4-0.2,0.8-0.3,1.3-0.3c0.4,0,0.7,0,0.9,0.1
		c0.2,0.1,0.4,0.2,0.5,0.4c0.1,0.2,0.2,0.4,0.2,0.7c0,0.3,0.1,0.6,0.1,0.9V17.7z M188.8,15.6c0,0-0.1,0-0.2,0.1l-0.6,0.3
		c-0.7,0.4-1,1-1,1.9c0,0.4,0.1,0.6,0.2,0.8c0.1,0.2,0.3,0.3,0.5,0.3c0.1,0,0.3,0,0.4-0.1c0.1-0.1,0.3-0.2,0.4-0.3s0.2-0.3,0.3-0.5
		c0.1-0.2,0.1-0.4,0.1-0.7v-1.5C188.9,15.7,188.9,15.6,188.8,15.6z"/>
	<path class="st2" d="M194.6,12.3c0,0.2,0,0.2,0.1,0.2s0.1,0,0.1-0.1l0.2-0.2c0.2-0.3,0.5-0.6,0.8-0.8c0.3-0.2,0.6-0.3,1-0.3
		c0.7,0,1.3,0.3,1.7,0.8c0.4,0.5,0.6,1.3,0.6,2.4v4.1c0,0.4,0.1,0.7,0.3,0.8c0.1,0.1,0.2,0.1,0.2,0.1c0.1,0,0.2,0,0.2,0
		c0.1,0,0.1,0,0.2,0.1c0,0,0.1,0.1,0.1,0.2c0,0.2-0.1,0.3-0.3,0.3c-0.2,0-0.4,0-0.6-0.1c-0.2,0-0.5-0.1-0.8-0.1
		c-0.3,0-0.6,0-0.8,0.1c-0.2,0-0.4,0.1-0.5,0.1c-0.2,0-0.3-0.1-0.3-0.3c0-0.1,0-0.2,0-0.2s0.1-0.1,0.1-0.1c0.1,0,0.1,0,0.2,0
		c0.1,0,0.1,0,0.2-0.1c0.1-0.1,0.2-0.2,0.2-0.3c0-0.1,0-0.3,0-0.5v-3.8c0-0.8-0.1-1.3-0.4-1.7s-0.6-0.6-1.1-0.6
		c-0.4,0-0.8,0.2-1.1,0.5s-0.4,0.8-0.4,1.5v4.1c0,0.2,0,0.4,0,0.5c0,0.1,0.1,0.2,0.2,0.3c0.1,0.1,0.2,0.1,0.3,0.1c0.1,0,0.2,0,0.2,0
		c0.1,0,0.1,0,0.1,0.1s0.1,0.1,0.1,0.2c0,0.2-0.1,0.3-0.3,0.3c-0.2,0-0.4,0-0.6-0.1c-0.2,0-0.5-0.1-0.8-0.1c-0.3,0-0.5,0-0.8,0.1
		c-0.2,0-0.4,0.1-0.5,0.1c-0.2,0-0.3-0.1-0.3-0.3c0-0.1,0-0.2,0-0.2s0.1-0.1,0.1-0.1c0,0,0.1,0,0.2,0c0.1,0,0.1,0,0.2-0.1
		c0.1-0.1,0.2-0.2,0.2-0.3c0-0.1,0.1-0.3,0.1-0.6v-4.5c0-0.3,0-0.6-0.1-0.7c-0.1-0.1-0.2-0.2-0.3-0.2s-0.2,0-0.3,0
		c-0.1,0-0.1-0.1-0.1-0.2s0.1-0.2,0.2-0.3c0.1-0.1,0.4-0.2,0.7-0.4c0.3-0.2,0.6-0.4,0.7-0.6s0.3-0.3,0.4-0.3c0,0,0.1,0,0.1,0.1
		c0,0.1,0.1,0.2,0.1,0.3V12.3z"/>
	<path class="st2" d="M203.2,18.4c0,0.2,0,0.4,0.1,0.5c0,0.1,0.1,0.2,0.2,0.3c0.1,0.1,0.2,0.1,0.3,0.1c0.1,0,0.2,0,0.2,0
		c0.1,0,0.1,0,0.2,0.1s0.1,0.1,0.1,0.2c0,0.2-0.1,0.3-0.3,0.3c-0.2,0-0.4,0-0.6-0.1c-0.2,0-0.5-0.1-0.8-0.1c-0.3,0-0.5,0-0.8,0.1
		c-0.2,0-0.4,0.1-0.5,0.1c-0.2,0-0.3-0.1-0.3-0.3c0-0.1,0-0.2,0-0.2s0.1-0.1,0.1-0.1c0.1,0,0.1,0,0.2,0s0.1,0,0.2-0.1
		c0.1-0.1,0.2-0.2,0.2-0.3c0-0.1,0-0.3,0-0.5v-4.5c0-0.3,0-0.6-0.1-0.7c-0.1-0.1-0.2-0.2-0.2-0.2c-0.1,0-0.2-0.1-0.2-0.1
		c-0.1,0-0.1-0.1-0.1-0.2c0-0.1,0.1-0.3,0.2-0.3c0.2-0.1,0.4-0.2,0.7-0.4c0.2-0.1,0.3-0.2,0.4-0.3c0.1-0.1,0.2-0.2,0.3-0.3
		c0.1-0.1,0.1-0.2,0.2-0.2c0.1-0.1,0.1-0.1,0.1-0.1c0.1,0,0.2,0.1,0.2,0.4V18.4z M203.1,8.2c0.1,0.2,0.2,0.5,0.2,0.7
		s-0.1,0.5-0.2,0.7c-0.2,0.2-0.3,0.3-0.5,0.3c-0.2,0-0.4-0.1-0.5-0.3c-0.2-0.2-0.2-0.5-0.2-0.7s0.1-0.5,0.2-0.7
		c0.1-0.2,0.3-0.3,0.5-0.3C202.7,7.8,202.9,8,203.1,8.2z"/>
	<path class="st2" d="M209.1,11.4c0.3,0.2,0.4,0.4,0.4,0.7c0,0.4,0,0.8-0.1,1c0,0.2-0.1,0.3-0.2,0.3c-0.1,0-0.2-0.1-0.2-0.3
		c0-0.2-0.1-0.4-0.2-0.7c-0.3-0.5-0.7-0.8-1.1-0.8c-0.3,0-0.6,0.1-0.8,0.3c-0.2,0.2-0.3,0.5-0.3,0.8c0,0.2,0,0.4,0.1,0.5
		c0.1,0.1,0.2,0.3,0.3,0.4c0.2,0.1,0.3,0.2,0.5,0.4c0.2,0.1,0.5,0.3,0.7,0.4c0.6,0.3,1,0.7,1.2,1.1c0.3,0.4,0.4,0.9,0.4,1.5
		c0,0.5-0.1,0.9-0.2,1.3c-0.1,0.4-0.3,0.7-0.6,1s-0.5,0.5-0.9,0.6c-0.3,0.1-0.7,0.2-1.1,0.2s-0.7,0-1.1-0.1
		c-0.3-0.1-0.5-0.2-0.7-0.3c-0.1-0.1-0.2-0.1-0.2-0.2s0-0.2,0-0.4v-0.5c0-0.5,0-0.9,0-1.1c0-0.2,0.1-0.4,0.2-0.4
		c0.1,0,0.1,0,0.2,0.1c0,0.1,0.1,0.2,0.1,0.3c0,0.1,0.1,0.3,0.1,0.4c0,0.2,0.1,0.4,0.2,0.6c0.3,0.8,0.8,1.2,1.4,1.2
		c0.4,0,0.7-0.1,0.9-0.4s0.4-0.7,0.4-1.1c0-0.2,0-0.5-0.1-0.6c-0.1-0.2-0.2-0.3-0.3-0.5s-0.3-0.3-0.5-0.4c-0.2-0.1-0.4-0.3-0.7-0.4
		c-0.3-0.2-0.5-0.3-0.8-0.5c-0.2-0.2-0.4-0.3-0.6-0.5c-0.1-0.2-0.3-0.4-0.3-0.6s-0.1-0.5-0.1-0.8c0-0.8,0.2-1.4,0.7-1.9
		c0.4-0.5,1-0.7,1.7-0.7C208.3,11.2,208.8,11.2,209.1,11.4z"/>
	<path class="st2" d="M213.2,12.3c0,0.2,0,0.2,0.1,0.2c0,0,0.1,0,0.1-0.1l0.2-0.2c0.2-0.3,0.5-0.6,0.8-0.8c0.3-0.2,0.6-0.3,0.9-0.3
		c0.5,0,0.9,0.1,1.2,0.4c0.3,0.3,0.6,0.6,0.8,1.1h0.1c0.6-1,1.3-1.5,2.1-1.5c0.6,0,1.1,0.3,1.4,0.8c0.4,0.5,0.6,1.2,0.6,2v4.5
		c0,0.2,0,0.4,0.1,0.5c0,0.1,0.1,0.2,0.2,0.3c0.1,0.1,0.2,0.1,0.3,0.1c0.1,0,0.2,0,0.2,0c0.1,0,0.1,0,0.2,0.1s0.1,0.1,0.1,0.2
		c0,0.2-0.1,0.3-0.3,0.3c-0.2,0-0.4,0-0.6-0.1c-0.2,0-0.5-0.1-0.8-0.1c-0.3,0-0.5,0-0.8,0.1c-0.2,0-0.4,0.1-0.5,0.1
		c-0.2,0-0.3-0.1-0.3-0.3c0-0.1,0-0.1,0-0.2c0,0,0.1-0.1,0.1-0.1c0,0,0.1,0,0.2,0c0.1,0,0.1,0,0.2-0.1c0.1-0.1,0.2-0.2,0.2-0.3
		c0-0.1,0.1-0.3,0.1-0.5v-3.2c0-1-0.1-1.7-0.3-2.2c-0.2-0.5-0.5-0.8-1-0.8c-0.4,0-0.7,0.2-1,0.5c-0.2,0.3-0.4,0.8-0.4,1.5v4.1
		c0,0.2,0,0.4,0,0.5c0,0.1,0.1,0.2,0.2,0.3c0.1,0.1,0.2,0.1,0.3,0.1s0.2,0,0.2,0s0.1,0,0.2,0.1c0,0,0.1,0.1,0.1,0.2
		c0,0.2-0.1,0.3-0.3,0.3c-0.2,0-0.4,0-0.6-0.1c-0.2,0-0.5-0.1-0.8-0.1c-0.3,0-0.5,0-0.8,0.1c-0.2,0-0.4,0.1-0.5,0.1
		c-0.2,0-0.3-0.1-0.3-0.3c0-0.1,0-0.2,0-0.2c0,0,0.1-0.1,0.1-0.1c0.1,0,0.1,0,0.2,0c0.1,0,0.1,0,0.2-0.1c0.1-0.1,0.2-0.2,0.3-0.3
		c0-0.1,0.1-0.3,0.1-0.5v-3.2c0-1-0.1-1.7-0.3-2.2c-0.2-0.5-0.5-0.8-1-0.8c-0.4,0-0.7,0.2-1,0.5c-0.2,0.3-0.4,0.8-0.4,1.5v4.1
		c0,0.2,0,0.4,0.1,0.5c0,0.1,0.1,0.2,0.2,0.3c0.1,0.1,0.2,0.1,0.3,0.1c0.1,0,0.2,0,0.2,0c0.1,0,0.1,0,0.2,0.1c0,0,0.1,0.1,0.1,0.2
		c0,0.2-0.1,0.3-0.3,0.3c-0.2,0-0.4,0-0.6-0.1c-0.2,0-0.5-0.1-0.8-0.1c-0.3,0-0.5,0-0.8,0.1c-0.2,0-0.4,0.1-0.5,0.1
		c-0.2,0-0.3-0.1-0.3-0.3c0-0.1,0-0.1,0-0.2c0,0,0.1-0.1,0.1-0.1c0,0,0.1,0,0.2,0c0.1,0,0.1,0,0.2-0.1c0.1-0.1,0.2-0.2,0.2-0.3
		c0-0.1,0.1-0.3,0.1-0.5v-4.5c0-0.3,0-0.6-0.1-0.7c-0.1-0.1-0.2-0.2-0.3-0.2s-0.2,0-0.3-0.1c-0.1,0-0.1-0.1-0.1-0.2
		c0-0.2,0.1-0.3,0.2-0.4c0.2-0.1,0.4-0.2,0.6-0.3c0.2-0.1,0.4-0.3,0.5-0.4c0.1-0.1,0.2-0.2,0.3-0.3c0.1-0.1,0.2-0.2,0.2-0.2
		c0.1-0.1,0.1-0.1,0.1-0.1s0.1,0,0.1,0.1s0,0.2,0,0.3V12.3z"/>
	<path class="st2" d="M223.6,13.8c0.2-0.6,0.4-1,0.7-1.4c0.3-0.4,0.7-0.7,1.2-0.9s1-0.3,1.5-0.3c0.5,0,1,0.1,1.5,0.3
		c0.4,0.2,0.8,0.5,1.1,0.9c0.3,0.4,0.5,0.9,0.7,1.4c0.2,0.6,0.2,1.2,0.2,1.9c0,0.7-0.1,1.3-0.3,1.8c-0.2,0.6-0.4,1-0.7,1.4
		s-0.7,0.7-1.2,0.9s-1,0.3-1.6,0.3c-0.5,0-1-0.1-1.4-0.3c-0.4-0.2-0.8-0.5-1.1-0.9c-0.3-0.4-0.5-0.9-0.7-1.4
		c-0.2-0.6-0.3-1.2-0.3-1.8C223.4,15,223.5,14.4,223.6,13.8z M225.4,12.7c-0.4,0.6-0.5,1.6-0.5,2.8c0,1.3,0.2,2.4,0.6,3.1
		c0.4,0.8,0.9,1.1,1.5,1.1c0.6,0,1.1-0.3,1.5-1s0.5-1.6,0.5-2.7c0-1.3-0.2-2.4-0.6-3.1c-0.4-0.8-0.9-1.1-1.5-1.1
		C226.3,11.7,225.8,12,225.4,12.7z"/>
	<path class="st2" d="M242.4,18.1c0,0.5,0.1,0.8,0.2,0.8c0.1,0,0.2-0.1,0.3-0.2s0.2-0.2,0.2-0.2c0,0,0.1,0,0.1,0.1
		c0,0.1,0.1,0.1,0.1,0.2c0,0.2,0,0.4-0.1,0.4s-0.2,0.1-0.3,0.2c-0.4,0.2-0.8,0.3-1,0.5c-0.2,0.2-0.4,0.2-0.5,0.2
		c-0.1,0-0.1,0-0.1-0.1c0-0.1-0.1-0.2-0.1-0.3c0-0.1,0-0.2-0.1-0.3c0-0.1-0.1-0.1-0.1-0.1c0,0-0.1,0-0.2,0.1
		c-0.1,0.1-0.2,0.2-0.4,0.3s-0.3,0.2-0.6,0.3c-0.2,0.1-0.5,0.1-0.8,0.1c-0.4,0-0.8-0.1-1.2-0.3c-0.4-0.2-0.7-0.5-1-0.9
		s-0.5-0.8-0.7-1.4c-0.2-0.5-0.3-1.1-0.3-1.8c0-0.7,0.1-1.3,0.3-1.9c0.2-0.6,0.4-1.1,0.8-1.5s0.7-0.7,1.1-1c0.4-0.2,0.9-0.3,1.4-0.3
		c0.2,0,0.5,0,0.7,0.1c0.2,0,0.4,0.1,0.5,0.1l0.2,0.1h0c0.1,0,0.1-0.1,0.1-0.3V8.7c0-0.2,0-0.3-0.1-0.4c-0.1-0.1-0.2-0.1-0.3-0.2
		c-0.1,0-0.2-0.1-0.3-0.1c-0.1,0-0.1-0.1-0.1-0.2c0-0.1,0.1-0.2,0.2-0.3c0.2,0,0.3-0.1,0.6-0.2c0.4-0.2,0.7-0.3,0.9-0.5
		c0.2-0.1,0.3-0.2,0.4-0.2c0.1,0,0.1,0,0.2,0.1s0,0.2,0,0.3c0,0.2,0,0.4,0,0.6c0,0.2,0,0.4,0,0.7V18.1z M240.9,13.4
		c0-0.3-0.1-0.6-0.2-0.9s-0.2-0.4-0.4-0.6c-0.2-0.1-0.4-0.2-0.7-0.2c-0.3,0-0.6,0.1-0.8,0.3c-0.3,0.2-0.5,0.5-0.7,0.8
		s-0.4,0.8-0.5,1.3s-0.2,1.1-0.2,1.7c0,1.1,0.2,2,0.7,2.6c0.4,0.6,1,0.9,1.8,0.9c0.2,0,0.4,0,0.6-0.1c0.1-0.1,0.2-0.2,0.3-0.3
		c0.1-0.1,0.1-0.3,0.1-0.5c0-0.2,0-0.4,0-0.7v-3.2C240.9,14.1,240.9,13.7,240.9,13.4z"/>
	<path class="st2" d="M246.6,18.4c0,0.2,0,0.4,0.1,0.5c0,0.1,0.1,0.2,0.2,0.3c0.1,0.1,0.2,0.1,0.3,0.1s0.2,0,0.2,0s0.1,0,0.2,0.1
		c0,0,0.1,0.1,0.1,0.2c0,0.2-0.1,0.3-0.3,0.3c-0.2,0-0.4,0-0.6-0.1c-0.2,0-0.5-0.1-0.8-0.1c-0.3,0-0.5,0-0.8,0.1
		c-0.2,0-0.4,0.1-0.5,0.1c-0.2,0-0.3-0.1-0.3-0.3c0-0.1,0-0.2,0-0.2c0,0,0.1-0.1,0.1-0.1c0.1,0,0.1,0,0.2,0s0.1,0,0.2-0.1
		c0.1-0.1,0.2-0.2,0.2-0.3c0-0.1,0-0.3,0-0.5v-4.5c0-0.3,0-0.6-0.1-0.7c-0.1-0.1-0.2-0.2-0.2-0.2c-0.1,0-0.2-0.1-0.2-0.1
		c-0.1,0-0.1-0.1-0.1-0.2c0-0.1,0.1-0.3,0.2-0.3c0.2-0.1,0.4-0.2,0.7-0.4c0.2-0.1,0.3-0.2,0.4-0.3c0.1-0.1,0.2-0.2,0.3-0.3
		c0.1-0.1,0.1-0.2,0.2-0.2c0.1-0.1,0.1-0.1,0.1-0.1c0.1,0,0.2,0.1,0.2,0.4V18.4z M246.5,8.2c0.2,0.2,0.2,0.5,0.2,0.7
		s-0.1,0.5-0.2,0.7c-0.2,0.2-0.3,0.3-0.5,0.3c-0.2,0-0.4-0.1-0.5-0.3c-0.1-0.2-0.2-0.5-0.2-0.7s0.1-0.5,0.2-0.7
		c0.2-0.2,0.3-0.3,0.5-0.3C246.1,7.8,246.3,8,246.5,8.2z"/>
	<path class="st2" d="M256.9,11.3c0.2,0.1,0.5,0.2,0.6,0.3s0.3,0.2,0.4,0.4c0.1,0.1,0.2,0.3,0.2,0.5c0,0.5,0,0.9-0.1,1.1
		s-0.2,0.4-0.3,0.4c-0.2,0-0.3-0.2-0.5-0.6c-0.1-0.2-0.2-0.5-0.3-0.7c-0.1-0.2-0.2-0.4-0.3-0.5s-0.2-0.2-0.3-0.3s-0.2-0.1-0.4-0.1
		c-0.2,0-0.4,0.1-0.6,0.3c-0.2,0.2-0.4,0.4-0.6,0.7c-0.2,0.3-0.3,0.7-0.4,1.2s-0.2,1-0.2,1.6c0,0.6,0.1,1.1,0.2,1.6s0.3,0.9,0.5,1.2
		s0.5,0.6,0.8,0.7c0.3,0.2,0.6,0.3,1,0.3c0.2,0,0.4,0,0.6-0.1c0.2-0.1,0.3-0.2,0.5-0.3c0.1-0.1,0.2-0.2,0.3-0.3
		c0.1-0.1,0.1-0.1,0.2-0.1c0.2,0,0.2,0.1,0.2,0.2c0,0.1-0.1,0.3-0.2,0.4c-0.1,0.2-0.3,0.4-0.5,0.5c-0.2,0.2-0.5,0.3-0.8,0.4
		c-0.3,0.1-0.6,0.2-1,0.2c-0.5,0-0.9-0.1-1.3-0.3c-0.4-0.2-0.7-0.5-1-0.9c-0.3-0.4-0.5-0.9-0.7-1.4c-0.2-0.6-0.2-1.2-0.2-1.9
		c0-0.7,0.1-1.3,0.3-1.9c0.2-0.6,0.4-1,0.7-1.4c0.3-0.4,0.7-0.7,1.1-0.9s0.9-0.3,1.4-0.3C256.4,11.2,256.7,11.2,256.9,11.3z"/>
	<path class="st2" d="M259.6,13.8c0.2-0.6,0.4-1,0.7-1.4c0.3-0.4,0.7-0.7,1.2-0.9c0.4-0.2,1-0.3,1.5-0.3c0.5,0,1,0.1,1.5,0.3
		c0.4,0.2,0.8,0.5,1.1,0.9s0.5,0.9,0.7,1.4c0.2,0.6,0.3,1.2,0.3,1.9c0,0.7-0.1,1.3-0.3,1.8c-0.2,0.6-0.4,1-0.7,1.4
		c-0.3,0.4-0.7,0.7-1.2,0.9s-1,0.3-1.6,0.3c-0.5,0-1-0.1-1.4-0.3c-0.4-0.2-0.8-0.5-1.1-0.9s-0.5-0.9-0.7-1.4
		c-0.2-0.6-0.3-1.2-0.3-1.8C259.3,15,259.4,14.4,259.6,13.8z M261.4,12.7c-0.4,0.6-0.5,1.6-0.5,2.8c0,1.3,0.2,2.4,0.6,3.1
		c0.4,0.8,0.9,1.1,1.5,1.1c0.6,0,1.1-0.3,1.5-1s0.5-1.6,0.5-2.7c0-1.3-0.2-2.4-0.6-3.1c-0.4-0.8-0.9-1.1-1.5-1.1
		C262.3,11.7,261.8,12,261.4,12.7z"/>
	<path class="st2" d="M270,12.3c0,0.2,0,0.2,0.1,0.2c0,0,0.1,0,0.1-0.1l0.2-0.2c0.2-0.3,0.5-0.6,0.8-0.8c0.3-0.2,0.6-0.3,1-0.3
		c0.7,0,1.3,0.3,1.7,0.8c0.4,0.5,0.6,1.3,0.6,2.4v4.1c0,0.4,0.1,0.7,0.3,0.8c0.1,0.1,0.2,0.1,0.3,0.1s0.2,0,0.2,0
		c0.1,0,0.1,0,0.2,0.1c0,0,0.1,0.1,0.1,0.2c0,0.2-0.1,0.3-0.3,0.3c-0.2,0-0.4,0-0.6-0.1c-0.2,0-0.5-0.1-0.8-0.1s-0.6,0-0.8,0.1
		c-0.2,0-0.4,0.1-0.5,0.1c-0.2,0-0.3-0.1-0.3-0.3c0-0.1,0-0.2,0-0.2c0,0,0.1-0.1,0.1-0.1c0.1,0,0.1,0,0.2,0c0.1,0,0.1,0,0.2-0.1
		c0.1-0.1,0.2-0.2,0.2-0.3s0-0.3,0-0.5v-3.8c0-0.8-0.1-1.3-0.4-1.7c-0.3-0.4-0.6-0.6-1.1-0.6c-0.4,0-0.8,0.2-1.1,0.5
		c-0.3,0.3-0.4,0.8-0.4,1.5v4.1c0,0.2,0,0.4,0,0.5c0,0.1,0.1,0.2,0.2,0.3c0.1,0.1,0.2,0.1,0.3,0.1s0.2,0,0.2,0c0.1,0,0.1,0,0.1,0.1
		c0,0,0.1,0.1,0.1,0.2c0,0.2-0.1,0.3-0.3,0.3c-0.2,0-0.4,0-0.6-0.1c-0.2,0-0.5-0.1-0.8-0.1c-0.3,0-0.5,0-0.8,0.1
		c-0.2,0-0.4,0.1-0.5,0.1c-0.2,0-0.3-0.1-0.3-0.3c0-0.1,0-0.2,0-0.2c0,0,0.1-0.1,0.1-0.1c0,0,0.1,0,0.2,0c0.1,0,0.1,0,0.2-0.1
		c0.1-0.1,0.2-0.2,0.2-0.3c0-0.1,0.1-0.3,0.1-0.6v-4.5c0-0.3,0-0.6-0.1-0.7c-0.1-0.1-0.2-0.2-0.3-0.2c-0.1,0-0.2,0-0.2,0
		c-0.1,0-0.1-0.1-0.1-0.2s0.1-0.2,0.2-0.3c0.1-0.1,0.4-0.2,0.7-0.4c0.3-0.2,0.6-0.4,0.7-0.6s0.3-0.3,0.4-0.3c0,0,0.1,0,0.1,0.1
		c0,0.1,0.1,0.2,0.1,0.3V12.3z"/>
	<path class="st2" d="M278.4,11.2c0,0.2,0.1,0.2,0.2,0.2h1.3c0.1,0,0.2,0,0.2,0c0,0,0,0.1,0,0.2v0.4c0,0.1,0,0.2,0,0.2
		c0,0-0.1,0.1-0.2,0.1h-1.3c-0.1,0-0.2,0.1-0.2,0.2v4.8c0,0.6,0,1,0.1,1.3c0.1,0.3,0.3,0.4,0.5,0.4c0.1,0,0.2,0,0.3-0.1
		c0.1-0.1,0.2-0.1,0.3-0.2c0.1-0.1,0.2-0.1,0.2-0.2c0.1-0.1,0.1-0.1,0.2-0.1c0.1,0,0.2,0.1,0.2,0.3c0,0.1-0.1,0.2-0.2,0.4
		s-0.2,0.3-0.4,0.5c-0.2,0.2-0.4,0.3-0.6,0.4c-0.2,0.1-0.5,0.2-0.8,0.2c-0.9,0-1.4-0.8-1.4-2.4V17l0.1-4.1c0-0.2,0-0.3,0-0.4
		c0-0.1-0.1-0.2-0.2-0.2h-0.3c-0.2,0-0.3-0.1-0.3-0.2c0-0.1,0-0.1,0.1-0.2c0.1-0.1,0.1-0.1,0.2-0.2c0.1-0.1,0.2-0.2,0.4-0.3
		c0.1-0.1,0.3-0.3,0.4-0.5c0.3-0.4,0.5-0.7,0.6-0.9c0.1-0.3,0.2-0.4,0.3-0.4c0.1,0,0.1,0,0.1,0.1c0,0.1,0,0.2,0,0.3V11.2z"/>
	<path class="st2" d="M283.3,12.2c0,0.1,0,0.2,0.1,0.2c0,0,0.1,0,0.2-0.1l0.3-0.4c0.4-0.5,0.8-0.7,1.2-0.7c0.3,0,0.6,0.1,0.8,0.4
		s0.3,0.6,0.3,0.9c0,0.3-0.1,0.5-0.2,0.7c-0.2,0.2-0.3,0.3-0.6,0.3c-0.2,0-0.3,0-0.4-0.1c-0.1-0.1-0.2-0.2-0.3-0.3
		c-0.1-0.1-0.2-0.2-0.3-0.3c-0.1-0.1-0.2-0.1-0.3-0.1c-0.4,0-0.6,0.6-0.6,1.8v4.1c0,0.2,0,0.4,0.1,0.5c0,0.1,0.1,0.2,0.3,0.3
		c0.1,0.1,0.3,0.1,0.4,0.1s0.2,0,0.3,0.1s0.1,0,0.2,0.1s0.1,0.1,0.1,0.2c0,0.1,0,0.1-0.1,0.2c-0.1,0.1-0.2,0.1-0.3,0.1
		c-0.2,0-0.5,0-0.8-0.1c-0.3,0-0.6-0.1-0.8-0.1c-0.3,0-0.5,0-0.8,0.1c-0.2,0-0.4,0.1-0.6,0.1c-0.2,0-0.3-0.1-0.3-0.3
		c0-0.1,0-0.1,0.1-0.2c0,0,0.1-0.1,0.1-0.1c0.1,0,0.1,0,0.2,0c0.1,0,0.2,0,0.3-0.1c0.2-0.1,0.3-0.2,0.3-0.3c0-0.1,0-0.2,0-0.4v-4.9
		c0-0.2,0-0.4-0.1-0.5c-0.1-0.1-0.2-0.1-0.2-0.2s-0.2,0-0.2-0.1s-0.1-0.1-0.1-0.2c0-0.1,0.1-0.2,0.2-0.3s0.3-0.2,0.6-0.4
		c0.3-0.3,0.6-0.5,0.7-0.7s0.3-0.3,0.4-0.3c0.1,0,0.2,0.1,0.2,0.4V12.2z"/>
	<path class="st2" d="M287.1,13.8c0.2-0.6,0.4-1,0.7-1.4c0.3-0.4,0.7-0.7,1.2-0.9c0.4-0.2,1-0.3,1.5-0.3c0.5,0,1,0.1,1.5,0.3
		c0.4,0.2,0.8,0.5,1.1,0.9s0.5,0.9,0.7,1.4c0.2,0.6,0.3,1.2,0.3,1.9c0,0.7-0.1,1.3-0.3,1.8c-0.2,0.6-0.4,1-0.7,1.4
		c-0.3,0.4-0.7,0.7-1.2,0.9s-1,0.3-1.6,0.3c-0.5,0-1-0.1-1.4-0.3c-0.4-0.2-0.8-0.5-1.1-0.9s-0.5-0.9-0.7-1.4
		c-0.2-0.6-0.3-1.2-0.3-1.8C286.9,15,286.9,14.4,287.1,13.8z M288.9,12.7c-0.4,0.6-0.5,1.6-0.5,2.8c0,1.3,0.2,2.4,0.6,3.1
		c0.4,0.8,0.9,1.1,1.5,1.1c0.6,0,1.1-0.3,1.5-1s0.5-1.6,0.5-2.7c0-1.3-0.2-2.4-0.6-3.1c-0.4-0.8-0.9-1.1-1.5-1.1
		C289.8,11.7,289.3,12,288.9,12.7z"/>
	<path class="st2" d="M297.5,18.4c0,0.4,0.1,0.7,0.3,0.8c0.1,0.1,0.2,0.1,0.3,0.1c0.1,0,0.2,0,0.3,0c0.1,0,0.1,0,0.2,0.1
		s0.1,0.1,0.1,0.2c0,0.2-0.1,0.3-0.3,0.3c-0.2,0-0.4,0-0.7-0.1s-0.5-0.1-0.8-0.1c-0.3,0-0.6,0-0.8,0.1c-0.2,0-0.4,0.1-0.6,0.1
		c-0.2,0-0.3-0.1-0.3-0.3c0-0.2,0.1-0.3,0.2-0.3c0.1,0,0.3,0,0.5-0.1c0.2-0.1,0.3-0.1,0.3-0.3c0-0.1,0.1-0.3,0.1-0.4V8.6
		c0-0.2,0-0.3-0.1-0.4c-0.1-0.1-0.2-0.1-0.3-0.2c-0.1,0-0.2-0.1-0.3-0.1s-0.1-0.1-0.1-0.2c0-0.1,0.1-0.2,0.2-0.3
		c0.2,0,0.3-0.1,0.5-0.2c0.4-0.2,0.7-0.3,0.9-0.5s0.3-0.2,0.4-0.2c0.1,0,0.1,0,0.2,0.1c0,0.1,0,0.2,0,0.3c0,0.2,0,0.4,0,0.6
		c0,0.2,0,0.5,0,0.7V18.4z"/>
	<path class="st2" d="M301.7,18.4c0,0.4,0.1,0.7,0.3,0.8c0.1,0.1,0.2,0.1,0.3,0.1s0.2,0,0.3,0c0.1,0,0.1,0,0.2,0.1
		c0,0,0.1,0.1,0.1,0.2c0,0.2-0.1,0.3-0.3,0.3c-0.2,0-0.4,0-0.7-0.1c-0.3,0-0.5-0.1-0.8-0.1c-0.3,0-0.6,0-0.8,0.1
		c-0.2,0-0.4,0.1-0.6,0.1c-0.2,0-0.3-0.1-0.3-0.3c0-0.2,0.1-0.3,0.2-0.3c0.1,0,0.3,0,0.5-0.1c0.2-0.1,0.3-0.1,0.3-0.3
		c0-0.1,0.1-0.3,0.1-0.4V8.6c0-0.2,0-0.3-0.1-0.4c-0.1-0.1-0.2-0.1-0.3-0.2c-0.1,0-0.2-0.1-0.3-0.1c-0.1,0-0.1-0.1-0.1-0.2
		c0-0.1,0.1-0.2,0.2-0.3c0.2,0,0.3-0.1,0.5-0.2c0.4-0.2,0.7-0.3,0.9-0.5c0.2-0.1,0.3-0.2,0.4-0.2c0.1,0,0.1,0,0.2,0.1s0,0.2,0,0.3
		c0,0.2,0,0.4,0,0.6c0,0.2,0,0.5,0,0.7V18.4z"/>
	<path class="st2" d="M304,13.8c0.2-0.6,0.4-1,0.7-1.4c0.3-0.4,0.7-0.7,1.2-0.9s1-0.3,1.5-0.3c0.5,0,1,0.1,1.5,0.3
		c0.4,0.2,0.8,0.5,1.1,0.9c0.3,0.4,0.5,0.9,0.7,1.4c0.2,0.6,0.3,1.2,0.3,1.9c0,0.7-0.1,1.3-0.3,1.8c-0.2,0.6-0.4,1-0.7,1.4
		s-0.7,0.7-1.2,0.9s-1,0.3-1.6,0.3c-0.5,0-1-0.1-1.4-0.3c-0.4-0.2-0.8-0.5-1.1-0.9c-0.3-0.4-0.5-0.9-0.7-1.4
		c-0.2-0.6-0.2-1.2-0.2-1.8C303.7,15,303.8,14.4,304,13.8z M305.8,12.7c-0.4,0.6-0.5,1.6-0.5,2.8c0,1.3,0.2,2.4,0.6,3.1
		c0.4,0.8,0.9,1.1,1.5,1.1c0.6,0,1.1-0.3,1.5-1c0.4-0.7,0.5-1.6,0.5-2.7c0-1.3-0.2-2.4-0.6-3.1c-0.4-0.8-0.9-1.1-1.5-1.1
		C306.7,11.7,306.2,12,305.8,12.7z"/>
	<path class="st2" d="M321.2,17.7c0,0.4,0,0.7,0.1,0.9s0.2,0.3,0.4,0.3c0.1,0,0.2-0.1,0.3-0.2c0.1-0.1,0.2-0.2,0.3-0.2
		c0.1,0,0.2,0.1,0.2,0.3c0,0.1-0.1,0.2-0.2,0.4c-0.1,0.1-0.2,0.3-0.4,0.4c-0.1,0.1-0.3,0.3-0.5,0.4s-0.3,0.2-0.5,0.2
		c-0.3,0-0.5-0.1-0.7-0.3c-0.2-0.2-0.4-0.5-0.5-1h-0.1l-0.4,0.3c-0.3,0.3-0.6,0.5-0.9,0.7s-0.6,0.3-0.9,0.3c-0.4,0-0.7-0.1-0.9-0.4
		c-0.2-0.3-0.3-0.6-0.3-1.1c0-0.4,0.1-0.8,0.2-1.1c0.1-0.3,0.3-0.6,0.6-0.9c0.2-0.3,0.5-0.5,0.9-0.7s0.7-0.5,1.1-0.7l0.4-0.2
		c0.1-0.1,0.1-0.1,0.2-0.2c0-0.1,0-0.2,0-0.3v-1.3c0-0.5,0-0.9-0.1-1.2c-0.1-0.2-0.3-0.4-0.6-0.4s-0.5,0.1-0.7,0.3s-0.3,0.5-0.5,0.9
		c-0.1,0.3-0.3,0.6-0.4,0.8s-0.4,0.3-0.8,0.3c-0.1,0-0.2,0-0.2-0.1c-0.1-0.1-0.1-0.1-0.1-0.2c0-0.3,0.1-0.6,0.2-0.9
		c0.2-0.3,0.4-0.6,0.7-0.9s0.6-0.5,1-0.6c0.4-0.2,0.8-0.3,1.3-0.3c0.4,0,0.7,0,0.9,0.1c0.2,0.1,0.4,0.2,0.5,0.4
		c0.1,0.2,0.2,0.4,0.2,0.7c0,0.3,0.1,0.6,0.1,0.9V17.7z M319.7,15.6c0,0-0.1,0-0.2,0.1l-0.6,0.3c-0.7,0.4-1,1-1,1.9
		c0,0.4,0.1,0.6,0.2,0.8s0.3,0.3,0.5,0.3c0.1,0,0.3,0,0.4-0.1c0.1-0.1,0.3-0.2,0.4-0.3s0.2-0.3,0.3-0.5c0.1-0.2,0.1-0.4,0.1-0.7
		v-1.5C319.8,15.7,319.7,15.6,319.7,15.6z"/>
	<path class="st2" d="M325.3,16.9c0,0.7,0.1,1.2,0.4,1.6c0.3,0.4,0.6,0.6,1.1,0.6s0.8-0.2,1.1-0.5c0.3-0.3,0.4-0.8,0.4-1.5v-4.1
		c0-0.2,0-0.4-0.1-0.5c0-0.1-0.1-0.2-0.2-0.3c-0.1-0.1-0.2-0.1-0.3-0.1c-0.1,0-0.2,0-0.2-0.1s-0.1,0-0.2-0.1c0,0-0.1-0.1-0.1-0.2
		c0-0.2,0.1-0.3,0.3-0.3c0.1,0,0.3,0,0.5,0.1c0.2,0,0.5,0.1,0.8,0.1c0.2,0,0.3,0,0.4,0c0.1,0,0.2,0,0.2,0c0.1,0,0.2,0,0.2,0.1
		c0,0.1,0,0.1,0,0.2v6.4c0,0.3,0,0.5,0.1,0.7c0.1,0.1,0.2,0.2,0.3,0.2s0.2,0,0.3,0c0.1,0,0.1,0.1,0.1,0.2s-0.1,0.2-0.2,0.3
		c-0.1,0.1-0.3,0.1-0.5,0.2c-0.7,0.3-1.2,0.4-1.3,0.4c-0.1,0-0.2-0.1-0.2-0.4V19c0-0.2,0-0.3-0.1-0.3c0,0-0.1,0-0.2,0.1l-0.2,0.2
		c-0.2,0.3-0.5,0.6-0.8,0.7c-0.3,0.2-0.7,0.3-1,0.3c-0.7,0-1.2-0.3-1.7-0.8c-0.4-0.5-0.6-1.2-0.6-2.1v-4.4c0-0.3-0.1-0.5-0.2-0.6
		c-0.1-0.1-0.2-0.2-0.3-0.2c-0.1,0-0.2-0.1-0.3-0.1c-0.1,0-0.1-0.1-0.1-0.2c0-0.2,0.1-0.3,0.3-0.3c0.1,0,0.3,0,0.5,0.1
		c0.2,0,0.4,0.1,0.7,0.1c0.1,0,0.3,0,0.4,0s0.2,0,0.2,0c0.1,0,0.2,0,0.2,0.1c0,0.1,0,0.1,0,0.2V16.9z"/>
	<path class="st2" d="M333.9,11.2c0,0.2,0.1,0.2,0.2,0.2h1.3c0.1,0,0.2,0,0.2,0s0,0.1,0,0.2v0.4c0,0.1,0,0.2,0,0.2s-0.1,0.1-0.2,0.1
		h-1.3c-0.1,0-0.2,0.1-0.2,0.2v4.8c0,0.6,0,1,0.1,1.3s0.3,0.4,0.5,0.4c0.1,0,0.2,0,0.3-0.1c0.1-0.1,0.2-0.1,0.3-0.2
		c0.1-0.1,0.2-0.1,0.2-0.2s0.1-0.1,0.2-0.1c0.1,0,0.2,0.1,0.2,0.3c0,0.1-0.1,0.2-0.2,0.4s-0.2,0.3-0.4,0.5c-0.2,0.2-0.4,0.3-0.6,0.4
		c-0.2,0.1-0.5,0.2-0.8,0.2c-0.9,0-1.4-0.8-1.4-2.4V17l0.1-4.1c0-0.2,0-0.3,0-0.4s-0.1-0.2-0.2-0.2h-0.3c-0.2,0-0.3-0.1-0.3-0.2
		c0-0.1,0-0.1,0.1-0.2s0.1-0.1,0.2-0.2s0.2-0.2,0.4-0.3c0.1-0.1,0.3-0.3,0.4-0.5c0.3-0.4,0.5-0.7,0.6-0.9c0.1-0.3,0.2-0.4,0.3-0.4
		c0.1,0,0.1,0,0.1,0.1c0,0.1,0,0.2,0,0.3V11.2z"/>
	<path class="st2" d="M336.9,13.8c0.2-0.6,0.4-1,0.7-1.4c0.3-0.4,0.7-0.7,1.2-0.9c0.4-0.2,1-0.3,1.5-0.3c0.5,0,1,0.1,1.5,0.3
		c0.4,0.2,0.8,0.5,1.1,0.9s0.5,0.9,0.7,1.4c0.2,0.6,0.3,1.2,0.3,1.9c0,0.7-0.1,1.3-0.3,1.8c-0.2,0.6-0.4,1-0.7,1.4
		c-0.3,0.4-0.7,0.7-1.2,0.9s-1,0.3-1.6,0.3c-0.5,0-1-0.1-1.4-0.3c-0.4-0.2-0.8-0.5-1.1-0.9s-0.5-0.9-0.7-1.4
		c-0.2-0.6-0.3-1.2-0.3-1.8C336.6,15,336.7,14.4,336.9,13.8z M338.7,12.7c-0.4,0.6-0.5,1.6-0.5,2.8c0,1.3,0.2,2.4,0.6,3.1
		c0.4,0.8,0.9,1.1,1.5,1.1c0.6,0,1.1-0.3,1.5-1s0.5-1.6,0.5-2.7c0-1.3-0.2-2.4-0.6-3.1c-0.4-0.8-0.9-1.1-1.5-1.1
		C339.6,11.7,339,12,338.7,12.7z"/>
	<path class="st2" d="M347.2,12.2c0,0.1,0,0.2,0.1,0.2c0,0,0.1,0,0.2-0.1l0.3-0.4c0.4-0.5,0.8-0.7,1.2-0.7c0.3,0,0.6,0.1,0.8,0.4
		s0.3,0.6,0.3,0.9c0,0.3-0.1,0.5-0.2,0.7c-0.2,0.2-0.3,0.3-0.6,0.3c-0.2,0-0.3,0-0.4-0.1s-0.2-0.2-0.3-0.3c-0.1-0.1-0.2-0.2-0.3-0.3
		c-0.1-0.1-0.2-0.1-0.3-0.1c-0.4,0-0.6,0.6-0.6,1.8v4.1c0,0.2,0,0.4,0.1,0.5c0,0.1,0.1,0.2,0.3,0.3c0.1,0.1,0.3,0.1,0.4,0.1
		s0.2,0,0.3,0.1c0.1,0,0.1,0,0.2,0.1c0,0,0.1,0.1,0.1,0.2c0,0.1,0,0.1-0.1,0.2c-0.1,0.1-0.2,0.1-0.3,0.1c-0.2,0-0.5,0-0.8-0.1
		c-0.3,0-0.6-0.1-0.8-0.1c-0.3,0-0.5,0-0.8,0.1s-0.4,0.1-0.6,0.1c-0.2,0-0.3-0.1-0.3-0.3c0-0.1,0-0.1,0.1-0.2c0,0,0.1-0.1,0.1-0.1
		s0.1,0,0.2,0c0.1,0,0.2,0,0.3-0.1c0.2-0.1,0.3-0.2,0.3-0.3c0-0.1,0-0.2,0-0.4v-4.9c0-0.2,0-0.4-0.1-0.5c-0.1-0.1-0.2-0.1-0.2-0.2
		c-0.1,0-0.2,0-0.2-0.1c-0.1,0-0.1-0.1-0.1-0.2c0-0.1,0.1-0.2,0.2-0.3c0.1-0.1,0.3-0.2,0.6-0.4c0.3-0.3,0.6-0.5,0.7-0.7
		c0.2-0.2,0.3-0.3,0.4-0.3c0.1,0,0.2,0.1,0.2,0.4V12.2z"/>
	<path class="st2" d="M352.9,18.4c0,0.2,0,0.4,0.1,0.5c0,0.1,0.1,0.2,0.2,0.3c0.1,0.1,0.2,0.1,0.3,0.1c0.1,0,0.2,0,0.2,0
		c0.1,0,0.1,0,0.2,0.1s0.1,0.1,0.1,0.2c0,0.2-0.1,0.3-0.3,0.3c-0.2,0-0.4,0-0.6-0.1c-0.2,0-0.5-0.1-0.8-0.1c-0.3,0-0.5,0-0.8,0.1
		c-0.2,0-0.4,0.1-0.5,0.1c-0.2,0-0.3-0.1-0.3-0.3c0-0.1,0-0.2,0-0.2s0.1-0.1,0.1-0.1c0.1,0,0.1,0,0.2,0s0.1,0,0.2-0.1
		c0.1-0.1,0.2-0.2,0.2-0.3c0-0.1,0-0.3,0-0.5v-4.5c0-0.3,0-0.6-0.1-0.7c-0.1-0.1-0.2-0.2-0.2-0.2c-0.1,0-0.2-0.1-0.2-0.1
		c-0.1,0-0.1-0.1-0.1-0.2c0-0.1,0.1-0.3,0.2-0.3c0.2-0.1,0.4-0.2,0.7-0.4c0.2-0.1,0.3-0.2,0.4-0.3c0.1-0.1,0.2-0.2,0.3-0.3
		c0.1-0.1,0.1-0.2,0.2-0.2c0.1-0.1,0.1-0.1,0.1-0.1c0.1,0,0.2,0.1,0.2,0.4V18.4z M352.8,8.2c0.1,0.2,0.2,0.5,0.2,0.7
		s-0.1,0.5-0.2,0.7c-0.2,0.2-0.3,0.3-0.5,0.3c-0.2,0-0.4-0.1-0.5-0.3c-0.2-0.2-0.2-0.5-0.2-0.7s0.1-0.5,0.2-0.7
		c0.1-0.2,0.3-0.3,0.5-0.3C352.5,7.8,352.7,8,352.8,8.2z"/>
	<path class="st2" d="M358.6,11.5c0.4,0,0.7,0,1,0c0.3,0,0.5,0,0.6,0c0.1,0,0.1,0,0.2,0.1c0.1,0.1,0.1,0.1,0.1,0.2
		c0,0.1-0.1,0.2-0.2,0.5l-3.8,6.8c0,0.1-0.1,0.1-0.1,0.2c0,0,0,0.1,0,0.1c0,0,0,0.1,0.1,0.1h0.8c1,0,1.7-0.2,2-0.6
		c0.1-0.1,0.2-0.2,0.3-0.4s0.1-0.3,0.2-0.4c0-0.1,0.1-0.3,0.1-0.4c0-0.1,0.1-0.1,0.2-0.1c0.1,0,0.2,0.1,0.2,0.3s0,0.4,0,0.7
		c0,0.3,0,0.5,0,0.8c0,0.1,0,0.1,0,0.2c0,0.1,0,0.1,0,0.2c0,0.1,0,0.2-0.1,0.2c0,0.1-0.1,0.1-0.3,0.1c-0.1,0-0.3,0-0.5,0
		s-0.4,0-0.6,0h-3.1c-0.4,0-0.6,0-0.8,0c-0.2,0-0.3,0-0.3,0c-0.2,0-0.3-0.1-0.3-0.2c0-0.1,0.1-0.3,0.2-0.5l3.9-6.9
		c0-0.1,0-0.1,0-0.1c0-0.1,0-0.2-0.1-0.2h-0.9c-0.5,0-0.8,0-1.1,0.1c-0.3,0-0.6,0.1-0.8,0.3c-0.1,0.1-0.2,0.2-0.2,0.3
		s-0.1,0.2-0.2,0.3c-0.1,0.1-0.1,0.2-0.1,0.2c0,0.1-0.1,0.1-0.2,0.1c-0.1,0-0.2-0.1-0.2-0.3c0-0.1,0-0.2,0.1-0.4s0.1-0.5,0.3-0.8
		c0.1-0.4,0.2-0.6,0.3-0.8c0.1-0.2,0.1-0.3,0.3-0.3c0.1,0,0.1,0,0.1,0.1c0,0,0,0.1,0.1,0.2c0,0.1,0,0.1,0,0.2c0,0.1,0,0.1,0.1,0.2
		c0.1,0.2,0.3,0.2,0.7,0.2c0.1,0,0.2,0,0.3,0c0.1,0,0.2,0,0.3,0H358.6z"/>
	<path class="st2" d="M365.2,11.5c0.4,0,0.7,0,1,0c0.3,0,0.5,0,0.6,0c0.1,0,0.1,0,0.2,0.1c0.1,0.1,0.1,0.1,0.1,0.2
		c0,0.1-0.1,0.2-0.2,0.5l-3.8,6.8c0,0.1-0.1,0.1-0.1,0.2c0,0,0,0.1,0,0.1s0,0.1,0.1,0.1h0.8c1,0,1.7-0.2,2-0.6
		c0.1-0.1,0.2-0.2,0.3-0.4c0.1-0.2,0.1-0.3,0.2-0.4c0-0.1,0.1-0.3,0.1-0.4c0-0.1,0.1-0.1,0.2-0.1c0.1,0,0.2,0.1,0.2,0.3s0,0.4,0,0.7
		s0,0.5,0,0.8c0,0.1,0,0.1,0,0.2c0,0.1,0,0.1,0,0.2c0,0.1,0,0.2-0.1,0.2c0,0.1-0.1,0.1-0.3,0.1c-0.1,0-0.3,0-0.5,0
		c-0.2,0-0.4,0-0.6,0h-3.1c-0.4,0-0.6,0-0.8,0c-0.2,0-0.3,0-0.3,0c-0.2,0-0.3-0.1-0.3-0.2c0-0.1,0.1-0.3,0.2-0.5l3.9-6.9
		c0-0.1,0-0.1,0-0.1c0-0.1,0-0.2-0.1-0.2h-0.9c-0.4,0-0.8,0-1.1,0.1s-0.6,0.1-0.8,0.3c-0.1,0.1-0.2,0.2-0.2,0.3
		c-0.1,0.1-0.1,0.2-0.2,0.3c-0.1,0.1-0.1,0.2-0.1,0.2s-0.1,0.1-0.2,0.1c-0.1,0-0.2-0.1-0.2-0.3c0-0.1,0-0.2,0.1-0.4
		c0-0.2,0.1-0.5,0.3-0.8c0.1-0.4,0.2-0.6,0.3-0.8c0.1-0.2,0.1-0.3,0.2-0.3c0.1,0,0.1,0,0.1,0.1s0,0.1,0.1,0.2s0,0.1,0,0.2
		c0,0.1,0,0.1,0.1,0.2c0.1,0.2,0.3,0.2,0.7,0.2c0.1,0,0.2,0,0.3,0c0.1,0,0.2,0,0.3,0H365.2z"/>
	<path class="st2" d="M372.9,17.7c0,0.4,0,0.7,0.1,0.9s0.2,0.3,0.4,0.3c0.1,0,0.2-0.1,0.3-0.2c0.1-0.1,0.2-0.2,0.3-0.2
		c0.1,0,0.2,0.1,0.2,0.3c0,0.1-0.1,0.2-0.2,0.4c-0.1,0.1-0.2,0.3-0.4,0.4c-0.1,0.1-0.3,0.3-0.5,0.4s-0.3,0.2-0.5,0.2
		c-0.3,0-0.6-0.1-0.7-0.3c-0.2-0.2-0.4-0.5-0.5-1h-0.1l-0.4,0.3c-0.3,0.3-0.6,0.5-0.8,0.7c-0.3,0.2-0.6,0.3-0.9,0.3
		c-0.4,0-0.7-0.1-0.9-0.4c-0.2-0.3-0.3-0.6-0.3-1.1c0-0.4,0.1-0.8,0.2-1.1c0.1-0.3,0.3-0.6,0.6-0.9c0.2-0.3,0.5-0.5,0.9-0.7
		s0.7-0.5,1.1-0.7l0.4-0.2c0.1-0.1,0.1-0.1,0.2-0.2c0-0.1,0-0.2,0-0.3v-1.3c0-0.5,0-0.9-0.1-1.2c-0.1-0.2-0.3-0.4-0.6-0.4
		s-0.5,0.1-0.7,0.3s-0.3,0.5-0.5,0.9c-0.1,0.3-0.3,0.6-0.4,0.8s-0.4,0.3-0.8,0.3c-0.1,0-0.2,0-0.2-0.1c-0.1-0.1-0.1-0.1-0.1-0.2
		c0-0.3,0.1-0.6,0.2-0.9c0.2-0.3,0.4-0.6,0.7-0.9c0.3-0.3,0.6-0.5,1-0.6c0.4-0.2,0.8-0.3,1.3-0.3c0.4,0,0.7,0,0.9,0.1
		c0.2,0.1,0.4,0.2,0.5,0.4c0.1,0.2,0.2,0.4,0.2,0.7c0,0.3,0.1,0.6,0.1,0.9V17.7z M371.4,15.6c0,0-0.1,0-0.2,0.1l-0.6,0.3
		c-0.7,0.4-1,1-1,1.9c0,0.4,0.1,0.6,0.2,0.8c0.1,0.2,0.3,0.3,0.5,0.3c0.1,0,0.3,0,0.4-0.1c0.1-0.1,0.3-0.2,0.4-0.3s0.2-0.3,0.3-0.5
		c0.1-0.2,0.1-0.4,0.1-0.7v-1.5C371.5,15.7,371.5,15.6,371.4,15.6z"/>
	<path class="st2" d="M377,11.2c0,0.2,0.1,0.2,0.2,0.2h1.3c0.1,0,0.2,0,0.2,0s0,0.1,0,0.2v0.4c0,0.1,0,0.2,0,0.2s-0.1,0.1-0.2,0.1
		h-1.3c-0.1,0-0.2,0.1-0.2,0.2v4.8c0,0.6,0,1,0.1,1.3s0.3,0.4,0.5,0.4c0.1,0,0.2,0,0.3-0.1c0.1-0.1,0.2-0.1,0.3-0.2
		c0.1-0.1,0.2-0.1,0.2-0.2c0.1-0.1,0.1-0.1,0.2-0.1c0.1,0,0.2,0.1,0.2,0.3c0,0.1-0.1,0.2-0.2,0.4s-0.2,0.3-0.4,0.5s-0.4,0.3-0.6,0.4
		c-0.2,0.1-0.5,0.2-0.8,0.2c-0.9,0-1.4-0.8-1.4-2.4V17l0.1-4.1c0-0.2,0-0.3,0-0.4s-0.1-0.2-0.2-0.2h-0.3c-0.2,0-0.3-0.1-0.3-0.2
		c0-0.1,0-0.1,0.1-0.2c0.1-0.1,0.1-0.1,0.2-0.2s0.2-0.2,0.4-0.3c0.1-0.1,0.3-0.3,0.4-0.5c0.3-0.4,0.5-0.7,0.6-0.9
		c0.1-0.3,0.2-0.4,0.3-0.4c0.1,0,0.1,0,0.1,0.1c0,0.1,0,0.2,0,0.3V11.2z"/>
	<path class="st2" d="M380,13.8c0.2-0.6,0.4-1,0.7-1.4c0.3-0.4,0.7-0.7,1.2-0.9c0.4-0.2,1-0.3,1.5-0.3c0.5,0,1,0.1,1.5,0.3
		c0.4,0.2,0.8,0.5,1.1,0.9s0.5,0.9,0.7,1.4c0.2,0.6,0.3,1.2,0.3,1.9c0,0.7-0.1,1.3-0.3,1.8c-0.2,0.6-0.4,1-0.7,1.4
		c-0.3,0.4-0.7,0.7-1.2,0.9s-1,0.3-1.6,0.3c-0.5,0-1-0.1-1.4-0.3c-0.4-0.2-0.8-0.5-1.1-0.9s-0.5-0.9-0.7-1.4
		c-0.2-0.6-0.3-1.2-0.3-1.8C379.8,15,379.9,14.4,380,13.8z M381.9,12.7c-0.4,0.6-0.5,1.6-0.5,2.8c0,1.3,0.2,2.4,0.6,3.1
		c0.4,0.8,0.9,1.1,1.5,1.1c0.6,0,1.1-0.3,1.5-1s0.5-1.6,0.5-2.7c0-1.3-0.2-2.4-0.6-3.1c-0.4-0.8-0.9-1.1-1.5-1.1
		C382.7,11.7,382.2,12,381.9,12.7z"/>
</g>
<g class="st4">
	<path class="st2" d="M168,41.1c0,0.5,0.1,0.8,0.3,0.8c0.1,0,0.2-0.1,0.3-0.2c0.1-0.1,0.2-0.2,0.2-0.2c0,0,0.1,0,0.1,0.1
		c0,0.1,0.1,0.1,0.1,0.2c0,0.2,0,0.4-0.1,0.4c-0.1,0.1-0.2,0.1-0.3,0.2c-0.4,0.2-0.8,0.3-1.1,0.5c-0.3,0.2-0.4,0.2-0.5,0.2
		c-0.1,0-0.1,0-0.2-0.1c0-0.1-0.1-0.2-0.1-0.3s0-0.2-0.1-0.3c0-0.1-0.1-0.1-0.1-0.1c0,0-0.1,0-0.2,0.1c-0.1,0.1-0.2,0.2-0.4,0.3
		c-0.2,0.1-0.4,0.2-0.6,0.3c-0.2,0.1-0.5,0.1-0.8,0.1c-0.5,0-0.9-0.1-1.3-0.3s-0.8-0.5-1.1-0.9s-0.6-0.8-0.7-1.4s-0.3-1.1-0.3-1.8
		c0-0.7,0.1-1.3,0.3-1.9c0.2-0.6,0.5-1.1,0.8-1.5c0.3-0.4,0.7-0.7,1.2-1c0.4-0.2,0.9-0.3,1.4-0.3c0.2,0,0.5,0,0.7,0.1
		c0.2,0,0.4,0.1,0.5,0.1l0.2,0.1h0c0.1,0,0.1-0.1,0.1-0.3v-2.5c0-0.2,0-0.3-0.1-0.4c-0.1-0.1-0.2-0.1-0.3-0.2
		c-0.1,0-0.2-0.1-0.3-0.1s-0.1-0.1-0.1-0.2c0-0.1,0.1-0.2,0.2-0.3c0.2,0,0.4-0.1,0.6-0.2c0.4-0.2,0.7-0.3,0.9-0.5s0.3-0.2,0.4-0.2
		c0.1,0,0.2,0,0.2,0.1c0,0.1,0,0.2,0,0.3c0,0.2,0,0.4,0,0.6s0,0.4,0,0.7V41.1z M166.5,36.4c0-0.3-0.1-0.6-0.2-0.9s-0.2-0.4-0.4-0.6
		c-0.2-0.1-0.4-0.2-0.8-0.2c-0.3,0-0.6,0.1-0.9,0.3c-0.3,0.2-0.5,0.5-0.7,0.8c-0.2,0.3-0.4,0.8-0.5,1.3s-0.2,1.1-0.2,1.7
		c0,1.1,0.2,2,0.7,2.6c0.5,0.6,1.1,0.9,1.9,0.9c0.3,0,0.5,0,0.6-0.1s0.3-0.2,0.3-0.3c0.1-0.1,0.1-0.3,0.1-0.5c0-0.2,0-0.4,0-0.7
		v-3.2C166.5,37.1,166.5,36.7,166.5,36.4z"/>
	<path class="st2" d="M175.3,40.7c0,0.4,0,0.7,0.1,0.9s0.2,0.3,0.4,0.3c0.1,0,0.3-0.1,0.4-0.2c0.1-0.1,0.2-0.2,0.3-0.2
		c0.1,0,0.2,0.1,0.2,0.3c0,0.1-0.1,0.2-0.2,0.4c-0.1,0.1-0.2,0.3-0.4,0.4c-0.2,0.1-0.3,0.3-0.5,0.4c-0.2,0.1-0.3,0.2-0.5,0.2
		c-0.3,0-0.6-0.1-0.8-0.3s-0.4-0.5-0.5-1h-0.1l-0.4,0.3c-0.3,0.3-0.6,0.5-0.9,0.7s-0.6,0.3-0.9,0.3c-0.4,0-0.7-0.1-0.9-0.4
		c-0.2-0.3-0.4-0.6-0.4-1.1c0-0.4,0.1-0.8,0.2-1.1c0.1-0.3,0.3-0.6,0.6-0.9c0.3-0.3,0.6-0.5,0.9-0.7c0.4-0.2,0.8-0.5,1.2-0.7
		l0.5-0.2c0.1-0.1,0.2-0.1,0.2-0.2c0-0.1,0-0.2,0-0.3v-1.3c0-0.5,0-0.9-0.1-1.2c-0.1-0.2-0.3-0.4-0.6-0.4s-0.6,0.1-0.8,0.3
		c-0.2,0.2-0.4,0.5-0.5,0.9c-0.1,0.3-0.3,0.6-0.4,0.8c-0.2,0.2-0.4,0.3-0.8,0.3c-0.1,0-0.2,0-0.2-0.1c-0.1-0.1-0.1-0.1-0.1-0.2
		c0-0.3,0.1-0.6,0.2-0.9c0.2-0.3,0.4-0.6,0.7-0.9c0.3-0.3,0.7-0.5,1.1-0.6c0.4-0.2,0.9-0.3,1.3-0.3c0.4,0,0.7,0,0.9,0.1
		c0.2,0.1,0.4,0.2,0.5,0.4c0.1,0.2,0.2,0.4,0.2,0.7c0,0.3,0.1,0.6,0.1,0.9V40.7z M173.7,38.6c0,0-0.1,0-0.2,0.1l-0.6,0.3
		c-0.7,0.4-1.1,1-1.1,1.9c0,0.4,0.1,0.6,0.2,0.8c0.1,0.2,0.3,0.3,0.5,0.3c0.1,0,0.3,0,0.4-0.1c0.1-0.1,0.3-0.2,0.4-0.3
		s0.2-0.3,0.3-0.5c0.1-0.2,0.1-0.4,0.1-0.7v-1.5C173.8,38.7,173.7,38.6,173.7,38.6z"/>
	<path class="st2" d="M179.7,41.4c0,0.4,0.1,0.7,0.3,0.8c0.1,0.1,0.2,0.1,0.3,0.1c0.1,0,0.2,0,0.3,0c0.1,0,0.1,0,0.2,0.1
		c0,0,0.1,0.1,0.1,0.2c0,0.2-0.1,0.3-0.4,0.3c-0.2,0-0.4,0-0.7-0.1s-0.5-0.1-0.9-0.1c-0.3,0-0.6,0-0.8,0.1s-0.5,0.1-0.6,0.1
		c-0.2,0-0.3-0.1-0.3-0.3c0-0.2,0.1-0.3,0.2-0.3c0.1,0,0.3,0,0.5-0.1c0.2-0.1,0.3-0.1,0.3-0.3c0-0.1,0.1-0.3,0.1-0.4v-9.9
		c0-0.2,0-0.3-0.1-0.4c-0.1-0.1-0.2-0.1-0.3-0.2c-0.1,0-0.2-0.1-0.3-0.1s-0.1-0.1-0.1-0.2c0-0.1,0.1-0.2,0.2-0.3
		c0.2,0,0.4-0.1,0.6-0.2c0.4-0.2,0.7-0.3,0.9-0.5c0.2-0.1,0.3-0.2,0.4-0.2c0.1,0,0.2,0,0.2,0.1c0,0.1,0,0.2,0,0.3c0,0.2,0,0.4,0,0.6
		c0,0.2,0,0.5,0,0.7V41.4z"/>
	<path class="st2" d="M189.1,31c0.1,0,0.1,0,0.2,0c0,0,0.1,0.1,0.1,0.1l2.4,7.7c0,0.2,0.1,0.2,0.1,0.2c0,0,0.1-0.1,0.1-0.2l2.4-7.5
		c0-0.1,0.1-0.2,0.1-0.2c0-0.1,0.1-0.1,0.2-0.1h2.4c0.2,0,0.3,0.1,0.3,0.2c0,0.1,0,0.2-0.1,0.2c-0.1,0-0.1,0.1-0.2,0.1
		c-0.1,0-0.2,0-0.3,0c-0.1,0-0.2,0-0.3,0.1c-0.1,0.1-0.2,0.1-0.2,0.2c0,0.1,0,0.3,0,0.5v0.5l0.2,8.3c0,0.3,0,0.6,0.1,0.7
		c0,0.2,0.1,0.3,0.3,0.4c0.1,0.1,0.2,0.1,0.3,0.1s0.2,0,0.3,0c0.1,0,0.1,0,0.2,0.1c0,0,0.1,0.1,0.1,0.2c0,0.1,0,0.1-0.1,0.2
		c-0.1,0.1-0.2,0.1-0.3,0.1c-0.2,0-0.4,0-0.7-0.1c-0.3,0-0.6-0.1-1-0.1c-0.4,0-0.8,0-1,0.1s-0.5,0.1-0.7,0.1c-0.2,0-0.4-0.1-0.4-0.3
		c0-0.2,0.1-0.3,0.3-0.3c0.2,0,0.4,0,0.5-0.1c0.1,0,0.2-0.1,0.3-0.2s0.1-0.2,0.1-0.4c0-0.2,0-0.3,0-0.6v-0.4l-0.1-7
		c0-0.1,0-0.2-0.1-0.2c0,0-0.1,0.1-0.1,0.2l-2.7,8.5c-0.1,0.2-0.2,0.3-0.3,0.3c-0.2,0-0.3-0.1-0.3-0.2l-2.7-8.6
		c-0.1-0.2-0.1-0.2-0.1-0.2c-0.1,0-0.1,0.1-0.1,0.4l-0.3,5.8c0,0.2,0,0.4,0,0.6c0,0.2,0,0.3,0,0.5c0,0.6,0,1,0.1,1.3
		c0.1,0.3,0.3,0.4,0.7,0.4c0,0,0.1,0,0.1,0c0,0,0.1,0,0.1,0c0.2,0,0.3,0.1,0.3,0.3c0,0.2-0.2,0.3-0.5,0.3c-0.1,0-0.3,0-0.5,0
		c-0.2,0-0.5,0-0.7,0c-0.2,0-0.5,0-0.6,0c-0.2,0-0.4,0-0.5,0c-0.3,0-0.4-0.1-0.4-0.3c0-0.2,0.1-0.3,0.3-0.3c0.1,0,0.1,0,0.2,0
		c0.1,0,0.1,0,0.1,0c0.2,0,0.3-0.1,0.4-0.2c0.1-0.1,0.2-0.3,0.2-0.5c0-0.2,0.1-0.6,0.1-0.9c0-0.4,0-0.9,0.1-1.4l0.3-6.5
		c0,0,0-0.1,0-0.1c0-0.1,0-0.1,0-0.2c0-0.3,0-0.5-0.1-0.6c0-0.1-0.2-0.2-0.3-0.3c-0.1,0-0.2-0.1-0.3-0.1c-0.1,0-0.2,0-0.3,0
		c-0.1,0-0.1,0-0.2-0.1c0,0-0.1-0.1-0.1-0.2c0-0.2,0.1-0.2,0.3-0.2H189.1z"/>
	<path class="st2" d="M201.1,41.4c0,0.2,0,0.4,0.1,0.5c0,0.1,0.1,0.2,0.2,0.3c0.1,0.1,0.2,0.1,0.3,0.1c0.1,0,0.2,0,0.2,0
		s0.1,0,0.2,0.1s0.1,0.1,0.1,0.2c0,0.2-0.1,0.3-0.3,0.3c-0.2,0-0.4,0-0.7-0.1c-0.3,0-0.5-0.1-0.8-0.1c-0.3,0-0.6,0-0.8,0.1
		c-0.2,0-0.4,0.1-0.5,0.1c-0.2,0-0.3-0.1-0.3-0.3c0-0.1,0-0.2,0-0.2c0,0,0.1-0.1,0.1-0.1c0.1,0,0.1,0,0.2,0c0.1,0,0.1,0,0.2-0.1
		c0.1-0.1,0.2-0.2,0.2-0.3c0-0.1,0-0.3,0-0.5v-4.5c0-0.3,0-0.6-0.1-0.7c-0.1-0.1-0.2-0.2-0.3-0.2c-0.1,0-0.2-0.1-0.3-0.1
		c-0.1,0-0.1-0.1-0.1-0.2c0-0.1,0.1-0.3,0.2-0.3c0.2-0.1,0.4-0.2,0.7-0.4c0.2-0.1,0.3-0.2,0.5-0.3c0.1-0.1,0.2-0.2,0.3-0.3
		c0.1-0.1,0.2-0.2,0.2-0.2c0.1-0.1,0.1-0.1,0.2-0.1c0.1,0,0.2,0.1,0.2,0.4V41.4z M201,31.2c0.2,0.2,0.2,0.5,0.2,0.7
		c0,0.3-0.1,0.5-0.2,0.7c-0.2,0.2-0.3,0.3-0.6,0.3s-0.4-0.1-0.6-0.3c-0.2-0.2-0.2-0.5-0.2-0.7c0-0.3,0.1-0.5,0.2-0.7
		c0.2-0.2,0.3-0.3,0.6-0.3S200.9,31,201,31.2z"/>
	<path class="st2" d="M205.5,35.4c0,0.1,0,0.1,0.1,0.1s0.1,0,0.1-0.1l0.2-0.2c0.3-0.4,0.6-0.7,1-0.8c0.3-0.2,0.7-0.3,1.1-0.3
		c0.4,0,0.8,0.1,1.1,0.3s0.7,0.5,0.9,0.9c0.3,0.4,0.5,0.8,0.6,1.3c0.2,0.5,0.2,1.1,0.2,1.8c0,0.7-0.1,1.4-0.3,1.9
		c-0.2,0.6-0.4,1.1-0.8,1.5s-0.7,0.8-1.2,1c-0.5,0.2-1,0.4-1.5,0.4c-0.6,0-1.1-0.1-1.6-0.4l-0.1,0.1l0,2.7c0,0.2,0,0.4,0.1,0.5
		c0,0.1,0.1,0.2,0.3,0.3c0.1,0.1,0.2,0.1,0.4,0.1c0.1,0,0.2,0,0.3,0s0.1,0,0.2,0.1s0.1,0.1,0.1,0.2c0,0.2-0.1,0.3-0.4,0.3
		c-0.2,0-0.5,0-0.8-0.1s-0.6-0.1-0.9-0.1s-0.6,0-0.8,0.1s-0.4,0.1-0.6,0.1c-0.2,0-0.3-0.1-0.3-0.3c0-0.2,0.1-0.3,0.2-0.3
		s0.3,0,0.5-0.1c0.2-0.1,0.3-0.2,0.3-0.3c0.1-0.1,0.1-0.3,0.1-0.6v-8.6c0-0.3,0-0.6-0.1-0.7c-0.1-0.1-0.2-0.2-0.3-0.2
		c-0.1,0-0.2-0.1-0.3-0.1c-0.1,0-0.1-0.1-0.1-0.2c0-0.2,0.1-0.3,0.3-0.3c0.2-0.1,0.4-0.2,0.7-0.4c0.4-0.3,0.6-0.5,0.8-0.7
		s0.3-0.3,0.4-0.3c0.1,0,0.2,0.1,0.2,0.4V35.4z M205.9,42.2c0.3,0.3,0.6,0.4,1.1,0.4c0.4,0,0.7-0.1,1-0.3c0.3-0.2,0.5-0.4,0.8-0.8
		c0.2-0.3,0.4-0.7,0.5-1.2s0.2-0.9,0.2-1.5c0-1.1-0.2-2-0.7-2.6c-0.5-0.6-1-0.9-1.7-0.9c-0.5,0-0.9,0.2-1.1,0.5
		c-0.2,0.3-0.3,0.8-0.3,1.4v3.6C205.6,41.5,205.7,42,205.9,42.2z"/>
	<path class="st2" d="M217.5,40.7c0,0.4,0,0.7,0.1,0.9s0.2,0.3,0.4,0.3c0.1,0,0.3-0.1,0.4-0.2c0.1-0.1,0.2-0.2,0.3-0.2
		c0.1,0,0.2,0.1,0.2,0.3c0,0.1-0.1,0.2-0.2,0.4c-0.1,0.1-0.2,0.3-0.4,0.4c-0.2,0.1-0.3,0.3-0.5,0.4s-0.3,0.2-0.5,0.2
		c-0.3,0-0.6-0.1-0.8-0.3c-0.2-0.2-0.4-0.5-0.5-1h-0.1l-0.4,0.3c-0.3,0.3-0.6,0.5-0.9,0.7s-0.6,0.3-0.9,0.3c-0.4,0-0.7-0.1-0.9-0.4
		c-0.2-0.3-0.4-0.6-0.4-1.1c0-0.4,0.1-0.8,0.2-1.1c0.1-0.3,0.3-0.6,0.6-0.9c0.3-0.3,0.6-0.5,0.9-0.7s0.8-0.5,1.2-0.7l0.5-0.2
		c0.1-0.1,0.2-0.1,0.2-0.2c0-0.1,0-0.2,0-0.3v-1.3c0-0.5,0-0.9-0.1-1.2c-0.1-0.2-0.3-0.4-0.6-0.4c-0.3,0-0.6,0.1-0.8,0.3
		c-0.2,0.2-0.4,0.5-0.5,0.9c-0.1,0.3-0.3,0.6-0.4,0.8s-0.4,0.3-0.8,0.3c-0.1,0-0.2,0-0.2-0.1c-0.1-0.1-0.1-0.1-0.1-0.2
		c0-0.3,0.1-0.6,0.2-0.9c0.2-0.3,0.4-0.6,0.7-0.9c0.3-0.3,0.7-0.5,1.1-0.6c0.4-0.2,0.9-0.3,1.3-0.3c0.4,0,0.7,0,0.9,0.1
		c0.2,0.1,0.4,0.2,0.5,0.4c0.1,0.2,0.2,0.4,0.2,0.7c0,0.3,0.1,0.6,0.1,0.9V40.7z M215.8,38.6c0,0-0.1,0-0.2,0.1l-0.6,0.3
		c-0.7,0.4-1.1,1-1.1,1.9c0,0.4,0.1,0.6,0.2,0.8s0.3,0.3,0.5,0.3c0.1,0,0.3,0,0.4-0.1c0.1-0.1,0.3-0.2,0.4-0.3
		c0.1-0.1,0.2-0.3,0.3-0.5c0.1-0.2,0.1-0.4,0.1-0.7v-1.5C215.9,38.7,215.9,38.6,215.8,38.6z"/>
	<path class="st2" d="M224.8,40.7c0,0.4,0,0.7,0.1,0.9s0.2,0.3,0.4,0.3c0.1,0,0.3-0.1,0.4-0.2c0.1-0.1,0.2-0.2,0.3-0.2
		c0.1,0,0.2,0.1,0.2,0.3c0,0.1-0.1,0.2-0.2,0.4c-0.1,0.1-0.2,0.3-0.4,0.4c-0.2,0.1-0.3,0.3-0.5,0.4c-0.2,0.1-0.3,0.2-0.5,0.2
		c-0.3,0-0.6-0.1-0.8-0.3s-0.4-0.5-0.5-1h-0.1l-0.4,0.3c-0.3,0.3-0.6,0.5-0.9,0.7c-0.3,0.2-0.6,0.3-0.9,0.3c-0.4,0-0.7-0.1-0.9-0.4
		c-0.2-0.3-0.4-0.6-0.4-1.1c0-0.4,0.1-0.8,0.2-1.1c0.1-0.3,0.3-0.6,0.6-0.9c0.3-0.3,0.6-0.5,0.9-0.7c0.4-0.2,0.8-0.5,1.2-0.7L223,38
		c0.1-0.1,0.2-0.1,0.2-0.2c0-0.1,0-0.2,0-0.3v-1.3c0-0.5,0-0.9-0.1-1.2c-0.1-0.2-0.3-0.4-0.6-0.4s-0.6,0.1-0.8,0.3
		c-0.2,0.2-0.4,0.5-0.5,0.9c-0.1,0.3-0.3,0.6-0.4,0.8c-0.2,0.2-0.4,0.3-0.8,0.3c-0.1,0-0.2,0-0.2-0.1c-0.1-0.1-0.1-0.1-0.1-0.2
		c0-0.3,0.1-0.6,0.2-0.9c0.2-0.3,0.4-0.6,0.7-0.9s0.7-0.5,1.1-0.6c0.4-0.2,0.9-0.3,1.3-0.3c0.4,0,0.7,0,0.9,0.1
		c0.2,0.1,0.4,0.2,0.5,0.4c0.1,0.2,0.2,0.4,0.2,0.7c0,0.3,0.1,0.6,0.1,0.9V40.7z M223.2,38.6c0,0-0.1,0-0.2,0.1l-0.6,0.3
		c-0.7,0.4-1.1,1-1.1,1.9c0,0.4,0.1,0.6,0.2,0.8c0.1,0.2,0.3,0.3,0.5,0.3c0.1,0,0.3,0,0.4-0.1c0.1-0.1,0.3-0.2,0.4-0.3
		s0.2-0.3,0.3-0.5c0.1-0.2,0.1-0.4,0.1-0.7v-1.5C223.2,38.7,223.2,38.6,223.2,38.6z"/>
	<path class="st2" d="M229.3,34.2c0,0.2,0.1,0.2,0.2,0.2h1.3c0.1,0,0.2,0,0.2,0.1c0,0.1,0,0.1,0,0.2v0.1c0,0.1,0,0.2,0,0.3
		s-0.1,0.1-0.2,0.1h-1.4c-0.1,0-0.2,0.1-0.2,0.2v5.9c0,0.2,0,0.4,0.1,0.5c0,0.1,0.1,0.2,0.3,0.3c0.1,0.1,0.3,0.1,0.4,0.1
		s0.2,0,0.3,0.1c0.1,0,0.1,0,0.2,0.1c0,0,0.1,0.1,0.1,0.2c0,0.2-0.1,0.3-0.4,0.3c-0.2,0-0.5,0-0.8-0.1s-0.6-0.1-0.9-0.1
		s-0.6,0-0.8,0.1s-0.5,0.1-0.7,0.1c-0.2,0-0.3-0.1-0.3-0.3c0-0.2,0.1-0.3,0.2-0.3c0.1,0,0.3,0,0.5-0.1c0.2-0.1,0.3-0.2,0.3-0.3
		c0-0.1,0.1-0.3,0.1-0.5v-5.9c0-0.2-0.1-0.2-0.2-0.2h-0.3c-0.1,0-0.1,0-0.2-0.1s-0.1-0.1-0.1-0.2c0-0.1,0.1-0.2,0.3-0.4l0.3-0.2
		c0.1-0.1,0.2-0.2,0.2-0.3l0.1-1c0-0.5,0.1-1,0.3-1.5c0.2-0.4,0.4-0.8,0.6-1.1c0.3-0.3,0.6-0.5,0.9-0.7c0.3-0.2,0.7-0.2,1-0.2
		c0.4,0,0.7,0.1,0.9,0.2s0.4,0.3,0.4,0.5c0,0.1,0,0.2-0.1,0.3c0,0.1-0.1,0.3-0.2,0.4c-0.1,0.1-0.1,0.2-0.2,0.3
		c-0.1,0.1-0.2,0.1-0.2,0.1c-0.1,0-0.2-0.1-0.3-0.2c-0.1-0.1-0.2-0.3-0.3-0.5c-0.1-0.2-0.2-0.3-0.3-0.5c-0.1-0.1-0.2-0.2-0.3-0.2
		c-0.2,0-0.4,0.2-0.6,0.7c-0.2,0.5-0.2,1.2-0.2,2.2V34.2z"/>
	<path class="st2" d="M233.8,36c0.2,0.2,0.2,0.4,0.2,0.7c0,0.3-0.1,0.5-0.2,0.7s-0.3,0.3-0.6,0.3c-0.2,0-0.4-0.1-0.5-0.3
		s-0.2-0.4-0.2-0.7c0-0.3,0.1-0.5,0.2-0.7s0.3-0.3,0.5-0.3C233.5,35.7,233.7,35.8,233.8,36z M233.8,41.3c0.2,0.2,0.2,0.4,0.2,0.7
		s-0.1,0.5-0.2,0.7c-0.2,0.2-0.3,0.3-0.6,0.3c-0.2,0-0.4-0.1-0.5-0.3c-0.2-0.2-0.2-0.4-0.2-0.7s0.1-0.5,0.2-0.7s0.3-0.3,0.5-0.3
		C233.5,41,233.7,41.1,233.8,41.3z"/>
	<path class="st2" d="M243.5,41.1c0,0.2,0,0.4,0,0.5c0,0.1,0,0.2,0.1,0.3c0,0.1,0.1,0.1,0.1,0.2c0.1,0.1,0.2,0.1,0.3,0.1
		c0.1,0,0.2,0.1,0.3,0.1c0.1,0,0.2,0,0.3,0s0.1,0,0.2,0.1s0.1,0.1,0.1,0.2c0,0.2-0.1,0.3-0.4,0.3c-0.1,0-0.3,0-0.6-0.1
		c-0.3,0-0.7-0.1-1.1-0.1c-0.5,0-0.9,0-1.1,0.1c-0.3,0-0.5,0.1-0.6,0.1c-0.3,0-0.4-0.1-0.4-0.3c0-0.1,0-0.2,0.1-0.2s0.1-0.1,0.2-0.1
		s0.1,0,0.2,0c0.1,0,0.2,0,0.3,0c0.1,0,0.3-0.1,0.3-0.1c0.1-0.1,0.1-0.1,0.2-0.2c0-0.1,0.1-0.2,0.1-0.3c0-0.1,0-0.3,0-0.5v-8.7
		c0-0.3,0-0.5-0.1-0.6c0-0.1-0.2-0.2-0.3-0.3c-0.1,0-0.2-0.1-0.3-0.1c-0.1,0-0.2,0-0.3,0s-0.1,0-0.2-0.1c0,0-0.1-0.1-0.1-0.2
		c0-0.2,0.1-0.3,0.3-0.3c0.1,0,0.3,0,0.6,0.1c0.3,0.1,0.7,0.1,1.2,0.1s0.9,0,1.2-0.1c0.3-0.1,0.5-0.1,0.6-0.1c0.2,0,0.3,0.1,0.3,0.3
		c0,0.1,0,0.1-0.1,0.2c0,0-0.1,0.1-0.2,0.1c-0.1,0-0.2,0-0.3,0c-0.1,0-0.2,0-0.3,0c-0.2,0.1-0.4,0.1-0.4,0.3c0,0.1-0.1,0.3-0.1,0.6
		V41.1z"/>
	<path class="st2" d="M254.1,33.1c0,0.2,0,0.4-0.1,0.4s-0.1,0.1-0.2,0.1c-0.1,0-0.1,0-0.2-0.1c0-0.1-0.1-0.2-0.1-0.3
		c0-0.1-0.1-0.2-0.1-0.4c0-0.2-0.1-0.3-0.1-0.5c-0.2-0.4-0.4-0.7-0.7-0.8c-0.3-0.1-0.7-0.2-1.3-0.2H251c-0.1,0-0.1,0-0.2,0.1
		c0,0.1-0.1,0.1-0.1,0.2v9.3c0,0.2,0,0.4,0,0.5s0,0.2,0.1,0.3c0,0.1,0.1,0.1,0.1,0.2s0.2,0.1,0.3,0.1c0.1,0,0.2,0.1,0.3,0.1
		c0.1,0,0.2,0,0.3,0c0.1,0,0.1,0,0.2,0.1s0.1,0.1,0.1,0.2c0,0.2-0.1,0.3-0.4,0.3c-0.2,0-0.4,0-0.7-0.1c-0.3,0-0.6-0.1-1-0.1
		c-0.4,0-0.7,0-1,0.1c-0.3,0-0.5,0.1-0.7,0.1c-0.3,0-0.4-0.1-0.4-0.3c0-0.1,0-0.2,0.1-0.2s0.1-0.1,0.2-0.1c0.1,0,0.2,0,0.3,0
		s0.2,0,0.3-0.1c0.2-0.1,0.4-0.2,0.4-0.3c0-0.1,0.1-0.4,0.1-0.8v-9.3c0-0.1,0-0.2-0.1-0.2s-0.1-0.1-0.2-0.1h-0.5
		c-0.4,0-0.7,0.1-0.9,0.2s-0.5,0.4-0.7,0.7c-0.2,0.4-0.4,0.7-0.5,0.9c-0.1,0.2-0.2,0.3-0.4,0.3h0c0,0-0.1,0-0.1,0c0,0,0-0.1,0-0.2
		c0,0,0-0.1,0-0.1c0-0.1,0-0.1,0.1-0.2l0.5-1.9c0.1-0.3,0.1-0.5,0.1-0.7c0-0.2,0.1-0.3,0.2-0.3c0,0,0.1,0,0.1,0.1
		c0,0.1,0.1,0.1,0.1,0.2c0,0.1,0.1,0.2,0.1,0.2c0,0.1,0.1,0.1,0.1,0.1c0.1,0.1,0.4,0.2,0.9,0.2c0.2,0,0.4,0,0.6,0s0.5,0,0.7,0h2.2
		c0.3,0,0.6,0,0.8,0c0.2,0,0.4,0,0.6,0c0.3,0,0.5,0,0.6-0.1c0.1-0.1,0.2-0.1,0.2-0.2c0.1-0.1,0.1-0.2,0.1-0.3c0-0.1,0.1-0.2,0.1-0.2
		c0-0.1,0.1-0.1,0.1-0.1c0.1,0,0.1,0,0.2,0.1c0,0.1,0,0.2,0,0.2v0.2L254.1,33.1z"/>
	<path class="st2" d="M258.3,37.8c0.1,0,0.1,0,0.1,0.1c0,0,0,0.1,0,0.1l-0.3,1.3c0,0.1-0.1,0.1-0.1,0.2c0,0-0.1,0.1-0.1,0.1H255
		c-0.1,0-0.1,0-0.1-0.1c0,0,0,0,0-0.1l0.3-1.3c0-0.1,0.1-0.1,0.1-0.2c0,0,0.1-0.1,0.1-0.1H258.3z"/>
	<path class="st2" d="M267.4,37.4c0.4,0.6,0.6,1.3,0.6,2.2c0,0.5-0.1,1-0.2,1.4c-0.2,0.4-0.4,0.8-0.7,1.1c-0.3,0.3-0.7,0.6-1.1,0.7
		s-0.9,0.3-1.4,0.3c-0.7,0-1.3,0-1.8-0.1c-0.5-0.1-1-0.1-1.5-0.1c-0.3,0-0.6,0-0.8,0.1c-0.2,0-0.4,0.1-0.5,0.1
		c-0.2,0-0.3-0.1-0.3-0.3c0-0.2,0.1-0.3,0.4-0.3c0.3,0,0.5-0.1,0.6-0.2c0.1-0.1,0.1-0.3,0.1-0.6c0,0,0-0.1,0-0.1c0-0.1,0-0.1,0-0.2
		v-8.7c0-0.5-0.2-0.7-0.5-0.7c-0.1,0-0.2,0-0.3,0c-0.1,0-0.2,0-0.3,0c-0.1,0-0.2-0.1-0.2-0.3c0-0.4,1.1-0.6,3.4-0.6
		c1.5,0,2.7,0.2,3.4,0.7c0.8,0.5,1.1,1.2,1.1,2.2c0,0.6-0.1,1.1-0.4,1.5c-0.3,0.4-0.7,0.7-1.4,1C266.4,36.5,267,36.8,267.4,37.4z
		 M262.4,35.9c0,0.1,0,0.1,0.1,0.2c0,0,0.1,0.1,0.2,0.1c0.1,0,0.2,0,0.3,0h0.2c0.8,0,1.4-0.2,1.8-0.6s0.6-1,0.6-1.7
		c0-0.8-0.2-1.4-0.6-1.8c-0.4-0.4-0.9-0.6-1.7-0.6c-0.5,0-0.8,0.1-0.9,0.2c-0.1,0.1-0.2,0.4-0.2,0.7v3.2
		C262.4,35.7,262.4,35.8,262.4,35.9z M262.4,37v3.9c0,0.5,0.1,0.8,0.3,1.1c0.2,0.2,0.6,0.4,1.1,0.4c0.7,0,1.3-0.2,1.7-0.8
		c0.4-0.5,0.6-1.2,0.6-2.1c0-0.8-0.2-1.5-0.6-1.9c-0.4-0.5-1-0.7-1.8-0.7h-1.1C262.4,36.8,262.4,36.9,262.4,37z"/>
	<path class="st2" d="M272.2,41.1c0,0.2,0,0.4,0,0.5c0,0.1,0,0.2,0.1,0.3c0,0.1,0.1,0.1,0.1,0.2c0.1,0.1,0.2,0.1,0.3,0.1
		c0.1,0,0.2,0.1,0.3,0.1c0.1,0,0.2,0,0.3,0s0.1,0,0.2,0.1s0.1,0.1,0.1,0.2c0,0.2-0.1,0.3-0.4,0.3c-0.1,0-0.3,0-0.6-0.1
		c-0.3,0-0.7-0.1-1.1-0.1c-0.5,0-0.9,0-1.1,0.1c-0.3,0-0.5,0.1-0.6,0.1c-0.3,0-0.4-0.1-0.4-0.3c0-0.1,0-0.2,0.1-0.2s0.1-0.1,0.2-0.1
		s0.1,0,0.2,0c0.1,0,0.2,0,0.3,0c0.1,0,0.3-0.1,0.3-0.1c0.1-0.1,0.1-0.1,0.2-0.2c0-0.1,0.1-0.2,0.1-0.3c0-0.1,0-0.3,0-0.5v-8.7
		c0-0.3,0-0.5-0.1-0.6c0-0.1-0.2-0.2-0.3-0.3c-0.1,0-0.2-0.1-0.3-0.1c-0.1,0-0.2,0-0.3,0s-0.1,0-0.2-0.1c0,0-0.1-0.1-0.1-0.2
		c0-0.2,0.1-0.3,0.3-0.3c0.1,0,0.3,0,0.6,0.1c0.3,0.1,0.7,0.1,1.2,0.1s0.9,0,1.2-0.1c0.3-0.1,0.5-0.1,0.6-0.1c0.2,0,0.3,0.1,0.3,0.3
		c0,0.1,0,0.1-0.1,0.2c0,0-0.1,0.1-0.2,0.1c-0.1,0-0.2,0-0.3,0c-0.1,0-0.2,0-0.3,0c-0.2,0.1-0.4,0.1-0.4,0.3c0,0.1-0.1,0.3-0.1,0.6
		V41.1z"/>
	<path class="st2" d="M281.9,31c0.6,0.3,1.2,0.8,1.6,1.3c0.5,0.6,0.8,1.2,1.1,2c0.3,0.8,0.4,1.6,0.4,2.5s-0.1,1.7-0.4,2.5
		c-0.3,0.8-0.6,1.4-1.1,2c-0.5,0.6-1,1-1.6,1.3c-0.6,0.3-1.3,0.5-2,0.5c-0.7,0-1.3-0.2-2-0.5c-0.6-0.3-1.2-0.8-1.6-1.3
		c-0.5-0.6-0.8-1.2-1.1-2c-0.3-0.8-0.4-1.6-0.4-2.5s0.1-1.7,0.4-2.5c0.3-0.8,0.6-1.4,1.1-2c0.5-0.6,1-1,1.6-1.3
		c0.6-0.3,1.3-0.5,2-0.5C280.6,30.5,281.3,30.7,281.9,31z M278.6,31.4c-0.4,0.2-0.7,0.6-1,1.1s-0.5,1-0.7,1.7s-0.2,1.5-0.2,2.4
		c0,1,0.1,1.8,0.3,2.6c0.2,0.8,0.4,1.4,0.7,1.9c0.3,0.5,0.7,0.9,1.1,1.2c0.4,0.3,0.8,0.4,1.3,0.4c0.4,0,0.9-0.1,1.2-0.4
		s0.7-0.6,1-1.1c0.3-0.5,0.5-1.1,0.7-1.7c0.2-0.7,0.2-1.5,0.2-2.4c0-1-0.1-1.8-0.3-2.6c-0.2-0.7-0.4-1.4-0.7-1.9
		c-0.3-0.5-0.7-0.9-1.1-1.2c-0.4-0.3-0.8-0.4-1.3-0.4C279.4,31.1,278.9,31.2,278.6,31.4z"/>
	<path class="st2" d="M289.9,37.8c0.1,0,0.1,0,0.1,0.1c0,0,0,0.1,0,0.1l-0.3,1.3c0,0.1-0.1,0.1-0.1,0.2c0,0-0.1,0.1-0.1,0.1h-2.8
		c-0.1,0-0.1,0-0.1-0.1c0,0,0,0,0-0.1l0.3-1.3c0-0.1,0.1-0.1,0.1-0.2c0,0,0.1-0.1,0.1-0.1H289.9z"/>
	<path class="st2" d="M296,31c0.4,0.3,0.8,0.7,1.1,1.2c0.3,0.5,0.6,1.2,0.8,2c0.2,0.8,0.3,1.7,0.3,2.7c0,1-0.1,1.9-0.3,2.7
		c-0.2,0.8-0.4,1.4-0.8,2c-0.3,0.5-0.7,0.9-1.1,1.2c-0.4,0.3-0.9,0.4-1.3,0.4c-0.5,0-0.9-0.1-1.4-0.4c-0.4-0.3-0.8-0.7-1.1-1.2
		c-0.3-0.5-0.6-1.2-0.8-2s-0.3-1.7-0.3-2.7s0.1-1.9,0.3-2.7c0.2-0.8,0.4-1.4,0.8-2c0.3-0.5,0.7-0.9,1.1-1.2c0.4-0.3,0.9-0.4,1.3-0.4
		S295.6,30.7,296,31z M293.3,32.5c-0.3,1-0.4,2.4-0.4,4.4c0,2,0.1,3.4,0.4,4.4c0.3,1,0.8,1.4,1.4,1.4s1.1-0.5,1.4-1.4
		c0.3-1,0.4-2.4,0.4-4.4s-0.1-3.4-0.4-4.4c-0.3-1-0.7-1.4-1.4-1.4C294,31.1,293.6,31.6,293.3,32.5z"/>
	<path class="st2" d="M304.2,40.5c0,0.4,0,0.8,0.1,1.1s0.2,0.4,0.4,0.5c0.1,0.1,0.3,0.1,0.4,0.1c0.2,0,0.3,0,0.4,0
		c0.1,0,0.2,0,0.3,0.1c0.1,0,0.1,0.1,0.1,0.3c0,0.2-0.1,0.3-0.3,0.3c-0.1,0-0.3,0-0.7-0.1c-0.4-0.1-1.1-0.1-1.9-0.1
		c-0.5,0-0.9,0-1.3,0.1c-0.3,0-0.6,0.1-0.7,0.1c-0.2,0-0.3-0.1-0.3-0.3c0-0.1,0-0.2,0.1-0.2s0.1-0.1,0.2-0.1c0.1,0,0.2,0,0.3,0
		c0.1,0,0.3,0,0.5,0c0.3-0.1,0.5-0.2,0.5-0.4c0.1-0.2,0.1-0.6,0.1-1.1v-7.4c0-0.4,0-0.6,0-0.8s-0.1-0.2-0.2-0.2
		c-0.1,0-0.2,0-0.4,0.1c-0.1,0.1-0.3,0.1-0.4,0.2c-0.1,0.1-0.3,0.1-0.4,0.2c-0.1,0.1-0.2,0.1-0.4,0.1c-0.2,0-0.2-0.1-0.2-0.2
		c0-0.2,0.1-0.3,0.4-0.4c0.3-0.1,0.6-0.2,1-0.4c0.4-0.2,0.7-0.3,1-0.4c0.3-0.1,0.5-0.3,0.6-0.4c0.2-0.1,0.3-0.2,0.4-0.2
		c0.1-0.1,0.1-0.1,0.2-0.1c0.2,0,0.2,0.1,0.2,0.4c0,0.1,0,0.3,0,0.4c0,0.2,0,0.4,0,0.6V40.5z"/>
	<path class="st2" d="M310.8,32.7c-0.3,0-0.5,0-0.7,0c-0.2,0-0.4,0-0.5,0.1c-0.1,0.1-0.2,0.2-0.3,0.4s-0.1,0.4-0.1,0.8
		c0,0.1,0,0.2,0.1,0.3c0.1,0,0.2,0.1,0.4,0.1c0.2,0,0.4,0,0.6,0.1s0.5,0.1,0.8,0.1c2.2,0.5,3.3,1.8,3.3,4c0,0.8-0.2,1.5-0.6,2.3
		c-0.4,0.7-1,1.3-1.8,1.9c-0.3,0.2-0.7,0.4-1,0.6c-0.4,0.2-0.7,0.3-1,0.4s-0.6,0.2-0.9,0.2c-0.2,0.1-0.4,0.1-0.5,0.1
		c-0.2,0-0.3-0.1-0.3-0.3c0-0.1,0-0.2,0.1-0.2c0.1,0,0.2-0.1,0.4-0.1c0.2,0,0.4-0.1,0.6-0.1c0.3-0.1,0.5-0.2,0.9-0.3
		c0.8-0.4,1.5-0.9,1.9-1.5s0.6-1.4,0.6-2.2c0-0.8-0.2-1.4-0.6-1.9s-1.1-0.8-2-1c-0.3-0.1-0.6-0.1-0.9-0.1c-0.2,0-0.4,0-0.6,0
		c-0.2,0-0.3-0.1-0.4-0.1c-0.1-0.1-0.1-0.2-0.1-0.3c0-0.2,0.1-0.7,0.3-1.4s0.4-1.6,0.7-2.8c0-0.1,0.1-0.3,0.1-0.3s0.1-0.1,0.2-0.2
		s0.2-0.1,0.3-0.1c0.1,0,0.3-0.1,0.6-0.1l3-0.3h0.2c0.1,0,0.2,0.1,0.2,0.2c0,0.4,0,0.8-0.1,1c-0.1,0.2-0.1,0.4-0.2,0.5
		c-0.1,0.1-0.2,0.2-0.3,0.2s-0.2,0-0.3,0L310.8,32.7z"/>
</g>
<g class="st4">
	<path class="st2" d="M168,63.5c0.1,0.4,0.3,0.8,0.4,1.1c0.1,0.3,0.3,0.5,0.5,0.6c0.2,0.1,0.3,0.2,0.5,0.2s0.2,0.1,0.2,0.2
		c0,0.2-0.1,0.3-0.4,0.3c-0.2,0-0.4,0-0.6-0.1c-0.2,0-0.6-0.1-0.9-0.1c-0.5,0-0.9,0-1.2,0c-0.3,0-0.5,0-0.6,0
		c-0.2,0-0.3-0.1-0.3-0.2c0-0.2,0.1-0.3,0.4-0.3c0.3,0,0.5,0,0.6-0.1c0.1-0.1,0.1-0.2,0.1-0.4c0-0.2-0.1-0.4-0.2-0.9l-0.7-2.4
		c0-0.1-0.1-0.2-0.3-0.2h-2.3c0,0-0.1,0-0.1,0c0,0-0.1,0.1-0.1,0.1l-0.4,1.7c-0.2,0.7-0.3,1.2-0.3,1.5c0,0.2,0,0.3,0.1,0.4
		c0.1,0.1,0.2,0.1,0.4,0.1c0.2,0,0.4,0.1,0.5,0.1c0.1,0.1,0.2,0.1,0.2,0.3c0,0.2-0.1,0.2-0.3,0.2c-0.1,0-0.3,0-0.6-0.1
		c-0.3,0-0.6-0.1-1-0.1c-0.3,0-0.5,0-0.7,0c-0.2,0-0.4,0-0.5,0c-0.2,0-0.3-0.1-0.3-0.2c0-0.1,0-0.2,0.1-0.2s0.1-0.1,0.2-0.1
		c0.1,0,0.2,0,0.3,0c0.1,0,0.2-0.1,0.3-0.1c0.2-0.1,0.3-0.3,0.4-0.5s0.2-0.5,0.3-0.9l2.9-9.8c0-0.1,0.1-0.2,0.1-0.3
		c0-0.1,0.1-0.1,0.2-0.1c0.1,0,0.2,0.1,0.3,0.2c0,0.2,0.1,0.4,0.2,0.6L168,63.5z M164.3,56.9c0,0-0.1,0.1-0.1,0.2l-0.9,3.4
		c0,0.1,0,0.1,0,0.1c0,0,0,0,0,0.1c0,0.1,0,0.1,0.1,0.1h1.8c0,0,0.1,0,0.1,0s0.1-0.1,0.1-0.1c0,0,0-0.1,0-0.2l-1-3.3
		C164.3,56.9,164.3,56.9,164.3,56.9z"/>
	<path class="st2" d="M176.7,61.4c0-0.3,0-0.5-0.1-0.6s-0.2-0.2-0.4-0.2c-0.1,0-0.3,0-0.4,0c-0.1,0-0.2,0-0.3,0
		c-0.1,0-0.1,0-0.2-0.1c0,0-0.1-0.1-0.1-0.2c0-0.2,0.1-0.3,0.3-0.3c0.1,0,0.3,0,0.6,0.1c0.3,0.1,0.7,0.1,1.2,0.1c0.6,0,1,0,1.3-0.1
		c0.3,0,0.5-0.1,0.6-0.1c0.2,0,0.3,0.1,0.3,0.2c0,0.1,0,0.2-0.1,0.2c0,0-0.1,0.1-0.2,0.1c-0.1,0-0.1,0-0.2,0s-0.2,0-0.3,0
		c-0.2,0.1-0.4,0.1-0.4,0.2s-0.1,0.3-0.1,0.7v2.9c0,0.3-0.1,0.6-0.3,0.8s-0.4,0.5-0.8,0.6c-0.3,0.2-0.7,0.3-1.1,0.4
		c-0.4,0.1-0.9,0.1-1.4,0.1c-0.8,0-1.4-0.2-2.1-0.5c-0.6-0.3-1.2-0.7-1.6-1.3s-0.8-1.2-1.1-1.9c-0.3-0.7-0.4-1.6-0.4-2.5
		c0-0.9,0.1-1.8,0.4-2.6s0.7-1.5,1.2-2.1c0.5-0.6,1.1-1,1.8-1.4c0.7-0.3,1.4-0.5,2.3-0.5c0.3,0,0.6,0,0.9,0.1c0.3,0,0.6,0.1,0.8,0.2
		c0.2,0.1,0.4,0.2,0.6,0.2c0.2,0.1,0.3,0.2,0.3,0.2c0.1,0.2,0.2,0.8,0.2,1.8c0,0.4-0.1,0.5-0.2,0.5c-0.1,0-0.2-0.1-0.3-0.3
		s-0.1-0.4-0.2-0.6c-0.4-1.1-1.2-1.7-2.2-1.7c-0.5,0-1,0.1-1.4,0.4c-0.4,0.3-0.8,0.7-1.2,1.2c-0.3,0.5-0.6,1.2-0.8,1.9
		c-0.2,0.7-0.3,1.6-0.3,2.5c0,0.8,0.1,1.6,0.3,2.3s0.4,1.3,0.8,1.8c0.3,0.5,0.7,0.9,1.1,1.1s0.9,0.4,1.4,0.4c0.4,0,0.6-0.1,0.8-0.2
		c0.2-0.1,0.4-0.2,0.5-0.4c0.1-0.2,0.2-0.4,0.2-0.7c0-0.3,0-0.5,0-0.8V61.4z"/>
	<path class="st2" d="M186.5,60.2c0.1,0.2,0.2,0.4,0.3,0.7l1.1,2.6c0.2,0.5,0.4,0.9,0.5,1.2c0.1,0.3,0.2,0.4,0.4,0.5
		c0.2,0.1,0.4,0.1,0.5,0.2c0.2,0,0.2,0.1,0.2,0.3c0,0.1,0,0.1-0.1,0.2c0,0-0.1,0-0.2,0c-0.2,0-0.3,0-0.5,0s-0.4,0-0.6,0
		c-0.1,0-0.3,0-0.4,0s-0.3,0-0.4,0c-0.2,0-0.3-0.1-0.4-0.2s-0.1-0.3-0.2-0.5l-1.6-4.3c-0.1-0.3-0.3-0.6-0.4-0.7
		c-0.1-0.1-0.3-0.2-0.6-0.2h-0.2c-0.2,0-0.2,0.1-0.2,0.3v3.7c0,0.2,0,0.4,0,0.5c0,0.1,0,0.3,0.1,0.4c0,0.1,0.1,0.2,0.2,0.2
		c0.1,0.1,0.3,0.1,0.5,0.1c0.3,0,0.4,0.1,0.4,0.3c0,0.2-0.1,0.3-0.4,0.3c-0.1,0-0.3,0-0.5-0.1c-0.3,0-0.6-0.1-1.1-0.1
		c-0.5,0-0.9,0-1.1,0.1c-0.3,0-0.5,0.1-0.6,0.1c-0.3,0-0.4-0.1-0.4-0.3c0-0.1,0-0.2,0.1-0.2c0,0,0.1-0.1,0.2-0.1c0.1,0,0.1,0,0.2,0
		c0.1,0,0.2,0,0.3,0c0.1,0,0.3-0.1,0.3-0.1s0.1-0.1,0.2-0.2s0.1-0.2,0.1-0.3c0-0.1,0-0.3,0-0.5v-8.7c0-0.3,0-0.5-0.1-0.6
		c0-0.1-0.2-0.2-0.3-0.3c-0.1,0-0.2-0.1-0.3-0.1c-0.1,0-0.2,0-0.3,0c-0.1,0-0.1,0-0.2-0.1c0,0-0.1-0.1-0.1-0.2c0-0.1,0-0.2,0.1-0.2
		c0.1,0,0.2,0,0.4,0c0.1,0,0.2,0,0.4,0c0.2,0,0.5,0,0.8,0c0.5,0,0.9,0,1.3-0.1c0.4,0,0.9-0.1,1.3-0.1c1,0,1.7,0.3,2.2,0.8
		c0.5,0.5,0.8,1.3,0.8,2.1c0,0.8-0.2,1.4-0.5,1.9c-0.3,0.5-0.8,0.9-1.4,1C186.2,59.9,186.4,60,186.5,60.2z M183.8,59.4
		c0.1,0,0.3,0.1,0.7,0.1c1.3,0,1.9-0.8,1.9-2.4c0-0.8-0.2-1.4-0.5-1.9s-0.8-0.7-1.4-0.7c-0.2,0-0.4,0-0.5,0.1
		c-0.1,0-0.2,0.1-0.3,0.2c-0.1,0.1-0.1,0.2-0.1,0.3c0,0.1,0,0.3,0,0.4V59C183.6,59.2,183.7,59.4,183.8,59.4z"/>
	<path class="st2" d="M192.7,64.1c0,0.2,0,0.4,0,0.5c0,0.1,0,0.2,0.1,0.3s0.1,0.1,0.1,0.2s0.2,0.1,0.3,0.1c0.1,0,0.2,0.1,0.3,0.1
		c0.1,0,0.2,0,0.3,0c0.1,0,0.1,0,0.2,0.1c0,0,0.1,0.1,0.1,0.2c0,0.2-0.1,0.3-0.4,0.3c-0.1,0-0.3,0-0.6-0.1c-0.3,0-0.7-0.1-1.1-0.1
		c-0.5,0-0.9,0-1.1,0.1c-0.3,0-0.5,0.1-0.6,0.1c-0.3,0-0.4-0.1-0.4-0.3c0-0.1,0-0.2,0.1-0.2c0,0,0.1-0.1,0.2-0.1c0.1,0,0.1,0,0.2,0
		c0.1,0,0.2,0,0.3,0c0.1,0,0.3-0.1,0.3-0.1s0.1-0.1,0.2-0.2s0.1-0.2,0.1-0.3c0-0.1,0-0.3,0-0.5v-8.7c0-0.3,0-0.5-0.1-0.6
		c0-0.1-0.2-0.2-0.3-0.3c-0.1,0-0.2-0.1-0.3-0.1c-0.1,0-0.2,0-0.3,0c-0.1,0-0.1,0-0.2-0.1c0,0-0.1-0.1-0.1-0.2
		c0-0.2,0.1-0.3,0.3-0.3c0.1,0,0.3,0,0.6,0.1c0.3,0.1,0.7,0.1,1.2,0.1s0.9,0,1.2-0.1c0.3,0,0.5-0.1,0.6-0.1c0.2,0,0.3,0.1,0.3,0.3
		c0,0.1,0,0.1-0.1,0.2s-0.1,0.1-0.2,0.1c-0.1,0-0.2,0-0.3,0c-0.1,0-0.2,0-0.3,0c-0.2,0.1-0.4,0.1-0.4,0.3c0,0.1-0.1,0.3-0.1,0.6
		V64.1z"/>
	<path class="st2" d="M195.7,57.4c0.3-0.8,0.7-1.4,1.2-2c0.5-0.6,1.1-1,1.7-1.3c0.7-0.3,1.4-0.5,2.1-0.5c0.3,0,0.6,0,0.9,0.1
		c0.3,0.1,0.6,0.1,0.8,0.2c0.2,0.1,0.4,0.2,0.6,0.2c0.2,0.1,0.3,0.2,0.3,0.2s0.1,0.3,0.2,0.6c0,0.3,0.1,0.8,0.1,1.4
		c0,0.2,0,0.3-0.1,0.3c-0.1,0-0.2-0.1-0.3-0.2c-0.1-0.1-0.2-0.3-0.3-0.6c-0.3-0.6-0.7-1-1-1.3s-0.8-0.4-1.2-0.4
		c-0.5,0-1,0.1-1.4,0.4c-0.4,0.3-0.8,0.7-1.1,1.2c-0.3,0.5-0.6,1.1-0.8,1.9c-0.2,0.7-0.3,1.5-0.3,2.4c0,0.8,0.1,1.6,0.3,2.3
		s0.4,1.3,0.7,1.8c0.3,0.5,0.7,0.9,1.1,1.2s0.8,0.4,1.3,0.4c0.6,0,1-0.2,1.4-0.5s0.7-0.8,1-1.5c0.1-0.3,0.3-0.6,0.3-0.8
		s0.2-0.3,0.3-0.3c0.1,0,0.2,0.1,0.2,0.4c0,0.1,0,0.3,0,0.5c0,0.3,0,0.6,0,1.1c0,0.2-0.1,0.4-0.2,0.6s-0.4,0.4-0.6,0.5
		c-0.3,0.2-0.6,0.3-1,0.4c-0.4,0.1-0.8,0.1-1.3,0.1c-0.8,0-1.5-0.2-2.1-0.5c-0.7-0.3-1.2-0.8-1.7-1.3c-0.5-0.6-0.8-1.2-1.1-2
		c-0.3-0.8-0.4-1.6-0.4-2.5C195.2,59,195.4,58.1,195.7,57.4z"/>
	<path class="st2" d="M212.5,54c0.6,0.3,1.2,0.8,1.6,1.3c0.5,0.6,0.8,1.2,1.1,2s0.4,1.6,0.4,2.5c0,0.9-0.1,1.7-0.4,2.5
		c-0.3,0.8-0.6,1.4-1.1,2c-0.5,0.6-1,1-1.6,1.3c-0.6,0.3-1.3,0.5-2,0.5c-0.7,0-1.3-0.2-2-0.5c-0.6-0.3-1.2-0.8-1.6-1.3
		c-0.5-0.6-0.8-1.2-1.1-2c-0.3-0.8-0.4-1.6-0.4-2.5c0-0.9,0.1-1.7,0.4-2.5s0.6-1.4,1.1-2c0.5-0.6,1-1,1.6-1.3c0.6-0.3,1.3-0.5,2-0.5
		C211.2,53.5,211.9,53.7,212.5,54z M209.2,54.4c-0.4,0.2-0.7,0.6-1,1.1c-0.3,0.5-0.5,1-0.7,1.7s-0.2,1.5-0.2,2.4
		c0,1,0.1,1.8,0.3,2.6c0.2,0.8,0.4,1.4,0.7,1.9c0.3,0.5,0.7,0.9,1.1,1.2c0.4,0.3,0.8,0.4,1.3,0.4c0.4,0,0.9-0.1,1.2-0.4
		c0.4-0.2,0.7-0.6,1-1.1c0.3-0.5,0.5-1.1,0.7-1.7c0.2-0.7,0.2-1.5,0.2-2.4c0-1-0.1-1.8-0.3-2.5c-0.2-0.7-0.4-1.4-0.7-1.9
		c-0.3-0.5-0.7-0.9-1.1-1.2c-0.4-0.3-0.8-0.4-1.3-0.4C210,54.1,209.6,54.2,209.2,54.4z"/>
	<path class="st2" d="M219.9,64.1c0,0.8,0.4,1.2,1.2,1.2c0.4,0,0.7-0.1,1-0.3c0.3-0.2,0.6-0.4,0.8-0.8c0.3-0.4,0.5-0.7,0.6-0.9
		s0.2-0.4,0.3-0.4c0,0,0.1,0,0.1,0.1c0,0,0.1,0.1,0.1,0.1c0,0,0,0.1,0,0.1c0,0.1,0,0.1,0,0.2l-0.2,1.8c0,0.1,0,0.2,0,0.2
		c0,0.1,0,0.1,0,0.1c0,0.2-0.1,0.3-0.4,0.3c-0.4,0-0.9,0-1.7-0.1c-0.7-0.1-1.6-0.1-2.7-0.1c-0.5,0-0.9,0-1.1,0.1
		c-0.3,0-0.5,0.1-0.6,0.1c-0.3,0-0.4-0.1-0.4-0.3c0-0.1,0-0.2,0.1-0.2s0.1-0.1,0.2-0.1c0.1,0,0.1,0,0.2,0c0.1,0,0.2,0,0.3,0
		c0.1,0,0.3-0.1,0.3-0.1c0.1-0.1,0.1-0.1,0.2-0.2s0.1-0.2,0.1-0.3c0-0.1,0-0.3,0-0.5v-8.7c0-0.3,0-0.5-0.1-0.6
		c0-0.1-0.1-0.2-0.3-0.3c-0.1,0-0.2-0.1-0.3-0.1c-0.1,0-0.2,0-0.2,0c-0.1,0-0.1,0-0.2-0.1c0,0-0.1-0.1-0.1-0.2
		c0-0.2,0.1-0.3,0.2-0.3c0.1,0,0.3,0,0.5,0.1c0.3,0.1,0.6,0.1,1.1,0.1c0.5,0,1,0,1.3-0.1c0.3,0,0.5-0.1,0.6-0.1
		c0.2,0,0.3,0.1,0.3,0.3c0,0.1,0,0.1-0.1,0.2c0,0-0.1,0.1-0.2,0.1c-0.1,0-0.2,0-0.3,0c-0.1,0-0.2,0-0.3,0c-0.2,0.1-0.4,0.1-0.4,0.3
		c0,0.1-0.1,0.3-0.1,0.6V64.1z"/>
	<path class="st2" d="M231.3,56.1c0,0.2,0,0.4-0.1,0.4c0,0.1-0.1,0.1-0.2,0.1c-0.1,0-0.2,0-0.2-0.1c0-0.1-0.1-0.2-0.1-0.3
		c0-0.1-0.1-0.2-0.1-0.4c0-0.2-0.1-0.3-0.1-0.5c-0.2-0.4-0.4-0.7-0.7-0.8s-0.7-0.2-1.3-0.2h-0.3c-0.1,0-0.1,0-0.2,0.1
		s-0.1,0.1-0.1,0.2v9.3c0,0.2,0,0.4,0,0.5s0,0.2,0.1,0.3s0.1,0.1,0.1,0.2c0.1,0.1,0.2,0.1,0.3,0.1c0.1,0,0.2,0.1,0.3,0.1
		c0.1,0,0.2,0,0.3,0c0.1,0,0.1,0,0.2,0.1c0,0,0.1,0.1,0.1,0.2c0,0.2-0.1,0.3-0.4,0.3c-0.2,0-0.4,0-0.7-0.1s-0.6-0.1-1-0.1
		c-0.4,0-0.7,0-1,0.1s-0.5,0.1-0.7,0.1c-0.3,0-0.4-0.1-0.4-0.3c0-0.1,0-0.2,0.1-0.2s0.1-0.1,0.2-0.1c0.1,0,0.2,0,0.3,0
		c0.1,0,0.2,0,0.3-0.1c0.2-0.1,0.4-0.2,0.4-0.3c0-0.1,0.1-0.4,0.1-0.8v-9.3c0-0.1,0-0.2-0.1-0.2c0-0.1-0.1-0.1-0.2-0.1h-0.5
		c-0.4,0-0.7,0.1-0.9,0.2c-0.2,0.2-0.5,0.4-0.7,0.7c-0.2,0.4-0.4,0.7-0.5,0.9c-0.1,0.2-0.2,0.3-0.4,0.3h0c0,0-0.1,0-0.1,0
		s0-0.1,0-0.2c0,0,0-0.1,0-0.1c0-0.1,0-0.1,0.1-0.2l0.5-1.9c0.1-0.3,0.1-0.5,0.1-0.7s0.1-0.3,0.2-0.3c0,0,0.1,0,0.1,0.1
		s0.1,0.1,0.1,0.2c0,0.1,0.1,0.2,0.1,0.2c0,0.1,0.1,0.1,0.1,0.1c0.1,0.1,0.4,0.2,0.9,0.2c0.2,0,0.4,0,0.6,0c0.2,0,0.5,0,0.7,0h2.2
		c0.3,0,0.6,0,0.8,0c0.2,0,0.4,0,0.6,0c0.3,0,0.5,0,0.6-0.1c0.1-0.1,0.2-0.1,0.2-0.2c0.1-0.1,0.1-0.2,0.1-0.3c0-0.1,0.1-0.2,0.1-0.2
		c0-0.1,0.1-0.1,0.1-0.1c0.1,0,0.1,0,0.2,0.1c0,0.1,0,0.2,0,0.2v0.2L231.3,56.1z"/>
	<path class="st2" d="M235.1,62c0,0.6,0,1.1,0.1,1.5c0.1,0.4,0.2,0.8,0.4,1.1c0.2,0.3,0.4,0.5,0.7,0.7s0.7,0.2,1.2,0.2
		c1,0,1.7-0.3,2.1-1c0.2-0.3,0.3-0.7,0.4-1.2s0.1-1,0.1-1.7V57c0-0.7,0-1.3,0-1.7c0-0.4-0.1-0.6-0.3-0.8c-0.1-0.1-0.2-0.1-0.3-0.1
		c-0.1,0-0.2,0-0.3,0c-0.1,0-0.2,0-0.3-0.1c-0.1,0-0.1-0.1-0.1-0.2c0-0.2,0.1-0.3,0.3-0.3c0.1,0,0.3,0,0.5,0c0.2,0,0.5,0,0.8,0
		c0.3,0,0.6,0,0.8,0s0.4,0,0.5,0c0.3,0,0.4,0.1,0.4,0.3c0,0.1,0,0.2-0.1,0.2c-0.1,0-0.2,0-0.4,0c-0.2,0-0.3,0-0.4,0.1
		c-0.1,0.1-0.2,0.2-0.2,0.4c-0.1,0.2-0.1,0.5-0.1,0.8c0,0.3,0,0.7,0,1.2v4.7c0,0.7,0,1.2-0.1,1.7c0,0.5-0.2,1-0.4,1.4
		c-0.3,0.5-0.6,0.8-1.1,1.1c-0.5,0.2-1.1,0.4-1.8,0.4c-0.8,0-1.4-0.1-2-0.3c-0.5-0.2-0.9-0.6-1.3-1c-0.2-0.4-0.4-0.8-0.4-1.2
		c-0.1-0.5-0.1-1-0.1-1.6v-6.7c0-0.3,0-0.5-0.1-0.6c0-0.1-0.2-0.2-0.3-0.2c-0.1,0-0.2-0.1-0.3-0.1c-0.1,0-0.2,0-0.3,0
		c-0.1,0-0.1,0-0.2-0.1c0,0-0.1-0.1-0.1-0.2c0-0.2,0.1-0.3,0.3-0.3c0.1,0,0.3,0,0.6,0.1c0.3,0.1,0.7,0.1,1.2,0.1
		c0.5,0,0.9,0,1.2-0.1c0.3,0,0.5-0.1,0.6-0.1c0.2,0,0.3,0.1,0.3,0.3c0,0.1,0,0.2-0.1,0.2c0,0-0.1,0.1-0.2,0.1c-0.1,0-0.2,0-0.3,0
		c-0.1,0-0.2,0-0.3,0.1c-0.2,0.1-0.3,0.1-0.3,0.3s-0.1,0.3-0.1,0.6V62z"/>
	<path class="st2" d="M248.7,60.2c0.1,0.2,0.2,0.4,0.3,0.7l1.1,2.6c0.2,0.5,0.4,0.9,0.5,1.2c0.1,0.3,0.2,0.4,0.4,0.5
		c0.2,0.1,0.4,0.1,0.5,0.2s0.2,0.1,0.2,0.3c0,0.1,0,0.1-0.1,0.2c0,0-0.1,0-0.2,0c-0.2,0-0.3,0-0.5,0s-0.4,0-0.6,0
		c-0.1,0-0.3,0-0.4,0s-0.3,0-0.4,0c-0.2,0-0.3-0.1-0.4-0.2s-0.1-0.3-0.2-0.5l-1.6-4.3c-0.1-0.3-0.3-0.6-0.4-0.7s-0.3-0.2-0.6-0.2
		H246c-0.2,0-0.2,0.1-0.2,0.3v3.7c0,0.2,0,0.4,0,0.5c0,0.1,0,0.3,0.1,0.4s0.1,0.2,0.2,0.2c0.1,0.1,0.3,0.1,0.5,0.1
		c0.3,0,0.4,0.1,0.4,0.3c0,0.2-0.1,0.3-0.4,0.3c-0.1,0-0.3,0-0.5-0.1c-0.3,0-0.6-0.1-1.1-0.1c-0.5,0-0.9,0-1.1,0.1
		c-0.3,0-0.5,0.1-0.6,0.1c-0.3,0-0.4-0.1-0.4-0.3c0-0.1,0-0.2,0.1-0.2s0.1-0.1,0.2-0.1c0.1,0,0.1,0,0.2,0c0.1,0,0.2,0,0.3,0
		c0.1,0,0.3-0.1,0.3-0.1c0.1-0.1,0.1-0.1,0.2-0.2s0.1-0.2,0.1-0.3c0-0.1,0-0.3,0-0.5v-8.7c0-0.3,0-0.5-0.1-0.6
		c0-0.1-0.2-0.2-0.3-0.3c-0.1,0-0.2-0.1-0.3-0.1c-0.1,0-0.2,0-0.3,0c-0.1,0-0.1,0-0.2-0.1c0,0-0.1-0.1-0.1-0.2c0-0.1,0-0.2,0.1-0.2
		c0.1,0,0.2,0,0.4,0c0.1,0,0.2,0,0.4,0s0.5,0,0.8,0c0.5,0,0.9,0,1.3-0.1c0.4,0,0.9-0.1,1.3-0.1c1,0,1.7,0.3,2.2,0.8
		c0.5,0.5,0.8,1.3,0.8,2.1c0,0.8-0.2,1.4-0.5,1.9c-0.3,0.5-0.8,0.9-1.4,1C248.4,59.9,248.6,60,248.7,60.2z M246,59.4
		c0.1,0,0.3,0.1,0.7,0.1c1.3,0,1.9-0.8,1.9-2.4c0-0.8-0.2-1.4-0.5-1.9s-0.8-0.7-1.4-0.7c-0.2,0-0.4,0-0.5,0.1
		c-0.1,0-0.2,0.1-0.3,0.2c-0.1,0.1-0.1,0.2-0.1,0.3c0,0.1,0,0.3,0,0.4V59C245.8,59.2,245.9,59.4,246,59.4z"/>
	<path class="st2" d="M259.2,63.5c0.1,0.4,0.3,0.8,0.4,1.1c0.1,0.3,0.3,0.5,0.5,0.6c0.2,0.1,0.3,0.2,0.5,0.2c0.1,0,0.2,0.1,0.2,0.2
		c0,0.2-0.1,0.3-0.4,0.3c-0.2,0-0.4,0-0.6-0.1c-0.2,0-0.6-0.1-0.9-0.1c-0.5,0-0.9,0-1.2,0c-0.3,0-0.5,0-0.6,0
		c-0.2,0-0.3-0.1-0.3-0.2c0-0.2,0.1-0.3,0.4-0.3c0.3,0,0.5,0,0.6-0.1c0.1-0.1,0.1-0.2,0.1-0.4c0-0.2-0.1-0.4-0.2-0.9l-0.7-2.4
		c0-0.1-0.1-0.2-0.3-0.2h-2.3c0,0-0.1,0-0.1,0c0,0-0.1,0.1-0.1,0.1l-0.4,1.7c-0.2,0.7-0.3,1.2-0.3,1.5c0,0.2,0,0.3,0.1,0.4
		c0.1,0.1,0.2,0.1,0.4,0.1c0.2,0,0.4,0.1,0.5,0.1c0.1,0.1,0.2,0.1,0.2,0.3c0,0.2-0.1,0.2-0.3,0.2c-0.1,0-0.3,0-0.6-0.1
		s-0.6-0.1-1-0.1c-0.3,0-0.5,0-0.7,0s-0.4,0-0.5,0c-0.2,0-0.3-0.1-0.3-0.2c0-0.1,0-0.2,0.1-0.2c0.1,0,0.1-0.1,0.2-0.1
		c0.1,0,0.2,0,0.3,0c0.1,0,0.2-0.1,0.3-0.1c0.2-0.1,0.3-0.3,0.4-0.5s0.2-0.5,0.3-0.9l2.9-9.8c0-0.1,0.1-0.2,0.1-0.3
		c0-0.1,0.1-0.1,0.2-0.1c0.1,0,0.2,0.1,0.3,0.2c0,0.2,0.1,0.4,0.2,0.6L259.2,63.5z M255.4,56.9c0,0-0.1,0.1-0.1,0.2l-0.9,3.4
		c0,0.1,0,0.1,0,0.1c0,0,0,0,0,0.1c0,0.1,0,0.1,0.1,0.1h1.8c0,0,0.1,0,0.1,0c0,0,0.1-0.1,0.1-0.1c0,0,0-0.1,0-0.2l-1-3.3
		C255.5,56.9,255.5,56.9,255.4,56.9z"/>
	<path class="st2" d="M268.3,64.1c0,0.2,0,0.4,0,0.5c0,0.1,0,0.2,0.1,0.3c0,0.1,0.1,0.1,0.1,0.2s0.2,0.1,0.3,0.1
		c0.1,0,0.2,0.1,0.3,0.1c0.1,0,0.2,0,0.3,0c0.1,0,0.1,0,0.2,0.1s0.1,0.1,0.1,0.2c0,0.2-0.1,0.3-0.4,0.3c-0.1,0-0.3,0-0.6-0.1
		c-0.3,0-0.7-0.1-1.1-0.1c-0.5,0-0.9,0-1.1,0.1c-0.3,0-0.5,0.1-0.6,0.1c-0.3,0-0.4-0.1-0.4-0.3c0-0.1,0-0.2,0.1-0.2
		c0,0,0.1-0.1,0.2-0.1c0.1,0,0.1,0,0.2,0s0.2,0,0.3,0c0.1,0,0.3-0.1,0.3-0.1s0.1-0.1,0.2-0.2c0-0.1,0.1-0.2,0.1-0.3
		c0-0.1,0-0.3,0-0.5v-8.7c0-0.3,0-0.5-0.1-0.6c0-0.1-0.2-0.2-0.3-0.3c-0.1,0-0.2-0.1-0.3-0.1c-0.1,0-0.2,0-0.3,0
		c-0.1,0-0.1,0-0.2-0.1c0,0-0.1-0.1-0.1-0.2c0-0.2,0.1-0.3,0.3-0.3c0.1,0,0.3,0,0.6,0.1c0.3,0.1,0.7,0.1,1.2,0.1
		c0.5,0,0.9,0,1.2-0.1c0.3,0,0.5-0.1,0.6-0.1c0.2,0,0.3,0.1,0.3,0.3c0,0.1,0,0.1-0.1,0.2s-0.1,0.1-0.2,0.1c-0.1,0-0.2,0-0.3,0
		c-0.1,0-0.2,0-0.3,0c-0.2,0.1-0.4,0.1-0.4,0.3c0,0.1-0.1,0.3-0.1,0.6V64.1z"/>
	<path class="st2" d="M278.9,56.1c0,0.2,0,0.4-0.1,0.4c0,0.1-0.1,0.1-0.2,0.1c-0.1,0-0.1,0-0.2-0.1s-0.1-0.2-0.1-0.3
		c0-0.1-0.1-0.2-0.1-0.4c0-0.2-0.1-0.3-0.1-0.5c-0.2-0.4-0.4-0.7-0.7-0.8s-0.7-0.2-1.3-0.2h-0.3c-0.1,0-0.1,0-0.2,0.1
		s-0.1,0.1-0.1,0.2v9.3c0,0.2,0,0.4,0,0.5c0,0.1,0,0.2,0.1,0.3s0.1,0.1,0.1,0.2c0.1,0.1,0.2,0.1,0.3,0.1c0.1,0,0.2,0.1,0.3,0.1
		c0.1,0,0.2,0,0.3,0s0.1,0,0.2,0.1c0,0,0.1,0.1,0.1,0.2c0,0.2-0.1,0.3-0.4,0.3c-0.2,0-0.4,0-0.7-0.1s-0.6-0.1-1-0.1
		c-0.4,0-0.7,0-1,0.1c-0.3,0-0.5,0.1-0.7,0.1c-0.3,0-0.4-0.1-0.4-0.3c0-0.1,0-0.2,0.1-0.2c0,0,0.1-0.1,0.2-0.1c0.1,0,0.2,0,0.3,0
		c0.1,0,0.2,0,0.3-0.1c0.2-0.1,0.4-0.2,0.4-0.3s0.1-0.4,0.1-0.8v-9.3c0-0.1,0-0.2-0.1-0.2c0-0.1-0.1-0.1-0.2-0.1h-0.5
		c-0.4,0-0.7,0.1-0.9,0.2c-0.2,0.2-0.5,0.4-0.7,0.7c-0.2,0.4-0.4,0.7-0.5,0.9s-0.2,0.3-0.4,0.3h0c0,0-0.1,0-0.1,0s0-0.1,0-0.2
		c0,0,0-0.1,0-0.1c0-0.1,0-0.1,0.1-0.2L271,54c0.1-0.3,0.1-0.5,0.1-0.7s0.1-0.3,0.2-0.3c0,0,0.1,0,0.1,0.1s0.1,0.1,0.1,0.2
		c0,0.1,0.1,0.2,0.1,0.2c0,0.1,0.1,0.1,0.1,0.1c0.1,0.1,0.4,0.2,0.9,0.2c0.2,0,0.4,0,0.6,0s0.5,0,0.7,0h2.2c0.3,0,0.6,0,0.8,0
		c0.2,0,0.4,0,0.6,0c0.3,0,0.5,0,0.6-0.1c0.1-0.1,0.2-0.1,0.2-0.2c0.1-0.1,0.1-0.2,0.1-0.3c0-0.1,0.1-0.2,0.1-0.2
		c0-0.1,0.1-0.1,0.1-0.1c0.1,0,0.1,0,0.2,0.1c0,0.1,0,0.2,0,0.2v0.2L278.9,56.1z"/>
	<path class="st2" d="M285.9,63.5c0.1,0.4,0.3,0.8,0.4,1.1c0.1,0.3,0.3,0.5,0.5,0.6c0.2,0.1,0.3,0.2,0.5,0.2c0.1,0,0.2,0.1,0.2,0.2
		c0,0.2-0.1,0.3-0.4,0.3c-0.2,0-0.4,0-0.6-0.1c-0.2,0-0.6-0.1-0.9-0.1c-0.5,0-0.9,0-1.2,0c-0.3,0-0.5,0-0.6,0
		c-0.2,0-0.3-0.1-0.3-0.2c0-0.2,0.1-0.3,0.4-0.3c0.3,0,0.5,0,0.6-0.1s0.1-0.2,0.1-0.4c0-0.2-0.1-0.4-0.2-0.9l-0.7-2.4
		c0-0.1-0.1-0.2-0.3-0.2h-2.3c0,0-0.1,0-0.1,0c0,0-0.1,0.1-0.1,0.1l-0.4,1.7c-0.2,0.7-0.3,1.2-0.3,1.5c0,0.2,0,0.3,0.1,0.4
		c0.1,0.1,0.2,0.1,0.4,0.1c0.2,0,0.4,0.1,0.5,0.1c0.1,0.1,0.2,0.1,0.2,0.3c0,0.2-0.1,0.2-0.3,0.2c-0.1,0-0.3,0-0.6-0.1
		c-0.3,0-0.6-0.1-1-0.1c-0.3,0-0.5,0-0.7,0c-0.2,0-0.4,0-0.5,0c-0.2,0-0.3-0.1-0.3-0.2c0-0.1,0-0.2,0.1-0.2c0.1,0,0.1-0.1,0.2-0.1
		c0.1,0,0.2,0,0.3,0c0.1,0,0.2-0.1,0.3-0.1c0.2-0.1,0.3-0.3,0.4-0.5s0.2-0.5,0.3-0.9l2.9-9.8c0-0.1,0.1-0.2,0.1-0.3
		c0-0.1,0.1-0.1,0.2-0.1c0.1,0,0.2,0.1,0.3,0.2c0,0.2,0.1,0.4,0.2,0.6L285.9,63.5z M282.2,56.9c0,0-0.1,0.1-0.1,0.2l-0.9,3.4
		c0,0.1,0,0.1,0,0.1c0,0,0,0,0,0.1c0,0.1,0,0.1,0.1,0.1h1.8c0,0,0.1,0,0.1,0c0,0,0.1-0.1,0.1-0.1c0,0,0-0.1,0-0.2l-1-3.3
		C282.2,56.9,282.2,56.9,282.2,56.9z"/>
	<path class="st2" d="M290.7,64.1c0,0.8,0.4,1.2,1.2,1.2c0.4,0,0.7-0.1,1-0.3s0.6-0.4,0.8-0.8c0.3-0.4,0.5-0.7,0.6-0.9
		c0.1-0.2,0.2-0.4,0.3-0.4c0,0,0.1,0,0.1,0.1c0,0,0.1,0.1,0.1,0.1c0,0,0,0.1,0,0.1c0,0.1,0,0.1,0,0.2l-0.2,1.8c0,0.1,0,0.2,0,0.2
		s0,0.1,0,0.1c0,0.2-0.1,0.3-0.4,0.3c-0.4,0-0.9,0-1.7-0.1c-0.7-0.1-1.6-0.1-2.7-0.1c-0.5,0-0.9,0-1.1,0.1c-0.3,0-0.5,0.1-0.6,0.1
		c-0.3,0-0.4-0.1-0.4-0.3c0-0.1,0-0.2,0.1-0.2s0.1-0.1,0.2-0.1c0.1,0,0.1,0,0.2,0c0.1,0,0.2,0,0.3,0c0.1,0,0.3-0.1,0.3-0.1
		s0.1-0.1,0.2-0.2c0-0.1,0.1-0.2,0.1-0.3c0-0.1,0-0.3,0-0.5v-8.7c0-0.3,0-0.5-0.1-0.6c0-0.1-0.1-0.2-0.3-0.3c-0.1,0-0.2-0.1-0.3-0.1
		c-0.1,0-0.2,0-0.2,0s-0.1,0-0.2-0.1c0,0-0.1-0.1-0.1-0.2c0-0.2,0.1-0.3,0.2-0.3c0.1,0,0.3,0,0.5,0.1c0.3,0.1,0.6,0.1,1.1,0.1
		c0.5,0,1,0,1.3-0.1c0.3,0,0.5-0.1,0.6-0.1c0.2,0,0.3,0.1,0.3,0.3c0,0.1,0,0.1-0.1,0.2s-0.1,0.1-0.2,0.1c-0.1,0-0.2,0-0.3,0
		c-0.1,0-0.2,0-0.3,0c-0.2,0.1-0.4,0.1-0.4,0.3c0,0.1-0.1,0.3-0.1,0.6V64.1z"/>
	<path class="st2" d="M298.5,64.1c0,0.2,0,0.4,0,0.5c0,0.1,0,0.2,0.1,0.3s0.1,0.1,0.1,0.2c0.1,0.1,0.2,0.1,0.3,0.1
		c0.1,0,0.2,0.1,0.3,0.1s0.2,0,0.3,0c0.1,0,0.1,0,0.2,0.1c0,0,0.1,0.1,0.1,0.2c0,0.2-0.1,0.3-0.4,0.3c-0.1,0-0.3,0-0.6-0.1
		c-0.3,0-0.7-0.1-1.1-0.1s-0.9,0-1.1,0.1c-0.3,0-0.5,0.1-0.6,0.1c-0.3,0-0.4-0.1-0.4-0.3c0-0.1,0-0.2,0.1-0.2c0,0,0.1-0.1,0.2-0.1
		c0.1,0,0.1,0,0.2,0c0.1,0,0.2,0,0.3,0c0.1,0,0.3-0.1,0.3-0.1c0.1-0.1,0.1-0.1,0.2-0.2s0.1-0.2,0.1-0.3c0-0.1,0-0.3,0-0.5v-8.7
		c0-0.3,0-0.5-0.1-0.6s-0.2-0.2-0.3-0.3c-0.1,0-0.2-0.1-0.3-0.1c-0.1,0-0.2,0-0.3,0c-0.1,0-0.1,0-0.2-0.1c0,0-0.1-0.1-0.1-0.2
		c0-0.2,0.1-0.3,0.3-0.3c0.1,0,0.3,0,0.6,0.1c0.3,0.1,0.7,0.1,1.2,0.1s0.9,0,1.2-0.1c0.3,0,0.5-0.1,0.6-0.1c0.2,0,0.3,0.1,0.3,0.3
		c0,0.1,0,0.1-0.1,0.2c0,0-0.1,0.1-0.2,0.1c-0.1,0-0.2,0-0.3,0c-0.1,0-0.2,0-0.3,0c-0.2,0.1-0.4,0.1-0.4,0.3c0,0.1-0.1,0.3-0.1,0.6
		V64.1z"/>
	<path class="st2" d="M307.9,63.5c0.1,0.4,0.3,0.8,0.4,1.1c0.1,0.3,0.3,0.5,0.5,0.6c0.2,0.1,0.3,0.2,0.5,0.2s0.2,0.1,0.2,0.2
		c0,0.2-0.1,0.3-0.4,0.3c-0.2,0-0.4,0-0.6-0.1s-0.6-0.1-0.9-0.1c-0.5,0-0.9,0-1.2,0c-0.3,0-0.5,0-0.6,0c-0.2,0-0.3-0.1-0.3-0.2
		c0-0.2,0.1-0.3,0.4-0.3c0.3,0,0.5,0,0.6-0.1s0.1-0.2,0.1-0.4c0-0.2-0.1-0.4-0.2-0.9l-0.7-2.4c0-0.1-0.1-0.2-0.3-0.2H303
		c0,0-0.1,0-0.1,0c0,0-0.1,0.1-0.1,0.1l-0.4,1.7c-0.2,0.7-0.3,1.2-0.3,1.5c0,0.2,0,0.3,0.1,0.4c0.1,0.1,0.2,0.1,0.4,0.1
		c0.2,0,0.4,0.1,0.5,0.1c0.1,0.1,0.2,0.1,0.2,0.3c0,0.2-0.1,0.2-0.3,0.2c-0.1,0-0.3,0-0.6-0.1s-0.6-0.1-1-0.1c-0.3,0-0.5,0-0.7,0
		c-0.2,0-0.4,0-0.5,0c-0.2,0-0.3-0.1-0.3-0.2c0-0.1,0-0.2,0.1-0.2s0.1-0.1,0.2-0.1c0.1,0,0.2,0,0.3,0c0.1,0,0.2-0.1,0.3-0.1
		c0.2-0.1,0.3-0.3,0.4-0.5c0.1-0.2,0.2-0.5,0.3-0.9l2.9-9.8c0-0.1,0.1-0.2,0.1-0.3c0-0.1,0.1-0.1,0.2-0.1c0.1,0,0.2,0.1,0.3,0.2
		c0,0.2,0.1,0.4,0.2,0.6L307.9,63.5z M304.1,56.9c0,0-0.1,0.1-0.1,0.2l-0.9,3.4c0,0.1,0,0.1,0,0.1c0,0,0,0,0,0.1
		c0,0.1,0,0.1,0.1,0.1h1.8c0,0,0.1,0,0.1,0s0.1-0.1,0.1-0.1c0,0,0-0.1,0-0.2l-1-3.3C304.2,56.9,304.1,56.9,304.1,56.9z"/>
</g>
<g class="st4">
	<path class="st2" d="M168.1,77c0.6,0.3,1.1,0.8,1.6,1.3c0.4,0.6,0.8,1.2,1.1,2s0.4,1.6,0.4,2.5c0,0.9-0.1,1.7-0.4,2.5
		c-0.3,0.8-0.6,1.4-1.1,2c-0.5,0.6-1,1-1.6,1.3c-0.6,0.3-1.3,0.5-1.9,0.5c-0.7,0-1.3-0.2-1.9-0.5c-0.6-0.3-1.1-0.8-1.6-1.3
		s-0.8-1.2-1.1-2c-0.3-0.8-0.4-1.6-0.4-2.5c0-0.9,0.1-1.7,0.4-2.5s0.6-1.4,1.1-2c0.4-0.6,1-1,1.6-1.3c0.6-0.3,1.3-0.5,1.9-0.5
		C166.9,76.5,167.5,76.7,168.1,77z M164.9,77.4c-0.4,0.2-0.7,0.6-1,1.1c-0.3,0.5-0.5,1-0.7,1.7c-0.2,0.7-0.2,1.5-0.2,2.4
		c0,1,0.1,1.8,0.2,2.6c0.2,0.8,0.4,1.4,0.7,1.9c0.3,0.5,0.6,0.9,1,1.2c0.4,0.3,0.8,0.4,1.3,0.4c0.4,0,0.8-0.1,1.2-0.4s0.7-0.6,1-1.1
		c0.3-0.5,0.5-1.1,0.7-1.7c0.2-0.7,0.2-1.5,0.2-2.4c0-1-0.1-1.8-0.3-2.5s-0.4-1.4-0.7-1.9c-0.3-0.5-0.6-0.9-1-1.2
		c-0.4-0.3-0.8-0.4-1.3-0.4C165.7,77.1,165.3,77.2,164.9,77.4z"/>
	<path class="st2" d="M174.8,81.4c0,0.1,0,0.1,0.1,0.1c0,0,0.1,0,0.1-0.1l0.2-0.2c0.3-0.4,0.6-0.7,0.9-0.8c0.3-0.2,0.7-0.3,1-0.3
		c0.4,0,0.8,0.1,1.1,0.3c0.4,0.2,0.7,0.5,0.9,0.9c0.3,0.4,0.5,0.8,0.6,1.3c0.2,0.5,0.2,1.1,0.2,1.8c0,0.7-0.1,1.4-0.3,1.9
		c-0.2,0.6-0.4,1.1-0.7,1.5c-0.3,0.4-0.7,0.8-1.1,1c-0.4,0.2-0.9,0.4-1.5,0.4c-0.6,0-1.1-0.1-1.5-0.4l-0.1,0.1l0,2.7
		c0,0.2,0,0.4,0.1,0.5c0,0.1,0.1,0.2,0.3,0.3c0.1,0.1,0.2,0.1,0.3,0.1c0.1,0,0.2,0,0.3,0c0.1,0,0.1,0,0.2,0.1c0,0,0.1,0.1,0.1,0.2
		c0,0.2-0.1,0.3-0.4,0.3c-0.2,0-0.5,0-0.7-0.1c-0.3,0-0.5-0.1-0.8-0.1s-0.6,0-0.8,0.1c-0.2,0-0.4,0.1-0.6,0.1
		c-0.2,0-0.3-0.1-0.3-0.3c0-0.2,0.1-0.3,0.2-0.3c0.1,0,0.3,0,0.5-0.1c0.2-0.1,0.3-0.2,0.3-0.3c0.1-0.1,0.1-0.3,0.1-0.6v-8.6
		c0-0.3,0-0.6-0.1-0.7s-0.2-0.2-0.3-0.2c-0.1,0-0.2,0-0.3-0.1c-0.1,0-0.1-0.1-0.1-0.2c0-0.2,0.1-0.3,0.3-0.3
		c0.2-0.1,0.4-0.2,0.7-0.4c0.3-0.3,0.6-0.5,0.7-0.7c0.2-0.2,0.3-0.3,0.4-0.3c0.1,0,0.2,0.1,0.2,0.4V81.4z M175.2,88.2
		c0.2,0.3,0.6,0.4,1,0.4c0.3,0,0.7-0.1,0.9-0.3c0.3-0.2,0.5-0.4,0.7-0.8c0.2-0.3,0.4-0.7,0.5-1.2c0.1-0.5,0.2-0.9,0.2-1.5
		c0-1.1-0.2-2-0.7-2.6c-0.4-0.6-1-0.9-1.7-0.9c-0.5,0-0.9,0.2-1.1,0.5c-0.2,0.3-0.3,0.8-0.3,1.4v3.6C174.8,87.5,174.9,88,175.2,88.2
		z"/>
	<path class="st2" d="M183.1,83.5c-0.1,0-0.2,0-0.2,0.1c0,0,0,0.1,0,0.2v0.5c0,1.2,0.2,2.1,0.7,2.8c0.5,0.7,1.1,1,1.8,1
		c0.3,0,0.6-0.1,0.9-0.2c0.2-0.1,0.4-0.2,0.6-0.4c0.2-0.1,0.3-0.3,0.4-0.4s0.2-0.2,0.2-0.2c0.1,0,0.1,0.1,0.1,0.2
		c0,0.1-0.1,0.3-0.2,0.6c-0.1,0.2-0.3,0.5-0.6,0.7s-0.6,0.4-0.9,0.6c-0.4,0.2-0.8,0.2-1.2,0.2c-0.5,0-0.9-0.1-1.3-0.3
		c-0.4-0.2-0.7-0.5-1-0.9s-0.5-0.9-0.7-1.4c-0.2-0.6-0.2-1.2-0.2-1.9c0-0.7,0.1-1.3,0.3-1.9c0.2-0.6,0.4-1,0.7-1.4
		c0.3-0.4,0.7-0.7,1.1-0.9c0.4-0.2,0.9-0.3,1.4-0.3c0.4,0,0.8,0.1,1.2,0.2c0.4,0.2,0.7,0.4,0.9,0.6s0.4,0.6,0.6,0.9
		c0.1,0.4,0.2,0.7,0.2,1.1c0,0.2,0,0.3-0.1,0.3c-0.1,0.1-0.2,0.1-0.5,0.1H183.1z M185.6,82.7c0.3-0.1,0.4-0.4,0.4-0.8
		c0-0.3-0.1-0.6-0.4-0.9c-0.2-0.3-0.6-0.4-0.9-0.4c-0.4,0-0.8,0.2-1.1,0.5c-0.3,0.3-0.5,0.8-0.6,1.3l-0.1,0.3v0
		c0,0.1,0.1,0.2,0.2,0.2h1.1C184.9,82.9,185.3,82.8,185.6,82.7z"/>
	<path class="st2" d="M191.1,81.2c0,0.1,0,0.2,0.1,0.2c0,0,0.1,0,0.2-0.1l0.4-0.4c0.4-0.5,0.8-0.7,1.2-0.7c0.3,0,0.6,0.1,0.8,0.4
		c0.2,0.3,0.3,0.6,0.3,1c0,0.3-0.1,0.5-0.2,0.7c-0.2,0.2-0.4,0.3-0.6,0.3c-0.2,0-0.3,0-0.5-0.1c-0.1-0.1-0.2-0.2-0.4-0.3
		c-0.1-0.1-0.2-0.2-0.3-0.3c-0.1-0.1-0.2-0.1-0.3-0.1c-0.4,0-0.7,0.6-0.7,1.8v4.1c0,0.2,0,0.4,0.1,0.5c0,0.1,0.1,0.2,0.3,0.3
		c0.1,0.1,0.3,0.1,0.4,0.1c0.1,0,0.2,0,0.3,0.1c0.1,0,0.1,0,0.2,0.1c0,0,0.1,0.1,0.1,0.2c0,0.1,0,0.1-0.1,0.2
		c-0.1,0.1-0.2,0.1-0.3,0.1c-0.2,0-0.5,0-0.8-0.1c-0.3,0-0.6-0.1-0.9-0.1c-0.3,0-0.5,0-0.8,0.1s-0.5,0.1-0.6,0.1
		c-0.2,0-0.3-0.1-0.3-0.3c0-0.1,0-0.1,0.1-0.2c0,0,0.1-0.1,0.1-0.1c0.1,0,0.1,0,0.2,0c0.1,0,0.2,0,0.3-0.1c0.2-0.1,0.3-0.2,0.3-0.3
		c0-0.1,0-0.2,0-0.4v-4.9c0-0.2,0-0.4-0.1-0.5s-0.2-0.1-0.2-0.2s-0.2,0-0.2-0.1c-0.1,0-0.1-0.1-0.1-0.2c0-0.1,0.1-0.2,0.2-0.3
		c0.2-0.1,0.4-0.2,0.6-0.4c0.3-0.3,0.6-0.5,0.7-0.7s0.3-0.3,0.4-0.3c0.1,0,0.2,0.1,0.2,0.4V81.2z"/>
	<path class="st2" d="M199.7,86.7c0,0.4,0,0.7,0.1,0.9s0.2,0.3,0.4,0.3c0.1,0,0.2-0.1,0.4-0.2c0.1-0.1,0.2-0.2,0.3-0.2
		c0.1,0,0.2,0.1,0.2,0.3c0,0.1-0.1,0.2-0.2,0.4c-0.1,0.1-0.2,0.3-0.4,0.4c-0.1,0.1-0.3,0.3-0.5,0.4s-0.3,0.2-0.5,0.2
		c-0.3,0-0.6-0.1-0.8-0.3c-0.2-0.2-0.4-0.5-0.5-1h-0.1l-0.4,0.3c-0.3,0.3-0.6,0.5-0.9,0.7c-0.3,0.2-0.6,0.3-0.9,0.3
		c-0.4,0-0.7-0.1-0.9-0.4c-0.2-0.3-0.3-0.6-0.3-1.1c0-0.4,0.1-0.8,0.2-1.1c0.1-0.3,0.3-0.6,0.6-0.9s0.5-0.5,0.9-0.7s0.7-0.5,1.2-0.7
		l0.4-0.2c0.1-0.1,0.2-0.1,0.2-0.2s0-0.2,0-0.3v-1.3c0-0.5,0-0.9-0.1-1.2c-0.1-0.2-0.3-0.4-0.6-0.4s-0.5,0.1-0.7,0.3
		c-0.2,0.2-0.3,0.5-0.5,0.9c-0.1,0.3-0.3,0.6-0.4,0.8c-0.2,0.2-0.4,0.3-0.8,0.3c-0.1,0-0.2,0-0.2-0.1c-0.1-0.1-0.1-0.1-0.1-0.2
		c0-0.3,0.1-0.6,0.2-0.9c0.2-0.3,0.4-0.6,0.7-0.9c0.3-0.3,0.6-0.5,1-0.6c0.4-0.2,0.8-0.3,1.3-0.3c0.4,0,0.7,0,0.9,0.1
		c0.2,0.1,0.4,0.2,0.5,0.4s0.2,0.4,0.2,0.7c0,0.3,0.1,0.6,0.1,0.9V86.7z M198.1,84.6c0,0-0.1,0-0.2,0.1l-0.6,0.3c-0.7,0.4-1,1-1,1.9
		c0,0.4,0.1,0.6,0.2,0.8c0.1,0.2,0.3,0.3,0.5,0.3c0.1,0,0.3,0,0.4-0.1c0.1-0.1,0.3-0.2,0.4-0.3c0.1-0.1,0.2-0.3,0.3-0.5
		c0.1-0.2,0.1-0.4,0.1-0.7v-1.5C198.2,84.7,198.2,84.6,198.1,84.6z"/>
	<path class="st2" d="M203.9,80.2c0,0.2,0.1,0.2,0.2,0.2h1.3c0.1,0,0.2,0,0.2,0c0,0,0,0.1,0,0.2v0.4c0,0.1,0,0.2,0,0.2
		c0,0-0.1,0.1-0.2,0.1h-1.3c-0.1,0-0.2,0.1-0.2,0.2v4.8c0,0.6,0.1,1,0.2,1.3c0.1,0.3,0.3,0.4,0.6,0.4c0.1,0,0.2,0,0.3-0.1
		c0.1-0.1,0.2-0.1,0.3-0.2s0.2-0.1,0.2-0.2c0.1-0.1,0.1-0.1,0.2-0.1c0.1,0,0.2,0.1,0.2,0.3c0,0.1-0.1,0.2-0.2,0.4
		c-0.1,0.2-0.3,0.3-0.4,0.5c-0.2,0.2-0.4,0.3-0.6,0.4s-0.5,0.2-0.8,0.2c-0.9,0-1.4-0.8-1.4-2.4V86l0.1-4.1c0-0.2,0-0.3,0-0.4
		c0-0.1-0.1-0.2-0.2-0.2h-0.3c-0.2,0-0.3-0.1-0.3-0.2c0-0.1,0-0.1,0.1-0.2c0.1-0.1,0.1-0.1,0.2-0.2c0.1-0.1,0.2-0.2,0.4-0.3
		c0.1-0.1,0.3-0.3,0.4-0.5c0.3-0.4,0.5-0.7,0.6-0.9c0.1-0.3,0.2-0.4,0.4-0.4c0.1,0,0.1,0,0.1,0.1c0,0.1,0,0.2,0,0.3V80.2z"/>
	<path class="st2" d="M207,82.8c0.2-0.6,0.4-1,0.8-1.4c0.3-0.4,0.7-0.7,1.2-0.9s1-0.3,1.5-0.3c0.5,0,1,0.1,1.5,0.3
		c0.4,0.2,0.8,0.5,1.1,0.9s0.6,0.9,0.7,1.4c0.2,0.6,0.3,1.2,0.3,1.9c0,0.7-0.1,1.3-0.3,1.8c-0.2,0.6-0.4,1-0.8,1.4s-0.7,0.7-1.2,0.9
		c-0.5,0.2-1,0.3-1.6,0.3c-0.5,0-1-0.1-1.4-0.3s-0.8-0.5-1.1-0.9c-0.3-0.4-0.6-0.9-0.7-1.4c-0.2-0.6-0.3-1.2-0.3-1.8
		C206.7,84,206.8,83.4,207,82.8z M208.8,81.7c-0.4,0.6-0.5,1.6-0.5,2.8c0,1.3,0.2,2.4,0.6,3.1c0.4,0.8,0.9,1.1,1.5,1.1
		c0.6,0,1.2-0.3,1.5-1s0.6-1.6,0.6-2.7c0-1.3-0.2-2.4-0.6-3.1s-0.9-1.1-1.5-1.1C209.7,80.7,209.2,81,208.8,81.7z"/>
	<path class="st2" d="M217.5,81.2c0,0.1,0,0.2,0.1,0.2c0,0,0.1,0,0.2-0.1l0.4-0.4c0.4-0.5,0.8-0.7,1.2-0.7c0.3,0,0.6,0.1,0.8,0.4
		c0.2,0.3,0.3,0.6,0.3,1c0,0.3-0.1,0.5-0.2,0.7c-0.2,0.2-0.4,0.3-0.6,0.3c-0.2,0-0.3,0-0.5-0.1c-0.1-0.1-0.2-0.2-0.4-0.3
		c-0.1-0.1-0.2-0.2-0.3-0.3c-0.1-0.1-0.2-0.1-0.3-0.1c-0.4,0-0.7,0.6-0.7,1.8v4.1c0,0.2,0,0.4,0.1,0.5c0,0.1,0.1,0.2,0.3,0.3
		c0.1,0.1,0.3,0.1,0.4,0.1c0.1,0,0.2,0,0.3,0.1c0.1,0,0.1,0,0.2,0.1c0,0,0.1,0.1,0.1,0.2c0,0.1,0,0.1-0.1,0.2s-0.2,0.1-0.3,0.1
		c-0.2,0-0.5,0-0.8-0.1c-0.3,0-0.6-0.1-0.9-0.1c-0.3,0-0.5,0-0.8,0.1s-0.5,0.1-0.6,0.1c-0.2,0-0.3-0.1-0.3-0.3c0-0.1,0-0.1,0.1-0.2
		c0,0,0.1-0.1,0.1-0.1c0.1,0,0.1,0,0.2,0c0.1,0,0.2,0,0.3-0.1c0.2-0.1,0.3-0.2,0.3-0.3c0-0.1,0-0.2,0-0.4v-4.9c0-0.2,0-0.4-0.1-0.5
		s-0.2-0.1-0.2-0.2c-0.1,0-0.2,0-0.2-0.1c-0.1,0-0.1-0.1-0.1-0.2c0-0.1,0.1-0.2,0.2-0.3c0.2-0.1,0.4-0.2,0.6-0.4
		c0.3-0.3,0.6-0.5,0.7-0.7c0.2-0.2,0.3-0.3,0.4-0.3c0.1,0,0.2,0.1,0.2,0.4V81.2z"/>
	<path class="st2" d="M222.9,83.5c-0.1,0-0.2,0-0.2,0.1c0,0,0,0.1,0,0.2v0.5c0,1.2,0.2,2.1,0.7,2.8s1.1,1,1.8,1
		c0.3,0,0.6-0.1,0.9-0.2c0.2-0.1,0.4-0.2,0.6-0.4c0.2-0.1,0.3-0.3,0.4-0.4c0.1-0.1,0.2-0.2,0.2-0.2c0.1,0,0.1,0.1,0.1,0.2
		c0,0.1-0.1,0.3-0.2,0.6s-0.3,0.5-0.6,0.7s-0.6,0.4-0.9,0.6c-0.4,0.2-0.8,0.2-1.2,0.2c-0.5,0-0.9-0.1-1.3-0.3s-0.7-0.5-1-0.9
		s-0.5-0.9-0.7-1.4c-0.2-0.6-0.2-1.2-0.2-1.9c0-0.7,0.1-1.3,0.3-1.9c0.2-0.6,0.4-1,0.7-1.4s0.7-0.7,1.1-0.9c0.4-0.2,0.9-0.3,1.4-0.3
		c0.4,0,0.8,0.1,1.2,0.2s0.7,0.4,0.9,0.6c0.2,0.3,0.4,0.6,0.6,0.9c0.1,0.4,0.2,0.7,0.2,1.1c0,0.2,0,0.3-0.1,0.3
		c-0.1,0.1-0.2,0.1-0.5,0.1H222.9z M225.4,82.7c0.3-0.1,0.4-0.4,0.4-0.8c0-0.3-0.1-0.6-0.4-0.9c-0.2-0.3-0.6-0.4-0.9-0.4
		c-0.4,0-0.8,0.2-1.1,0.5s-0.5,0.8-0.6,1.3l-0.1,0.3v0c0,0.1,0.1,0.2,0.2,0.2h1.1C224.7,82.9,225.2,82.8,225.4,82.7z"/>
	<path class="st2" d="M237.3,80.3c0.2,0.1,0.5,0.2,0.6,0.3c0.2,0.1,0.3,0.2,0.4,0.4c0.1,0.1,0.2,0.3,0.2,0.5c0,0.5,0,0.9-0.1,1.1
		c-0.1,0.3-0.2,0.4-0.3,0.4c-0.2,0-0.3-0.2-0.5-0.6c-0.1-0.2-0.2-0.5-0.3-0.7s-0.2-0.4-0.3-0.5c-0.1-0.1-0.2-0.2-0.3-0.3
		c-0.1-0.1-0.3-0.1-0.4-0.1c-0.2,0-0.4,0.1-0.7,0.3c-0.2,0.2-0.4,0.4-0.6,0.7c-0.2,0.3-0.3,0.7-0.4,1.2c-0.1,0.5-0.2,1-0.2,1.6
		c0,0.6,0.1,1.1,0.2,1.6s0.3,0.9,0.5,1.2s0.5,0.6,0.8,0.7c0.3,0.2,0.6,0.3,1,0.3c0.2,0,0.4,0,0.6-0.1c0.2-0.1,0.3-0.2,0.5-0.3
		c0.1-0.1,0.2-0.2,0.3-0.3c0.1-0.1,0.1-0.1,0.2-0.1c0.2,0,0.2,0.1,0.2,0.2c0,0.1-0.1,0.3-0.2,0.4c-0.1,0.2-0.3,0.4-0.5,0.5
		c-0.2,0.2-0.5,0.3-0.8,0.4s-0.6,0.2-1,0.2c-0.5,0-0.9-0.1-1.3-0.3s-0.7-0.5-1-0.9c-0.3-0.4-0.5-0.9-0.7-1.4s-0.2-1.2-0.2-1.9
		c0-0.7,0.1-1.3,0.3-1.9c0.2-0.6,0.4-1,0.8-1.4c0.3-0.4,0.7-0.7,1.1-0.9c0.4-0.2,0.9-0.3,1.4-0.3C236.7,80.2,237,80.2,237.3,80.3z"
		/>
	<path class="st2" d="M240,82.8c0.2-0.6,0.4-1,0.8-1.4c0.3-0.4,0.7-0.7,1.2-0.9c0.5-0.2,1-0.3,1.5-0.3c0.5,0,1,0.1,1.5,0.3
		c0.4,0.2,0.8,0.5,1.1,0.9c0.3,0.4,0.6,0.9,0.7,1.4c0.2,0.6,0.3,1.2,0.3,1.9c0,0.7-0.1,1.3-0.3,1.8c-0.2,0.6-0.4,1-0.8,1.4
		s-0.7,0.7-1.2,0.9s-1,0.3-1.6,0.3c-0.5,0-1-0.1-1.4-0.3c-0.4-0.2-0.8-0.5-1.1-0.9s-0.6-0.9-0.7-1.4s-0.3-1.2-0.3-1.8
		C239.7,84,239.8,83.4,240,82.8z M241.8,81.7c-0.4,0.6-0.5,1.6-0.5,2.8c0,1.3,0.2,2.4,0.6,3.1c0.4,0.8,0.9,1.1,1.5,1.1
		c0.6,0,1.2-0.3,1.5-1s0.6-1.6,0.6-2.7c0-1.3-0.2-2.4-0.6-3.1s-0.9-1.1-1.5-1.1C242.7,80.7,242.2,81,241.8,81.7z"/>
	<path class="st2" d="M250.6,81.3c0,0.2,0,0.2,0.1,0.2c0,0,0.1,0,0.1-0.1l0.2-0.2c0.2-0.3,0.5-0.6,0.9-0.8s0.7-0.3,1-0.3
		c0.7,0,1.3,0.3,1.7,0.8c0.4,0.5,0.6,1.3,0.6,2.4v4.1c0,0.4,0.1,0.7,0.3,0.8c0.1,0.1,0.2,0.1,0.3,0.1c0.1,0,0.2,0,0.2,0
		c0.1,0,0.1,0,0.2,0.1c0,0,0.1,0.1,0.1,0.2c0,0.2-0.1,0.3-0.3,0.3c-0.2,0-0.4,0-0.6-0.1c-0.2,0-0.5-0.1-0.8-0.1
		c-0.3,0-0.6,0-0.8,0.1c-0.2,0-0.4,0.1-0.5,0.1c-0.2,0-0.3-0.1-0.3-0.3c0-0.1,0-0.2,0-0.2c0,0,0.1-0.1,0.1-0.1c0.1,0,0.1,0,0.2,0
		c0.1,0,0.1,0,0.2-0.1c0.1-0.1,0.2-0.2,0.2-0.3s0-0.3,0-0.5v-3.8c0-0.8-0.1-1.3-0.4-1.7c-0.3-0.4-0.6-0.6-1.1-0.6
		c-0.5,0-0.8,0.2-1.1,0.5c-0.3,0.3-0.4,0.8-0.4,1.5v4.1c0,0.2,0,0.4,0,0.5c0,0.1,0.1,0.2,0.2,0.3c0.1,0.1,0.2,0.1,0.3,0.1
		c0.1,0,0.2,0,0.2,0c0.1,0,0.1,0,0.1,0.1c0,0,0.1,0.1,0.1,0.2c0,0.2-0.1,0.3-0.3,0.3c-0.2,0-0.4,0-0.6-0.1c-0.2,0-0.5-0.1-0.8-0.1
		c-0.3,0-0.6,0-0.8,0.1c-0.2,0-0.4,0.1-0.5,0.1c-0.2,0-0.3-0.1-0.3-0.3c0-0.1,0-0.2,0-0.2c0,0,0.1-0.1,0.1-0.1c0,0,0.1,0,0.2,0
		c0.1,0,0.1,0,0.2-0.1c0.1-0.1,0.2-0.2,0.2-0.3s0.1-0.3,0.1-0.6v-4.5c0-0.3,0-0.6-0.1-0.7s-0.2-0.2-0.3-0.2c-0.1,0-0.2,0-0.3,0
		c-0.1,0-0.1-0.1-0.1-0.2s0.1-0.2,0.2-0.3c0.2-0.1,0.4-0.2,0.7-0.4c0.3-0.2,0.6-0.4,0.7-0.6c0.1-0.2,0.3-0.3,0.4-0.3
		c0,0,0.1,0,0.1,0.1c0,0.1,0.1,0.2,0.1,0.3V81.3z"/>
	<path class="st2" d="M259.2,80.2c0,0.2,0.1,0.2,0.2,0.2h1.3c0.1,0,0.2,0,0.2,0s0,0.1,0,0.2v0.4c0,0.1,0,0.2,0,0.2s-0.1,0.1-0.2,0.1
		h-1.3c-0.1,0-0.2,0.1-0.2,0.2v4.8c0,0.6,0,1,0.2,1.3c0.1,0.3,0.3,0.4,0.6,0.4c0.1,0,0.2,0,0.3-0.1c0.1-0.1,0.2-0.1,0.3-0.2
		s0.2-0.1,0.2-0.2s0.1-0.1,0.2-0.1c0.1,0,0.2,0.1,0.2,0.3c0,0.1-0.1,0.2-0.2,0.4c-0.1,0.2-0.2,0.3-0.4,0.5c-0.2,0.2-0.4,0.3-0.6,0.4
		c-0.2,0.1-0.5,0.2-0.8,0.2c-0.9,0-1.4-0.8-1.4-2.4V86l0.1-4.1c0-0.2,0-0.3,0-0.4c0-0.1-0.1-0.2-0.2-0.2h-0.3
		c-0.2,0-0.3-0.1-0.3-0.2c0-0.1,0-0.1,0.1-0.2c0.1-0.1,0.1-0.1,0.2-0.2s0.2-0.2,0.4-0.3c0.1-0.1,0.3-0.3,0.4-0.5
		c0.3-0.4,0.5-0.7,0.6-0.9s0.2-0.4,0.4-0.4c0.1,0,0.1,0,0.1,0.1c0,0.1,0,0.2,0,0.3V80.2z"/>
	<path class="st2" d="M264.2,81.2c0,0.1,0,0.2,0.1,0.2c0,0,0.1,0,0.2-0.1l0.4-0.4c0.4-0.5,0.8-0.7,1.2-0.7c0.3,0,0.6,0.1,0.8,0.4
		c0.2,0.3,0.3,0.6,0.3,1c0,0.3-0.1,0.5-0.2,0.7c-0.2,0.2-0.4,0.3-0.6,0.3c-0.2,0-0.3,0-0.5-0.1c-0.1-0.1-0.2-0.2-0.4-0.3
		c-0.1-0.1-0.2-0.2-0.3-0.3c-0.1-0.1-0.2-0.1-0.3-0.1c-0.4,0-0.7,0.6-0.7,1.8v4.1c0,0.2,0,0.4,0.1,0.5c0,0.1,0.1,0.2,0.3,0.3
		c0.1,0.1,0.3,0.1,0.4,0.1c0.1,0,0.2,0,0.3,0.1c0.1,0,0.1,0,0.2,0.1c0,0,0.1,0.1,0.1,0.2c0,0.1,0,0.1-0.1,0.2s-0.2,0.1-0.3,0.1
		c-0.2,0-0.5,0-0.8-0.1c-0.3,0-0.6-0.1-0.9-0.1c-0.3,0-0.5,0-0.8,0.1s-0.5,0.1-0.6,0.1c-0.2,0-0.3-0.1-0.3-0.3c0-0.1,0-0.1,0.1-0.2
		c0,0,0.1-0.1,0.1-0.1c0.1,0,0.1,0,0.2,0c0.1,0,0.2,0,0.3-0.1c0.2-0.1,0.3-0.2,0.3-0.3c0-0.1,0-0.2,0-0.4v-4.9c0-0.2,0-0.4-0.1-0.5
		s-0.2-0.1-0.2-0.2c-0.1,0-0.2,0-0.2-0.1c-0.1,0-0.1-0.1-0.1-0.2c0-0.1,0.1-0.2,0.2-0.3c0.2-0.1,0.4-0.2,0.6-0.4
		c0.3-0.3,0.6-0.5,0.7-0.7c0.2-0.2,0.3-0.3,0.4-0.3c0.1,0,0.2,0.1,0.2,0.4V81.2z"/>
	<path class="st2" d="M268.1,82.8c0.2-0.6,0.4-1,0.8-1.4s0.7-0.7,1.2-0.9c0.5-0.2,1-0.3,1.5-0.3c0.5,0,1,0.1,1.5,0.3
		c0.4,0.2,0.8,0.5,1.1,0.9c0.3,0.4,0.6,0.9,0.7,1.4c0.2,0.6,0.3,1.2,0.3,1.9c0,0.7-0.1,1.3-0.3,1.8c-0.2,0.6-0.4,1-0.8,1.4
		c-0.3,0.4-0.7,0.7-1.2,0.9s-1,0.3-1.6,0.3c-0.5,0-1-0.1-1.4-0.3s-0.8-0.5-1.1-0.9c-0.3-0.4-0.6-0.9-0.7-1.4s-0.3-1.2-0.3-1.8
		C267.8,84,267.9,83.4,268.1,82.8z M270,81.7c-0.4,0.6-0.5,1.6-0.5,2.8c0,1.3,0.2,2.4,0.6,3.1c0.4,0.8,0.9,1.1,1.5,1.1
		c0.6,0,1.2-0.3,1.5-1s0.6-1.6,0.6-2.7c0-1.3-0.2-2.4-0.6-3.1c-0.4-0.8-0.9-1.1-1.5-1.1C270.8,80.7,270.3,81,270,81.7z"/>
	<path class="st2" d="M278.7,87.4c0,0.4,0.1,0.7,0.3,0.8c0.1,0.1,0.2,0.1,0.3,0.1c0.1,0,0.2,0,0.3,0s0.1,0,0.2,0.1s0.1,0.1,0.1,0.2
		c0,0.2-0.1,0.3-0.4,0.3c-0.2,0-0.4,0-0.7-0.1s-0.5-0.1-0.8-0.1c-0.3,0-0.6,0-0.8,0.1c-0.2,0-0.4,0.1-0.6,0.1
		c-0.2,0-0.3-0.1-0.3-0.3c0-0.2,0.1-0.3,0.2-0.3c0.1,0,0.3,0,0.5-0.1c0.2-0.1,0.3-0.1,0.3-0.3c0-0.1,0.1-0.3,0.1-0.4v-9.9
		c0-0.2,0-0.3-0.1-0.4c-0.1-0.1-0.2-0.1-0.3-0.2c-0.1,0-0.2-0.1-0.3-0.1c-0.1,0-0.1-0.1-0.1-0.2c0-0.1,0.1-0.2,0.2-0.3
		c0.2,0,0.3-0.1,0.6-0.2c0.4-0.2,0.7-0.3,0.9-0.5c0.2-0.1,0.3-0.2,0.4-0.2c0.1,0,0.2,0,0.2,0.1s0,0.2,0,0.3c0,0.2,0,0.4,0,0.6
		s0,0.5,0,0.7V87.4z"/>
	<path class="st2" d="M283,87.4c0,0.4,0.1,0.7,0.3,0.8c0.1,0.1,0.2,0.1,0.3,0.1c0.1,0,0.2,0,0.3,0s0.1,0,0.2,0.1
		c0,0,0.1,0.1,0.1,0.2c0,0.2-0.1,0.3-0.4,0.3c-0.2,0-0.4,0-0.7-0.1s-0.5-0.1-0.8-0.1c-0.3,0-0.6,0-0.8,0.1s-0.4,0.1-0.6,0.1
		c-0.2,0-0.3-0.1-0.3-0.3c0-0.2,0.1-0.3,0.2-0.3c0.1,0,0.3,0,0.5-0.1c0.2-0.1,0.3-0.1,0.3-0.3c0-0.1,0.1-0.3,0.1-0.4v-9.9
		c0-0.2,0-0.3-0.1-0.4c-0.1-0.1-0.2-0.1-0.3-0.2c-0.1,0-0.2-0.1-0.3-0.1c-0.1,0-0.1-0.1-0.1-0.2c0-0.1,0.1-0.2,0.2-0.3
		c0.2,0,0.3-0.1,0.6-0.2c0.4-0.2,0.7-0.3,0.9-0.5c0.2-0.1,0.3-0.2,0.4-0.2c0.1,0,0.2,0,0.2,0.1s0,0.2,0,0.3c0,0.2,0,0.4,0,0.6
		s0,0.5,0,0.7V87.4z"/>
	<path class="st2" d="M290.1,86.7c0,0.4,0,0.7,0.1,0.9c0,0.2,0.2,0.3,0.4,0.3c0.1,0,0.2-0.1,0.4-0.2c0.1-0.1,0.2-0.2,0.3-0.2
		c0.1,0,0.2,0.1,0.2,0.3c0,0.1-0.1,0.2-0.2,0.4c-0.1,0.1-0.2,0.3-0.4,0.4c-0.1,0.1-0.3,0.3-0.5,0.4c-0.2,0.1-0.3,0.2-0.5,0.2
		c-0.3,0-0.6-0.1-0.8-0.3c-0.2-0.2-0.4-0.5-0.5-1h-0.1l-0.4,0.3c-0.3,0.3-0.6,0.5-0.9,0.7s-0.6,0.3-0.9,0.3c-0.4,0-0.7-0.1-0.9-0.4
		c-0.2-0.3-0.3-0.6-0.3-1.1c0-0.4,0.1-0.8,0.2-1.1c0.1-0.3,0.3-0.6,0.6-0.9c0.2-0.3,0.5-0.5,0.9-0.7c0.3-0.2,0.7-0.5,1.2-0.7
		l0.4-0.2c0.1-0.1,0.2-0.1,0.2-0.2s0-0.2,0-0.3v-1.3c0-0.5,0-0.9-0.1-1.2c-0.1-0.2-0.3-0.4-0.6-0.4c-0.3,0-0.6,0.1-0.7,0.3
		c-0.2,0.2-0.3,0.5-0.5,0.9c-0.1,0.3-0.3,0.6-0.4,0.8c-0.2,0.2-0.4,0.3-0.8,0.3c-0.1,0-0.2,0-0.2-0.1c-0.1-0.1-0.1-0.1-0.1-0.2
		c0-0.3,0.1-0.6,0.2-0.9c0.2-0.3,0.4-0.6,0.7-0.9c0.3-0.3,0.6-0.5,1-0.6c0.4-0.2,0.8-0.3,1.3-0.3c0.4,0,0.7,0,0.9,0.1
		c0.2,0.1,0.4,0.2,0.5,0.4c0.1,0.2,0.2,0.4,0.2,0.7c0,0.3,0.1,0.6,0.1,0.9V86.7z M288.6,84.6c0,0-0.1,0-0.2,0.1l-0.6,0.3
		c-0.7,0.4-1,1-1,1.9c0,0.4,0.1,0.6,0.2,0.8s0.3,0.3,0.5,0.3c0.1,0,0.3,0,0.4-0.1c0.1-0.1,0.3-0.2,0.4-0.3c0.1-0.1,0.2-0.3,0.3-0.5
		c0.1-0.2,0.1-0.4,0.1-0.7v-1.5C288.7,84.7,288.6,84.6,288.6,84.6z"/>
	<path class="st2" d="M294.3,80.2c0,0.2,0.1,0.2,0.2,0.2h1.3c0.1,0,0.2,0,0.2,0c0,0,0,0.1,0,0.2v0.4c0,0.1,0,0.2,0,0.2
		c0,0-0.1,0.1-0.2,0.1h-1.3c-0.1,0-0.2,0.1-0.2,0.2v4.8c0,0.6,0,1,0.2,1.3c0.1,0.3,0.3,0.4,0.6,0.4c0.1,0,0.2,0,0.3-0.1
		s0.2-0.1,0.3-0.2c0.1-0.1,0.2-0.1,0.2-0.2c0.1-0.1,0.1-0.1,0.2-0.1c0.1,0,0.2,0.1,0.2,0.3c0,0.1-0.1,0.2-0.2,0.4
		c-0.1,0.2-0.3,0.3-0.4,0.5c-0.2,0.2-0.4,0.3-0.6,0.4c-0.2,0.1-0.5,0.2-0.8,0.2c-0.9,0-1.4-0.8-1.4-2.4V86l0.1-4.1
		c0-0.2,0-0.3,0-0.4s-0.1-0.2-0.2-0.2h-0.3c-0.2,0-0.3-0.1-0.3-0.2c0-0.1,0-0.1,0.1-0.2c0.1-0.1,0.1-0.1,0.2-0.2
		c0.1-0.1,0.2-0.2,0.4-0.3c0.1-0.1,0.3-0.3,0.4-0.5c0.3-0.4,0.5-0.7,0.6-0.9c0.1-0.3,0.2-0.4,0.4-0.4c0.1,0,0.1,0,0.1,0.1
		c0,0.1,0,0.2,0,0.3V80.2z"/>
	<path class="st2" d="M297.4,82.8c0.2-0.6,0.4-1,0.8-1.4s0.7-0.7,1.2-0.9s1-0.3,1.5-0.3c0.5,0,1,0.1,1.5,0.3
		c0.4,0.2,0.8,0.5,1.1,0.9s0.6,0.9,0.7,1.4c0.2,0.6,0.3,1.2,0.3,1.9c0,0.7-0.1,1.3-0.3,1.8c-0.2,0.6-0.4,1-0.8,1.4
		c-0.3,0.4-0.7,0.7-1.2,0.9c-0.5,0.2-1,0.3-1.6,0.3c-0.5,0-1-0.1-1.4-0.3c-0.4-0.2-0.8-0.5-1.1-0.9s-0.6-0.9-0.7-1.4
		c-0.2-0.6-0.3-1.2-0.3-1.8C297.1,84,297.2,83.4,297.4,82.8z M299.3,81.7c-0.4,0.6-0.5,1.6-0.5,2.8c0,1.3,0.2,2.4,0.6,3.1
		c0.4,0.8,0.9,1.1,1.5,1.1c0.6,0,1.2-0.3,1.5-1s0.6-1.6,0.6-2.7c0-1.3-0.2-2.4-0.6-3.1c-0.4-0.8-0.9-1.1-1.5-1.1
		C300.1,80.7,299.6,81,299.3,81.7z"/>
	<path class="st2" d="M312.2,81.3c0,0.2,0,0.2,0.1,0.2s0.1,0,0.1-0.1l0.2-0.2c0.2-0.3,0.5-0.6,0.9-0.8c0.3-0.2,0.7-0.3,1-0.3
		c0.7,0,1.3,0.3,1.7,0.8c0.4,0.5,0.6,1.3,0.6,2.4v4.1c0,0.4,0.1,0.7,0.3,0.8c0.1,0.1,0.2,0.1,0.3,0.1c0.1,0,0.2,0,0.2,0
		c0.1,0,0.1,0,0.2,0.1c0,0,0.1,0.1,0.1,0.2c0,0.2-0.1,0.3-0.3,0.3c-0.2,0-0.4,0-0.6-0.1c-0.2,0-0.5-0.1-0.8-0.1s-0.6,0-0.8,0.1
		c-0.2,0-0.4,0.1-0.5,0.1c-0.2,0-0.3-0.1-0.3-0.3c0-0.1,0-0.2,0-0.2c0,0,0.1-0.1,0.1-0.1c0.1,0,0.1,0,0.2,0c0.1,0,0.1,0,0.2-0.1
		c0.1-0.1,0.2-0.2,0.2-0.3s0-0.3,0-0.5v-3.8c0-0.8-0.1-1.3-0.4-1.7c-0.3-0.4-0.6-0.6-1.1-0.6c-0.5,0-0.8,0.2-1.1,0.5
		c-0.3,0.3-0.4,0.8-0.4,1.5v4.1c0,0.2,0,0.4,0,0.5c0,0.1,0.1,0.2,0.2,0.3c0.1,0.1,0.2,0.1,0.3,0.1c0.1,0,0.2,0,0.2,0
		c0.1,0,0.1,0,0.2,0.1c0,0,0.1,0.1,0.1,0.2c0,0.2-0.1,0.3-0.3,0.3c-0.2,0-0.4,0-0.6-0.1c-0.2,0-0.5-0.1-0.8-0.1
		c-0.3,0-0.6,0-0.8,0.1c-0.2,0-0.4,0.1-0.5,0.1c-0.2,0-0.3-0.1-0.3-0.3c0-0.1,0-0.2,0-0.2c0,0,0.1-0.1,0.1-0.1c0,0,0.1,0,0.2,0
		c0.1,0,0.1,0,0.2-0.1c0.1-0.1,0.2-0.2,0.2-0.3c0-0.1,0.1-0.3,0.1-0.6v-4.5c0-0.3,0-0.6-0.1-0.7c-0.1-0.1-0.2-0.2-0.3-0.2
		s-0.2,0-0.3,0c-0.1,0-0.1-0.1-0.1-0.2s0.1-0.2,0.2-0.3c0.2-0.1,0.4-0.2,0.7-0.4c0.3-0.2,0.6-0.4,0.7-0.6c0.1-0.2,0.3-0.3,0.4-0.3
		c0,0,0.1,0,0.1,0.1c0,0.1,0.1,0.2,0.1,0.3V81.3z"/>
	<path class="st2" d="M320.7,87.3c0.2,0.2,0.2,0.4,0.2,0.7c0,0.3-0.1,0.5-0.2,0.7c-0.2,0.2-0.3,0.3-0.5,0.3s-0.4-0.1-0.5-0.3
		c-0.2-0.2-0.2-0.4-0.2-0.7c0-0.3,0.1-0.5,0.2-0.7s0.3-0.3,0.5-0.3S320.6,87.1,320.7,87.3z"/>
</g>
<g class="st4">
	<path class="st2" d="M328,86.5c0,0.4,0,0.8,0.1,1.1c0.1,0.3,0.2,0.4,0.4,0.5c0.1,0.1,0.3,0.1,0.4,0.1c0.2,0,0.3,0,0.4,0
		s0.2,0,0.3,0.1c0.1,0,0.1,0.1,0.1,0.3c0,0.2-0.1,0.3-0.2,0.3c-0.1,0-0.3,0-0.7-0.1c-0.4,0-1-0.1-1.9-0.1c-0.5,0-0.9,0-1.2,0.1
		s-0.5,0.1-0.7,0.1c-0.2,0-0.3-0.1-0.3-0.3c0-0.1,0-0.2,0.1-0.2s0.1-0.1,0.2-0.1s0.2,0,0.3,0c0.1,0,0.3,0,0.5,0
		c0.3,0,0.5-0.2,0.5-0.4c0.1-0.2,0.1-0.6,0.1-1.1v-7.4c0-0.4,0-0.6,0-0.8c0-0.2-0.1-0.2-0.2-0.2c-0.1,0-0.2,0-0.4,0.1
		c-0.1,0.1-0.3,0.1-0.4,0.2c-0.1,0.1-0.3,0.1-0.4,0.2c-0.1,0.1-0.2,0.1-0.3,0.1c-0.2,0-0.2-0.1-0.2-0.2c0-0.2,0.1-0.3,0.4-0.4
		s0.6-0.2,1-0.4c0.4-0.2,0.7-0.3,0.9-0.4c0.3-0.1,0.5-0.3,0.6-0.4c0.2-0.1,0.3-0.2,0.4-0.2c0.1-0.1,0.1-0.1,0.2-0.1
		c0.2,0,0.2,0.1,0.2,0.4c0,0.1,0,0.3,0,0.4c0,0.2,0,0.4,0,0.6V86.5z"/>
	<path class="st2" d="M336.3,77c0.4,0.3,0.8,0.7,1.1,1.2c0.3,0.5,0.6,1.2,0.7,2c0.2,0.8,0.3,1.7,0.3,2.7c0,1-0.1,1.9-0.3,2.7
		c-0.2,0.8-0.4,1.4-0.7,2c-0.3,0.5-0.7,0.9-1.1,1.2c-0.4,0.3-0.8,0.4-1.3,0.4s-0.9-0.1-1.3-0.4c-0.4-0.3-0.8-0.7-1.1-1.2
		c-0.3-0.5-0.6-1.2-0.7-2c-0.2-0.8-0.3-1.7-0.3-2.7c0-1,0.1-1.9,0.3-2.7c0.2-0.8,0.4-1.4,0.7-2c0.3-0.5,0.7-0.9,1.1-1.2
		c0.4-0.3,0.8-0.4,1.3-0.4S335.8,76.7,336.3,77z M333.6,78.5c-0.3,1-0.4,2.4-0.4,4.4c0,2,0.1,3.4,0.4,4.4s0.7,1.4,1.4,1.4
		s1.1-0.5,1.3-1.4c0.3-1,0.4-2.4,0.4-4.4s-0.1-3.4-0.4-4.4s-0.7-1.4-1.4-1.4C334.3,77.1,333.9,77.6,333.6,78.5z"/>
	<path class="st2" d="M341.4,86.7c-0.1,0.1-0.1,0.1-0.1,0.2c0,0.1,0.1,0.1,0.2,0.1h2.8c0.3,0,0.5,0,0.6-0.1c0.1,0,0.2-0.1,0.3-0.3
		c0-0.1,0.1-0.2,0.1-0.3s0-0.2,0.1-0.3c0-0.1,0.1-0.2,0.1-0.2c0-0.1,0.1-0.1,0.2-0.1c0.1,0,0.1,0.1,0.2,0.2s0,0.2,0,0.4v1.8
		c0,0.3,0,0.6-0.1,0.6c-0.1,0.1-0.2,0.1-0.5,0.1h-4.8c0,0-0.1,0-0.1,0c0,0-0.1,0-0.1,0c-0.3,0-0.4-0.1-0.4-0.4c0-0.1,0-0.3,0.1-0.4
		s0.2-0.3,0.3-0.5l2.3-3.6c0.5-0.8,0.9-1.6,1.3-2.2s0.5-1.3,0.5-1.9c0-0.8-0.2-1.4-0.5-1.8s-0.7-0.6-1.2-0.6c-0.3,0-0.6,0.1-0.9,0.3
		c-0.3,0.2-0.5,0.5-0.8,0.9c-0.2,0.3-0.3,0.5-0.4,0.6c-0.1,0.2-0.2,0.2-0.3,0.2c-0.1,0-0.2-0.1-0.2-0.2c0-0.2,0.1-0.4,0.2-0.7
		c0.1-0.3,0.4-0.6,0.6-0.9c0.3-0.3,0.6-0.5,1-0.8s0.8-0.3,1.3-0.3c0.4,0,0.8,0.1,1.1,0.2c0.3,0.2,0.6,0.4,0.9,0.6
		c0.3,0.3,0.5,0.6,0.6,1c0.1,0.4,0.2,0.8,0.2,1.3c0,0.5-0.1,1-0.3,1.4c-0.2,0.5-0.4,0.9-0.7,1.4c-0.2,0.3-0.6,0.7-1.1,1.3
		s-1.2,1.4-2,2.4L341.4,86.7z"/>
	<path class="st2" d="M349.4,86.7c-0.1,0.1-0.1,0.1-0.1,0.2c0,0.1,0.1,0.1,0.2,0.1h2.8c0.3,0,0.5,0,0.6-0.1c0.1,0,0.2-0.1,0.3-0.3
		c0-0.1,0.1-0.2,0.1-0.3c0-0.1,0-0.2,0.1-0.3c0-0.1,0.1-0.2,0.1-0.2c0-0.1,0.1-0.1,0.2-0.1c0.1,0,0.1,0.1,0.2,0.2s0,0.2,0,0.4v1.8
		c0,0.3,0,0.6-0.1,0.6c-0.1,0.1-0.2,0.1-0.5,0.1h-4.8c0,0-0.1,0-0.1,0c0,0-0.1,0-0.1,0c-0.3,0-0.4-0.1-0.4-0.4c0-0.1,0-0.3,0.1-0.4
		c0.1-0.1,0.2-0.3,0.3-0.5l2.3-3.6c0.5-0.8,0.9-1.6,1.3-2.2s0.5-1.3,0.5-1.9c0-0.8-0.2-1.4-0.5-1.8s-0.7-0.6-1.2-0.6
		c-0.3,0-0.6,0.1-0.9,0.3s-0.5,0.5-0.8,0.9c-0.2,0.3-0.3,0.5-0.4,0.6c-0.1,0.2-0.2,0.2-0.3,0.2c-0.1,0-0.2-0.1-0.2-0.2
		c0-0.2,0.1-0.4,0.2-0.7c0.1-0.3,0.4-0.6,0.6-0.9c0.3-0.3,0.6-0.5,1-0.8s0.8-0.3,1.3-0.3c0.4,0,0.8,0.1,1.1,0.2
		c0.3,0.2,0.6,0.4,0.9,0.6c0.3,0.3,0.5,0.6,0.6,1c0.1,0.4,0.2,0.8,0.2,1.3c0,0.5-0.1,1-0.3,1.4c-0.2,0.5-0.4,0.9-0.7,1.4
		c-0.2,0.3-0.6,0.7-1.1,1.3c-0.5,0.6-1.2,1.4-2,2.4L349.4,86.7z"/>
	<path class="st2" d="M356,79c0.2-0.5,0.4-0.9,0.7-1.3c0.3-0.4,0.6-0.7,1-0.9s0.8-0.3,1.2-0.3c0.5,0,0.9,0.1,1.3,0.4
		c0.4,0.2,0.8,0.6,1.1,1.1c0.3,0.5,0.6,1,0.8,1.6c0.2,0.6,0.3,1.3,0.3,2.1c0,1.4-0.3,2.8-1,4s-1.6,2.4-2.8,3.3
		c-0.7,0.5-1.3,0.9-1.8,1.2c-0.5,0.2-0.7,0.4-0.8,0.4c-0.1,0-0.2-0.1-0.2-0.3c0-0.1,0-0.2,0.2-0.2c0.1-0.1,0.2-0.2,0.4-0.3
		s0.4-0.2,0.6-0.4s0.5-0.3,0.7-0.6c1-0.9,1.8-2.1,2.3-3.3c0.6-1.3,0.8-2.6,0.8-4c0-0.7-0.1-1.3-0.2-1.8c-0.1-0.6-0.3-1-0.5-1.4
		c-0.2-0.4-0.4-0.7-0.7-0.9s-0.5-0.3-0.7-0.3c-0.2,0-0.4,0.1-0.6,0.2c-0.2,0.2-0.4,0.4-0.5,0.6s-0.3,0.6-0.4,1s-0.1,0.8-0.1,1.3
		c0,0.5,0.1,1,0.2,1.4c0.1,0.4,0.3,0.8,0.4,1.1c0.2,0.3,0.4,0.5,0.6,0.7s0.5,0.2,0.7,0.2c0.2,0,0.4,0,0.5-0.2
		c0.1-0.1,0.2-0.2,0.3-0.2c0.1,0,0.1,0.1,0.1,0.2c0,0.1,0,0.2-0.1,0.3c-0.1,0.1-0.2,0.2-0.4,0.3s-0.3,0.2-0.5,0.2s-0.4,0.1-0.5,0.1
		c-0.4,0-0.8-0.1-1.1-0.3c-0.3-0.2-0.6-0.4-0.9-0.8c-0.3-0.3-0.5-0.7-0.6-1.2c-0.1-0.5-0.2-1-0.2-1.5C355.7,80.1,355.8,79.5,356,79z
		"/>
	<path class="st2" d="M368.6,77c0.4,0.3,0.8,0.7,1.1,1.2c0.3,0.5,0.5,1.2,0.7,2c0.2,0.8,0.3,1.7,0.3,2.7c0,1-0.1,1.9-0.3,2.7
		s-0.4,1.4-0.7,2c-0.3,0.5-0.7,0.9-1.1,1.2c-0.4,0.3-0.8,0.4-1.3,0.4c-0.5,0-0.9-0.1-1.3-0.4c-0.4-0.3-0.8-0.7-1.1-1.2
		c-0.3-0.5-0.6-1.2-0.7-2s-0.3-1.7-0.3-2.7c0-1,0.1-1.9,0.3-2.7c0.2-0.8,0.4-1.4,0.7-2c0.3-0.5,0.7-0.9,1.1-1.2
		c0.4-0.3,0.8-0.4,1.3-0.4C367.7,76.5,368.1,76.7,368.6,77z M365.9,78.5c-0.3,1-0.4,2.4-0.4,4.4c0,2,0.1,3.4,0.4,4.4
		c0.3,1,0.7,1.4,1.4,1.4c0.6,0,1.1-0.5,1.3-1.4c0.3-1,0.4-2.4,0.4-4.4s-0.1-3.4-0.4-4.4c-0.3-1-0.7-1.4-1.4-1.4
		C366.6,77.1,366.2,77.6,365.9,78.5z"/>
</g>
</svg>
