<?xml version="1.0" encoding="utf-8"?>
<!-- Generator: Adobe Illustrator 21.1.0, SVG Export Plug-In . SVG Version: 6.00 Build 0)  -->
<svg version="1.1" xmlns="http://www.w3.org/2000/svg" xmlns:xlink="http://www.w3.org/1999/xlink" x="0px" y="0px"
	 viewBox="0 0 243.2 181.7" style="enable-background:new 0 0 243.2 181.7;" xml:space="preserve">
<style type="text/css">
	.st0{fill:#8DC740;}
	.st1{fill:#FFFFFF;stroke:#FFFFFF;stroke-miterlimit:10;}
	.st2{fill:#8EC741;}
</style>
<g id="Livello_2">
	<rect x="-4" y="-3" width="269.2" height="187.8"/>
</g>
<g id="Layer_1">
	<rect x="1628.4" y="17.7" style="fill:none;" width="751.4" height="459.3"/>
	<text transform="matrix(1 0 0 1 1885.3733 78.4584)"><tspan x="0" y="0" style="font-family:'Antonio-Regular'; font-size:70px; letter-spacing:2;">SUITABLE </tspan><tspan x="75" y="110" style="font-family:'Antonio-Regular'; font-size:50px; letter-spacing:11;">FOR</tspan><tspan x="174" y="110" style="font-family:'Antonio-Regular'; font-size:70px; letter-spacing:2;"> </tspan><tspan x="18.4" y="220" style="font-family:'Antonio-Regular'; font-size:70px; letter-spacing:2;">VEGANS</tspan></text>
	<path class="st0" d="M94.8,72.2c0,0-31.7,11-27.1,62.4c-1.8-6.9-0.7-24.3-7.2-39.4C47.9,66.1,25.3,48.9,25.3,48.9
		s-7.2,38.2,4.3,67.7c11.5,29.5,29.3,43.1,37.2,39.1c0.7-0.4,1.4-0.9,2-1.7c4.5-4.3,12.3-19.8,17.1-39.1
		C92,91.4,94.8,72.2,94.8,72.2z"/>
	<g>
		<path class="st1" d="M66.7,38.1c0.9,0.5,1.3,1.2,1.3,2.1c0,1.3-0.1,2.2-0.2,2.8c-0.1,0.6-0.4,0.9-0.7,0.9c-0.4,0-0.7-0.3-0.7-0.8
			c-0.1-0.5-0.3-1.1-0.8-1.9c-0.9-1.6-2.2-2.3-3.7-2.3c-1.1,0-2,0.3-2.6,0.9c-0.7,0.6-1,1.4-1,2.3c0,0.6,0.1,1.1,0.4,1.5
			c0.3,0.4,0.6,0.8,1.1,1.2c0.5,0.4,1.1,0.7,1.8,1.1s1.5,0.7,2.3,1.2c1.8,0.9,3.2,2,4.1,3.2c0.9,1.2,1.3,2.7,1.3,4.4
			c0,1.4-0.2,2.6-0.7,3.7c-0.4,1.1-1,2-1.8,2.7c-0.8,0.7-1.7,1.3-2.8,1.7c-1.1,0.4-2.3,0.6-3.5,0.6c-1.3,0-2.4-0.1-3.4-0.4
			s-1.8-0.6-2.3-0.9c-0.3-0.2-0.5-0.4-0.6-0.7c-0.1-0.3-0.1-0.7-0.1-1.2v-1.4c0-1.5,0-2.6,0.1-3.2c0.1-0.7,0.3-1,0.7-1
			c0.3,0,0.5,0.1,0.6,0.3c0.1,0.2,0.2,0.4,0.3,0.8c0.1,0.3,0.2,0.8,0.3,1.3c0.1,0.5,0.3,1,0.7,1.7c1.1,2.2,2.6,3.3,4.5,3.3
			c1.2,0,2.2-0.4,3-1.2c0.8-0.8,1.2-1.9,1.2-3.2c0-0.7-0.1-1.3-0.4-1.8c-0.2-0.5-0.6-1-1.1-1.4c-0.5-0.4-1-0.8-1.7-1.2
			c-0.7-0.4-1.4-0.8-2.3-1.2c-0.9-0.5-1.8-0.9-2.5-1.4c-0.7-0.5-1.3-0.9-1.8-1.5c-0.5-0.5-0.9-1.1-1.1-1.8c-0.2-0.7-0.4-1.5-0.4-2.4
			c0-2.3,0.7-4,2.2-5.4c1.5-1.3,3.3-2,5.6-2C64.2,37.4,65.8,37.6,66.7,38.1z"/>
		<path class="st1" d="M81.1,53.8c0,2,0.4,3.5,1.3,4.6c0.9,1.1,2,1.7,3.5,1.7c1.5,0,2.7-0.5,3.6-1.4c0.9-0.9,1.4-2.4,1.4-4.4V42.4
			c0-0.6-0.1-1.1-0.2-1.4c-0.1-0.3-0.3-0.5-0.7-0.8c-0.3-0.2-0.6-0.3-0.9-0.4c-0.3-0.1-0.5-0.1-0.7-0.2c-0.2-0.1-0.4-0.1-0.5-0.2
			c-0.1-0.1-0.2-0.3-0.2-0.6c0-0.6,0.3-0.9,1-0.9c0.4,0,0.9,0.1,1.6,0.2c0.7,0.1,1.5,0.2,2.5,0.2c0.5,0,1,0,1.3-0.1
			c0.3,0,0.6-0.1,0.8-0.1c0.4,0,0.6,0.1,0.7,0.2c0.1,0.1,0.1,0.4,0.1,0.7v18.4c0,0.9,0.1,1.6,0.4,1.9c0.3,0.3,0.6,0.5,0.9,0.6
			c0.3,0.1,0.6,0.1,0.9,0.1c0.3,0,0.4,0.2,0.4,0.6s-0.2,0.6-0.6,0.8c-0.4,0.2-0.9,0.4-1.6,0.6c-2.4,0.8-3.8,1.2-4.2,1.2
			c-0.5,0-0.7-0.4-0.7-1.1V60c0-0.5-0.1-0.8-0.2-0.8c-0.2,0-0.3,0.1-0.5,0.4l-0.6,0.7c-0.8,0.9-1.7,1.6-2.7,2.1
			c-1.1,0.5-2.1,0.8-3.3,0.8c-2.3,0-4.1-0.7-5.4-2.2c-1.4-1.5-2-3.5-2-6V42.4c0-0.9-0.2-1.5-0.5-1.8c-0.3-0.3-0.7-0.5-1.1-0.7
			c-0.4-0.1-0.8-0.2-1.1-0.3c-0.3-0.1-0.5-0.3-0.5-0.7c0-0.6,0.3-0.9,1-0.9c0.5,0,1.1,0.1,1.7,0.2c0.7,0.1,1.4,0.2,2.3,0.2
			c0.5,0,0.9,0,1.2-0.1c0.3-0.1,0.6-0.1,0.8-0.1c0.4,0,0.6,0.1,0.7,0.2c0.1,0.1,0.1,0.4,0.1,0.7V53.8z"/>
		<path class="st1" d="M110.2,58.3c0,0.7,0.1,1.1,0.2,1.5c0.1,0.3,0.4,0.6,0.7,0.8c0.3,0.1,0.6,0.2,0.9,0.3c0.3,0,0.5,0.1,0.7,0.1
			c0.2,0.1,0.4,0.1,0.5,0.2c0.1,0.1,0.2,0.3,0.2,0.5c0,0.6-0.3,0.9-1,0.9c-0.6,0-1.2-0.1-2-0.2c-0.8-0.1-1.6-0.2-2.5-0.2
			c-1,0-1.8,0.1-2.5,0.2c-0.7,0.1-1.2,0.2-1.6,0.2c-0.6,0-0.8-0.3-0.8-0.9c0-0.3,0-0.4,0.1-0.5c0.1-0.1,0.2-0.2,0.4-0.2
			c0.2,0,0.3-0.1,0.5-0.1c0.2,0,0.4-0.1,0.6-0.2c0.4-0.2,0.7-0.5,0.8-0.8s0.1-0.8,0.1-1.6V45.4c0-1-0.1-1.6-0.4-2
			c-0.2-0.3-0.5-0.5-0.8-0.6c-0.3-0.1-0.5-0.1-0.8-0.2c-0.2,0-0.4-0.2-0.4-0.6c0-0.4,0.3-0.7,0.8-1c0.5-0.3,1.2-0.6,2.2-1.1
			c0.6-0.3,1-0.7,1.4-1c0.4-0.3,0.7-0.6,1-0.9c0.3-0.3,0.5-0.5,0.6-0.6c0.2-0.2,0.3-0.2,0.5-0.2c0.4,0,0.6,0.4,0.6,1.1V58.3z
			 M109.9,28.9c0.5,0.6,0.7,1.3,0.7,2.1c0,0.8-0.2,1.5-0.7,2.1c-0.5,0.6-1.1,0.9-1.8,0.9s-1.3-0.3-1.8-0.9c-0.5-0.6-0.7-1.3-0.7-2.1
			c0-0.8,0.2-1.5,0.7-2.1c0.5-0.6,1.1-0.9,1.8-0.9S109.4,28.2,109.9,28.9z"/>
		<path class="st1" d="M124.2,37.7c0,0.5,0.2,0.7,0.7,0.7h4.2c0.3,0,0.5,0,0.6,0.1c0.1,0.1,0.1,0.2,0.1,0.4V40c0,0.3,0,0.5-0.1,0.6
			c-0.1,0.1-0.3,0.2-0.6,0.2h-4.3c-0.5,0-0.7,0.2-0.7,0.7v13.8c0,1.7,0.2,3,0.5,3.7c0.3,0.8,0.9,1.2,1.8,1.2c0.4,0,0.8-0.1,1.1-0.2
			c0.3-0.1,0.6-0.3,0.9-0.5c0.3-0.2,0.5-0.4,0.7-0.5c0.2-0.1,0.4-0.2,0.6-0.2c0.4,0,0.6,0.3,0.6,0.8c0,0.3-0.2,0.6-0.5,1
			c-0.3,0.4-0.8,0.9-1.4,1.3c-0.6,0.4-1.3,0.8-2,1.1c-0.8,0.3-1.6,0.5-2.5,0.5c-2.9,0-4.4-2.3-4.4-6.9v-2.3l0.2-11.7
			c0-0.5,0-0.9-0.1-1.2c-0.1-0.3-0.3-0.5-0.7-0.5h-1c-0.7,0-1-0.2-1-0.7c0-0.2,0.1-0.4,0.3-0.6c0.2-0.2,0.5-0.4,0.8-0.6
			c0.3-0.2,0.7-0.5,1.2-0.8c0.4-0.3,0.9-0.8,1.4-1.3c0.9-1,1.5-1.9,2-2.6c0.4-0.7,0.8-1.1,1.1-1.1c0.3,0,0.4,0.1,0.5,0.4
			c0.1,0.2,0.1,0.6,0.1,1V37.7z"/>
		<path class="st1" d="M150.1,56.3c0,1.2,0.1,2,0.2,2.6c0.2,0.6,0.5,0.9,1.2,0.9c0.4,0,0.8-0.2,1.1-0.5c0.3-0.4,0.7-0.5,1-0.5
			c0.5,0,0.7,0.3,0.7,0.8c0,0.3-0.2,0.6-0.5,1.1c-0.3,0.4-0.7,0.8-1.2,1.2c-0.5,0.4-1,0.7-1.5,1s-1,0.4-1.5,0.4
			c-1,0-1.8-0.3-2.4-0.9c-0.6-0.6-1.2-1.5-1.6-2.8h-0.3l-1.2,1c-1,0.8-1.9,1.5-2.8,2c-0.9,0.6-1.8,0.8-2.9,0.8
			c-1.2,0-2.2-0.4-2.9-1.2c-0.7-0.8-1.1-1.9-1.1-3.2c0-1.2,0.2-2.3,0.6-3.2c0.4-0.9,1-1.7,1.8-2.5c0.8-0.7,1.7-1.4,2.9-2.1
			s2.4-1.3,3.7-2l1.4-0.7c0.3-0.1,0.5-0.3,0.5-0.5c0.1-0.2,0.1-0.4,0.1-0.8v-3.9c0-1.5-0.1-2.6-0.4-3.3s-0.9-1-1.8-1
			c-1,0-1.8,0.3-2.3,1c-0.6,0.6-1.1,1.5-1.6,2.7c-0.4,0.9-0.9,1.7-1.4,2.3c-0.5,0.6-1.3,1-2.5,1c-0.3,0-0.6-0.1-0.8-0.3
			c-0.2-0.2-0.3-0.4-0.3-0.7c0-0.8,0.3-1.7,0.8-2.6s1.2-1.7,2.2-2.5c0.9-0.7,2-1.4,3.3-1.9c1.3-0.5,2.6-0.7,4.1-0.7
			c1.2,0,2.2,0.1,2.9,0.4c0.7,0.3,1.3,0.7,1.7,1.2c0.4,0.5,0.6,1.2,0.7,2c0.1,0.8,0.2,1.7,0.2,2.7V56.3z M145.1,50.1
			c-0.1,0-0.3,0.1-0.6,0.2l-1.9,0.9c-2.2,1.1-3.3,2.9-3.3,5.5c0,1.1,0.2,1.9,0.6,2.4c0.4,0.5,0.9,0.8,1.6,0.8c0.5,0,0.9-0.1,1.4-0.4
			c0.5-0.2,0.9-0.6,1.2-1c0.4-0.4,0.7-0.9,0.9-1.5c0.2-0.6,0.4-1.2,0.4-2v-4.3C145.4,50.3,145.3,50.1,145.1,50.1z"/>
		<path class="st1" d="M163.5,41.1c0,0.2,0,0.3,0.1,0.3c0.1,0,0.3-0.1,0.5-0.3l0.7-0.7c1.1-1.1,2.1-1.8,3-2.3c0.9-0.5,2-0.7,3.3-0.7
			c1.2,0,2.4,0.3,3.6,0.9c1.1,0.6,2.1,1.4,2.9,2.5c0.8,1.1,1.5,2.4,2,3.9c0.5,1.5,0.7,3.2,0.7,5.1c0,2-0.3,3.9-0.8,5.6
			c-0.6,1.7-1.4,3.1-2.4,4.3c-1,1.2-2.3,2.1-3.7,2.8c-1.4,0.7-3,1-4.7,1c-1,0-1.9-0.1-2.7-0.3c-0.8-0.2-1.4-0.4-2-0.6
			c-0.6-0.2-1-0.4-1.4-0.6c-0.4-0.2-0.7-0.3-1-0.3c-0.3,0-0.6,0.1-0.8,0.4c-0.2,0.3-0.4,0.6-0.6,1c-0.2,0.4-0.4,0.7-0.6,1
			c-0.2,0.3-0.4,0.4-0.7,0.4c-0.4,0-0.6-0.3-0.6-1c0-0.9,0.1-1.9,0.2-3.1c0.2-1.2,0.2-2.6,0.2-4.1v-26c0-0.5-0.1-0.8-0.4-1
			s-0.6-0.4-0.9-0.5c-0.3-0.1-0.6-0.2-0.9-0.4c-0.3-0.1-0.4-0.3-0.4-0.5c0-0.4,0.3-0.7,0.8-0.8c0.5-0.1,1.1-0.3,1.8-0.6
			c1.3-0.5,2.3-0.9,2.9-1.3s1-0.6,1.2-0.6c0.3,0,0.5,0.1,0.6,0.3c0.1,0.2,0.1,0.4,0.1,0.8c0,0.5,0,1.1-0.1,1.7c0,0.6-0.1,1.3-0.1,2
			V41.1z M164.7,60.6c0.8,0.8,1.9,1.3,3.4,1.3c1.1,0,2.1-0.3,3-0.8c0.9-0.5,1.7-1.2,2.4-2.2c0.7-0.9,1.2-2,1.5-3.3
			c0.4-1.3,0.5-2.7,0.5-4.2c0-3.3-0.7-5.8-2.1-7.6c-1.4-1.8-3.2-2.7-5.4-2.7c-1.1,0-2,0.2-2.6,0.5c-0.6,0.4-1.1,0.9-1.4,1.5
			c-0.3,0.7-0.5,1.5-0.5,2.4c-0.1,0.9-0.1,2-0.1,3.1v8.1C163.5,58.5,163.9,59.8,164.7,60.6z"/>
		<path class="st1" d="M192.2,58.2c0,1.2,0.4,2,1.1,2.3c0.3,0.1,0.6,0.2,0.9,0.2c0.3,0,0.6,0,0.8,0.1c0.2,0,0.4,0.1,0.6,0.2
			c0.2,0.1,0.2,0.4,0.2,0.7c0,0.5-0.4,0.8-1.1,0.8c-0.6,0-1.4-0.1-2.2-0.2c-0.8-0.1-1.7-0.2-2.6-0.2c-1,0-1.8,0.1-2.6,0.2
			c-0.8,0.1-1.4,0.2-1.9,0.2c-0.7,0-1-0.3-1-0.9c0-0.5,0.2-0.8,0.6-0.8c0.4,0,0.9-0.1,1.5-0.3c0.5-0.2,0.8-0.4,1-0.7
			c0.1-0.3,0.2-0.7,0.2-1.3V30.2c0-0.5-0.1-0.8-0.4-1c-0.2-0.2-0.5-0.4-0.8-0.5c-0.3-0.1-0.6-0.2-0.8-0.3c-0.2-0.1-0.4-0.3-0.4-0.5
			c0-0.4,0.3-0.7,0.8-0.8c0.5-0.1,1.1-0.3,1.8-0.6c1.3-0.5,2.3-0.9,2.9-1.3c0.6-0.4,1-0.6,1.2-0.6c0.3,0,0.5,0.1,0.6,0.3
			c0.1,0.2,0.1,0.4,0.1,0.8c0,0.5,0,1-0.1,1.6c-0.1,0.6-0.1,1.3-0.1,2.1V58.2z"/>
		<path class="st1" d="M205.2,47c-0.3,0-0.5,0.1-0.6,0.2c-0.1,0.1-0.1,0.3-0.1,0.7v1.3c0,3.4,0.7,6.1,2.2,8s3.4,2.9,5.8,2.9
			c1.1,0,2-0.2,2.7-0.5s1.4-0.7,1.9-1.1c0.5-0.4,0.9-0.8,1.2-1.1s0.5-0.5,0.6-0.5c0.3,0,0.5,0.2,0.5,0.6c0,0.4-0.2,0.9-0.7,1.6
			s-1.1,1.3-2,1.9c-0.8,0.6-1.9,1.2-3,1.7c-1.2,0.5-2.5,0.7-4,0.7c-1.5,0-3-0.3-4.2-0.9c-1.3-0.6-2.3-1.5-3.2-2.6
			c-0.9-1.1-1.6-2.5-2.1-4.1c-0.5-1.6-0.7-3.4-0.7-5.4c0-2,0.3-3.8,0.8-5.4c0.5-1.6,1.3-3,2.3-4.1c1-1.1,2.1-2,3.5-2.6
			c1.3-0.6,2.8-0.9,4.4-0.9c1.4,0,2.6,0.2,3.7,0.7c1.1,0.5,2.1,1.1,2.9,1.8c0.8,0.8,1.4,1.7,1.8,2.7c0.4,1,0.7,2.1,0.7,3.3
			c0,0.5-0.2,0.8-0.5,0.9c-0.3,0.1-0.8,0.2-1.5,0.2H205.2z M213.4,44.7c0.8-0.4,1.3-1.2,1.3-2.4c0-0.9-0.4-1.7-1.2-2.5
			c-0.8-0.8-1.8-1.1-3-1.1c-1.3,0-2.5,0.5-3.4,1.5c-1,1-1.6,2.2-1.9,3.7l-0.2,0.9v0.1c0,0.3,0.2,0.5,0.7,0.5h3.7
			C211.2,45.3,212.6,45.1,213.4,44.7z"/>
		<path class="st1" d="M106.6,81.7c0,0.5,0.2,0.7,0.7,0.7h4.3c0.3,0,0.6,0.1,0.6,0.2c0.1,0.1,0.1,0.4,0.1,0.7v0.3
			c0,0.4,0,0.6-0.1,0.8c-0.1,0.2-0.3,0.2-0.7,0.2h-4.3c-0.5,0-0.7,0.2-0.7,0.7v17c0,0.6,0.1,1.1,0.2,1.4s0.4,0.6,0.8,0.7
			c0.5,0.2,0.9,0.4,1.2,0.4c0.4,0.1,0.7,0.1,1,0.2c0.3,0.1,0.5,0.1,0.6,0.2c0.1,0.1,0.2,0.3,0.2,0.6c0,0.5-0.4,0.8-1.3,0.8
			c-0.8,0-1.6-0.1-2.5-0.2c-0.9-0.1-1.8-0.2-2.8-0.2s-1.8,0.1-2.6,0.2c-0.8,0.1-1.5,0.2-2.2,0.2c-0.7,0-1.1-0.3-1.1-0.9
			c0-0.5,0.2-0.8,0.6-0.7c0.4,0,1-0.1,1.7-0.4c0.5-0.3,0.9-0.5,1-0.9s0.2-0.8,0.2-1.4v-17c0-0.5-0.3-0.7-0.8-0.7h-1
			c-0.2,0-0.4-0.1-0.6-0.2c-0.2-0.2-0.3-0.3-0.3-0.5c0-0.3,0.4-0.7,1.1-1l1-0.5c0.3-0.2,0.6-0.5,0.6-0.9l0.2-2.8
			c0.1-1.6,0.4-3,1-4.2c0.5-1.3,1.2-2.3,2.1-3.2c0.8-0.9,1.8-1.5,2.9-2c1.1-0.5,2.2-0.7,3.3-0.7c1.1,0,2.1,0.2,2.9,0.7
			c0.8,0.5,1.2,1,1.2,1.5c0,0.3-0.1,0.6-0.2,1c-0.1,0.4-0.3,0.8-0.5,1.1c-0.2,0.4-0.4,0.7-0.7,1c-0.3,0.3-0.5,0.4-0.7,0.4
			c-0.4,0-0.7-0.2-1-0.6c-0.3-0.4-0.6-0.8-1-1.3c-0.3-0.5-0.6-0.9-1-1.3c-0.3-0.4-0.7-0.6-1-0.6c-0.8,0-1.4,0.7-1.9,2.1
			c-0.5,1.4-0.8,3.6-0.8,6.4V81.7z"/>
		<path class="st1" d="M115.6,89c0.6-1.6,1.4-3,2.5-4.1c1.1-1.1,2.4-2,3.9-2.6c1.5-0.6,3.2-0.9,5-0.9c1.8,0,3.4,0.3,4.9,1
			c1.5,0.6,2.7,1.5,3.7,2.7c1,1.1,1.8,2.5,2.4,4.1c0.6,1.6,0.8,3.4,0.8,5.3c0,1.9-0.3,3.7-0.9,5.3s-1.4,3-2.5,4.1
			c-1.1,1.1-2.4,2-3.9,2.6c-1.5,0.6-3.3,0.9-5.2,0.9c-1.7,0-3.3-0.3-4.8-1c-1.4-0.6-2.7-1.5-3.7-2.7c-1-1.1-1.8-2.5-2.4-4.1
			c-0.6-1.6-0.8-3.4-0.8-5.3C114.7,92.4,115,90.6,115.6,89z M121.7,85.7c-1.2,1.9-1.8,4.5-1.8,7.9c0,3.9,0.6,6.9,1.9,9
			c1.3,2.2,3,3.2,5.1,3.2c2.1,0,3.8-0.9,5-2.8c1.2-1.9,1.8-4.5,1.8-7.9c0-3.9-0.6-6.9-1.9-9c-1.3-2.2-3-3.2-5-3.2
			C124.6,82.9,122.9,83.9,121.7,85.7z"/>
		<path class="st1" d="M151,84.5c0,0.3,0.1,0.5,0.2,0.5c0.1,0,0.2-0.1,0.5-0.4l1.2-1.2c1.2-1.4,2.6-2.1,3.9-2.1c1,0,1.9,0.4,2.7,1.1
			c0.7,0.7,1.1,1.6,1.1,2.7c0,0.8-0.3,1.5-0.8,2s-1.2,0.8-1.9,0.8c-0.6,0-1.1-0.1-1.5-0.4c-0.4-0.3-0.8-0.6-1.2-0.9
			c-0.3-0.3-0.7-0.6-1-0.9c-0.3-0.3-0.6-0.4-0.9-0.4c-1.4,0-2.1,1.7-2.1,5.1v11.8c0,0.6,0.1,1.1,0.2,1.4c0.2,0.3,0.5,0.6,0.9,0.7
			c0.5,0.2,0.9,0.4,1.3,0.4s0.7,0.1,1,0.2c0.3,0.1,0.5,0.1,0.6,0.2c0.2,0.1,0.2,0.3,0.2,0.6c0,0.2-0.1,0.4-0.3,0.6
			c-0.2,0.2-0.5,0.2-1,0.2c-0.8,0-1.6-0.1-2.5-0.2s-1.9-0.2-2.8-0.2c-0.9,0-1.8,0.1-2.6,0.2s-1.5,0.2-2.1,0.2c-0.7,0-1-0.3-1-0.9
			c0-0.3,0.1-0.4,0.2-0.5s0.3-0.2,0.5-0.2c0.2-0.1,0.4-0.1,0.7-0.1s0.6-0.1,0.9-0.3c0.5-0.3,0.9-0.5,1-0.8c0.1-0.3,0.1-0.7,0.1-1.2
			v-14c0-0.7-0.1-1.1-0.4-1.3c-0.3-0.2-0.5-0.4-0.8-0.4c-0.3-0.1-0.6-0.1-0.8-0.2c-0.3-0.1-0.4-0.2-0.4-0.6c0-0.4,0.3-0.7,0.8-0.9
			c0.5-0.2,1.2-0.6,2-1.1c1.1-0.7,1.9-1.4,2.4-2c0.5-0.6,0.9-0.9,1.3-0.9c0.4,0,0.6,0.4,0.6,1.1V84.5z"/>
		<path class="st1" d="M91.3,130.7c-0.3,0-0.5,0.1-0.6,0.2c-0.1,0.1-0.1,0.4-0.1,0.7v1.3c0,3.4,0.8,6.2,2.4,8.2c1.6,2,3.6,3,6.1,3
			c1.1,0,2.1-0.2,2.9-0.5c0.8-0.3,1.5-0.7,2-1.1c0.5-0.4,1-0.8,1.3-1.1s0.5-0.5,0.6-0.5c0.3,0,0.5,0.2,0.5,0.6
			c0,0.4-0.2,0.9-0.7,1.6c-0.5,0.7-1.2,1.3-2.1,2c-0.9,0.6-2,1.2-3.2,1.7c-1.2,0.5-2.6,0.7-4.2,0.7c-1.6,0-3.1-0.3-4.5-0.9
			c-1.3-0.6-2.5-1.5-3.4-2.6c-1-1.1-1.7-2.5-2.2-4.2c-0.5-1.6-0.8-3.5-0.8-5.5s0.3-3.9,0.9-5.5c0.6-1.6,1.4-3,2.4-4.2
			c1-1.1,2.3-2,3.7-2.7c1.4-0.6,3-0.9,4.6-0.9c1.4,0,2.8,0.2,4,0.7c1.2,0.5,2.2,1.1,3.1,1.9c0.8,0.8,1.5,1.7,1.9,2.7
			c0.5,1,0.7,2.1,0.7,3.3c0,0.5-0.2,0.8-0.5,0.9c-0.3,0.1-0.8,0.2-1.6,0.2H91.3z M99.9,128.4c0.9-0.4,1.3-1.2,1.3-2.4
			c0-0.9-0.4-1.8-1.2-2.6c-0.8-0.8-1.9-1.2-3.1-1.2c-1.4,0-2.6,0.5-3.7,1.5c-1,1-1.7,2.3-2,3.8l-0.2,0.9v0.1c0,0.3,0.2,0.5,0.7,0.5
			h3.9C97.6,129,99,128.8,99.9,128.4z"/>
		<path class="st1" d="M134.1,122.9c0.1,0,0.2,0,0.3,0c0.1,0,0.3,0,0.6,0c0.5,0,0.9,0.1,1.1,0.4c0.2,0.3,0.3,0.9,0.3,1.8
			c0,0.2-0.2,0.3-0.5,0.3c-0.3,0-0.8,0.1-1.5,0.1c-0.2,0-0.4,0-0.6,0c-0.3,0-0.6,0-1,0.1c0.6,1.4,0.9,2.8,0.9,4.2
			c0,2.5-0.8,4.5-2.4,5.9c-1.6,1.5-4,2.3-7.2,2.6c-1.4,0.1-2.5,0.3-3.2,0.6c-0.8,0.3-1.1,0.8-1.1,1.5c0,0.8,0.4,1.3,1.3,1.5
			c0.9,0.2,2,0.2,3.2,0.2h1.4c1.8,0,3.3,0.1,4.7,0.2c1.4,0.2,2.5,0.5,3.4,0.9c0.9,0.4,1.6,1,2.1,1.8c0.5,0.8,0.7,1.8,0.7,3
			c0,1.4-0.4,2.7-1,4c-0.7,1.3-1.7,2.4-2.9,3.4c-1.2,1-2.7,1.8-4.4,2.3c-1.7,0.6-3.5,0.9-5.5,0.9c-3.3,0-5.8-0.6-7.5-1.7
			c-1.7-1.1-2.6-2.6-2.6-4.4c0-1.4,0.9-2.8,2.7-4l2-1.3c0.4-0.3,0.7-0.6,0.7-0.8c0-0.1-0.1-0.3-0.4-0.6l-0.8-0.9
			c-0.8-0.9-1.3-1.6-1.8-2.3c-0.4-0.6-0.6-1.2-0.6-1.6s0.2-0.8,0.5-1c0.3-0.2,0.8-0.5,1.3-0.7l2.3-1c0.5-0.2,0.7-0.4,0.7-0.5
			c0,0-0.2-0.2-0.7-0.5l-0.9-0.6c-1.2-0.7-2.1-1.7-2.7-2.9c-0.6-1.2-1-2.5-1-3.9c0-1.2,0.2-2.4,0.7-3.5c0.5-1.1,1.1-2,2-2.8
			c0.9-0.8,1.9-1.4,3.1-1.9s2.5-0.7,3.9-0.7c1.4,0,2.6,0.1,3.6,0.4c0.9,0.3,1.9,0.7,2.8,1.2c0.3,0.1,0.6,0.2,0.8,0.3
			c0.2,0.1,0.6,0.2,1.2,0.2h0.5L134.1,122.9z M117.5,151.3c0,1.6,0.6,2.8,1.8,3.9c1.2,1,2.8,1.6,4.8,1.6c2.3,0,4.2-0.5,5.7-1.6
			c1.5-1,2.2-2.3,2.2-3.9c0-1.1-0.2-2-0.7-2.5c-0.5-0.6-1.2-1-2.2-1.2c-1-0.3-2.3-0.4-3.8-0.5c-1.5-0.1-3.3-0.1-5.4-0.1
			C118.3,148.1,117.5,149.5,117.5,151.3z M120.6,124.4c-0.8,1.2-1.3,3-1.3,5.2c0,2.2,0.4,3.9,1.3,5.2c0.8,1.3,1.9,1.9,3.2,1.9
			s2.3-0.6,3.1-1.9c0.8-1.3,1.2-3,1.2-5.2c0-2.2-0.4-3.9-1.2-5.2c-0.8-1.3-1.9-1.9-3.1-1.9S121.4,123.2,120.6,124.4z"/>
		<path class="st1" d="M158.7,140.2c0,1.2,0.1,2.1,0.2,2.7c0.2,0.6,0.6,0.9,1.3,0.9c0.4,0,0.8-0.2,1.2-0.6c0.4-0.4,0.7-0.6,1.1-0.6
			c0.5,0,0.7,0.3,0.7,0.8c0,0.3-0.2,0.7-0.5,1.1s-0.8,0.8-1.3,1.2c-0.5,0.4-1,0.8-1.6,1.1c-0.6,0.3-1.1,0.4-1.6,0.4
			c-1,0-1.9-0.3-2.6-0.9c-0.7-0.6-1.2-1.6-1.7-2.8h-0.4l-1.3,1c-1,0.8-2,1.5-2.9,2.1c-0.9,0.6-1.9,0.9-3.1,0.9
			c-1.3,0-2.3-0.4-3.1-1.2c-0.8-0.8-1.2-1.9-1.2-3.3c0-1.2,0.2-2.3,0.7-3.2c0.4-0.9,1.1-1.8,1.9-2.5c0.8-0.8,1.9-1.5,3-2.1
			c1.2-0.7,2.5-1.3,3.9-2l1.5-0.7c0.3-0.1,0.5-0.3,0.6-0.5c0.1-0.2,0.1-0.5,0.1-0.9v-3.9c0-1.6-0.1-2.7-0.4-3.4
			c-0.3-0.7-0.9-1.1-2-1.1c-1,0-1.9,0.3-2.5,1c-0.6,0.6-1.2,1.6-1.7,2.7c-0.4,0.9-0.9,1.7-1.5,2.4c-0.5,0.6-1.4,1-2.6,1
			c-0.3,0-0.6-0.1-0.8-0.3c-0.2-0.2-0.3-0.4-0.3-0.7c0-0.8,0.3-1.7,0.8-2.6c0.5-0.9,1.3-1.8,2.3-2.5c1-0.8,2.1-1.4,3.5-1.9
			c1.3-0.5,2.8-0.7,4.4-0.7c1.3,0,2.3,0.1,3.1,0.4c0.8,0.3,1.4,0.7,1.8,1.2c0.4,0.5,0.7,1.2,0.8,2c0.1,0.8,0.2,1.7,0.2,2.7V140.2z
			 M153.5,133.9c-0.1,0-0.3,0.1-0.6,0.2l-2,0.9c-2.4,1.1-3.5,3-3.5,5.5c0,1.1,0.2,1.9,0.6,2.4c0.4,0.6,1,0.8,1.6,0.8
			c0.5,0,1-0.1,1.4-0.4c0.5-0.2,0.9-0.6,1.3-1c0.4-0.4,0.7-0.9,1-1.5c0.3-0.6,0.4-1.3,0.4-2v-4.4
			C153.8,134.1,153.7,133.9,153.5,133.9z"/>
		<path class="st1" d="M175.8,124.3c0,0.5,0.1,0.7,0.2,0.7c0.1,0,0.3-0.1,0.5-0.3l0.7-0.7c0.8-1,1.8-1.7,2.9-2.2s2.2-0.8,3.4-0.8
			c2.5,0,4.4,0.8,5.8,2.4c1.4,1.6,2.1,3.9,2.1,7v11.9c0,1.1,0.3,1.9,0.9,2.3c0.3,0.1,0.6,0.2,0.9,0.3c0.3,0,0.6,0.1,0.8,0.1
			s0.4,0.1,0.6,0.2c0.1,0.1,0.2,0.3,0.2,0.6c0,0.6-0.4,0.9-1.1,0.9c-0.6,0-1.2-0.1-2-0.2c-0.8-0.1-1.7-0.2-2.7-0.2s-1.9,0.1-2.6,0.2
			c-0.7,0.1-1.3,0.2-1.7,0.2c-0.6,0-1-0.3-1-0.9c0-0.3,0-0.4,0.2-0.6c0.1-0.1,0.2-0.2,0.4-0.2c0.2,0,0.4-0.1,0.6-0.1
			c0.2,0,0.5-0.1,0.7-0.2c0.5-0.2,0.8-0.5,0.8-0.9c0.1-0.4,0.1-0.9,0.1-1.5V131c0-2.2-0.4-3.9-1.3-5c-0.9-1.1-2.2-1.7-3.8-1.7
			c-1.5,0-2.8,0.5-3.7,1.4c-1,1-1.4,2.4-1.4,4.4v12c0,0.6,0,1.1,0.2,1.5c0.1,0.4,0.3,0.6,0.7,0.8c0.4,0.2,0.7,0.3,1,0.3
			c0.3,0,0.5,0,0.7,0.1s0.4,0.1,0.5,0.2c0.1,0.1,0.2,0.3,0.2,0.7c0,0.6-0.4,0.8-1.1,0.8c-0.6,0-1.2-0.1-2-0.2
			c-0.8-0.1-1.7-0.2-2.7-0.2c-1,0-1.9,0.1-2.6,0.2c-0.7,0.1-1.3,0.2-1.7,0.2c-0.6,0-1-0.3-1-0.9c0-0.3,0-0.4,0.2-0.6
			c0.1-0.1,0.2-0.2,0.4-0.2c0.2,0,0.3-0.1,0.6-0.1c0.2,0,0.4-0.1,0.7-0.2c0.4-0.2,0.7-0.4,0.8-0.8c0.1-0.3,0.2-0.9,0.2-1.6v-13.1
			c0-1-0.1-1.7-0.4-2c-0.3-0.3-0.5-0.5-0.9-0.6c-0.3-0.1-0.6-0.1-0.9-0.1c-0.3,0-0.4-0.2-0.4-0.6s0.3-0.7,0.8-1
			c0.5-0.3,1.3-0.7,2.3-1.2c1.2-0.6,2-1.2,2.5-1.8c0.5-0.6,0.9-0.9,1.3-0.9c0.1,0,0.2,0.1,0.4,0.3c0.1,0.2,0.2,0.5,0.2,0.9V124.3z"
			/>
		<path class="st1" d="M214.1,121.7c0.9,0.5,1.4,1.2,1.4,2.2c0,1.3-0.1,2.2-0.2,2.9c-0.1,0.6-0.4,0.9-0.8,0.9
			c-0.4,0-0.7-0.3-0.8-0.8c-0.1-0.5-0.4-1.2-0.8-1.9c-1-1.6-2.3-2.4-4-2.4c-1.2,0-2.1,0.3-2.8,0.9c-0.7,0.6-1.1,1.4-1.1,2.3
			c0,0.6,0.1,1.2,0.4,1.6c0.3,0.4,0.7,0.8,1.2,1.2c0.5,0.4,1.1,0.7,1.9,1.1c0.7,0.3,1.6,0.7,2.5,1.2c2,1,3.4,2,4.3,3.2
			c0.9,1.2,1.4,2.7,1.4,4.5c0,1.4-0.2,2.7-0.7,3.8c-0.5,1.1-1.1,2-1.9,2.8c-0.8,0.8-1.8,1.3-3,1.7c-1.1,0.4-2.4,0.6-3.7,0.6
			c-1.4,0-2.6-0.1-3.7-0.4s-1.9-0.6-2.5-0.9c-0.4-0.2-0.6-0.4-0.7-0.7c-0.1-0.3-0.1-0.7-0.1-1.2v-1.4c0-1.5,0-2.6,0.1-3.3
			c0.1-0.7,0.3-1,0.8-1c0.3,0,0.5,0.1,0.6,0.3c0.1,0.2,0.2,0.5,0.3,0.8c0.1,0.4,0.2,0.8,0.4,1.3c0.1,0.5,0.4,1.1,0.7,1.7
			c1.1,2.3,2.7,3.4,4.8,3.4c1.3,0,2.3-0.4,3.1-1.2c0.8-0.8,1.2-1.9,1.2-3.3c0-0.7-0.1-1.3-0.4-1.9c-0.3-0.5-0.6-1-1.1-1.4
			c-0.5-0.4-1.1-0.8-1.8-1.2c-0.7-0.4-1.5-0.8-2.4-1.2c-1-0.5-1.9-1-2.6-1.4c-0.8-0.5-1.4-1-1.9-1.5c-0.5-0.5-0.9-1.1-1.2-1.8
			c-0.3-0.7-0.4-1.5-0.4-2.4c0-2.3,0.8-4.1,2.3-5.5c1.5-1.3,3.5-2,5.9-2C211.5,121,213.2,121.2,214.1,121.7z"/>
	</g>
	<path class="st2" d="M67.4,137.9L67.4,137.9c-1.9,0-3.5-1.6-3.5-3.5v-5.1c0-1.9,1.6-3.5,3.5-3.5h0c1.9,0,3.5,1.6,3.5,3.5v5.1
		C70.9,136.3,69.3,137.9,67.4,137.9z"/>
</g>
</svg>
