<?xml version="1.0" encoding="utf-8"?>
<!-- Generator: Adobe Illustrator 21.1.0, SVG Export Plug-In . SVG Version: 6.00 Build 0)  -->
<svg version="1.1" id="Ebene_1" xmlns="http://www.w3.org/2000/svg" xmlns:xlink="http://www.w3.org/1999/xlink" x="0px" y="0px"
	 viewBox="0 0 706.8 352" style="enable-background:new 0 0 706.8 352;" xml:space="preserve">
<style type="text/css">
	.st0{fill:#020204;stroke:#000000;stroke-miterlimit:10;}
	.st1{fill:#94C11C;}
	.st2{fill:#FFFFFF;}
	.st3{fill:none;}
	.st4{font-family:'AppleGaramond';}
	.st5{font-size:19px;}
</style>
<rect class="st0" width="706.8" height="352"/>
<g>
	<rect x="167" y="125" class="st1" width="153.1" height="102"/>
</g>
<path class="st2" d="M226.6,148.6c1.6,0.1,2.4,0.2,4,0.4c0.5,0.1,1-0.2,1.1-0.5c0.3-1.1,0.4-1.6,0.7-2.7c0.1-0.4,0.4-0.3,0.6,0.1
	c0.7,1.2,1,1.8,1.7,3.1c0.2,0.4,0.8,0.8,1.3,0.9c1.5,0.3,2,0.4,3.9,0.9c0.5,0.1,0.6,0.4,0.2,0.5c-1.1,0.4-1.7,0.5-2.8,1
	c-0.4,0.1-0.5,0.6-0.3,1c0.6,1.2,0.9,1.9,1.5,3.2c0.2,0.4,0,0.5-0.4,0.1c-1.3-1.1-1.9-1.5-3.2-2.4c-0.4-0.3-1.1-0.4-1.5-0.3
	c-1.1,0.5-1.7,0.8-2.8,1.3c-0.4,0.2-0.6,0-0.5-0.3c0.3-1,0.4-1.7,0.7-2.7c0.1-0.3-0.2-0.9-0.7-1.1c-1.4-0.8-2.1-1.2-3.6-2
	C226,148.7,226.1,148.5,226.6,148.6"/>
<path class="st2" d="M210.7,160.2c1.9-0.4,2.5-0.5,4.4-0.8c0.6-0.1,1.1-0.4,1.2-0.8c0.4-1.1,0.6-1.7,1-2.8c0.1-0.4,0.4-0.4,0.6,0
	c0.6,1,0.9,1.6,1.6,2.6c0.2,0.3,0.8,0.6,1.3,0.6c1.7-0.1,2.1-0.2,3.9-0.3c0.5,0,0.6,0.2,0.2,0.4c-1.3,0.9-1.8,1.2-3,2
	c-0.4,0.2-0.6,0.7-0.4,1c0.6,1.1,0.9,1.6,1.4,2.8c0.2,0.4,0,0.5-0.4,0.2c-1.3-0.7-2-1.1-3.3-1.7c-0.5-0.2-1.2-0.2-1.6,0.1
	c-1.3,0.8-1.7,1-3.4,2.1c-0.5,0.3-0.7,0.2-0.5-0.2c0.5-1.4,0.7-1.7,1.2-2.9c0.1-0.4-0.1-0.8-0.6-0.9c-1.5-0.5-2.2-0.6-3.8-1
	C210,160.5,210.1,160.3,210.7,160.2"/>
<path class="st2" d="M202.3,175c1.8-0.1,2.6-0.2,4.3-0.2c0.5,0,1.2-0.3,1.5-0.7c0.8-1.1,1.2-1.7,2.1-2.8c0.3-0.4,0.5-0.3,0.6,0
	c0.2,1.2,0.2,1.7,0.4,2.9c0,0.4,0.5,0.7,1,0.8c1.7,0.2,1.9,0.3,3.6,0.6c0.5,0.1,0.5,0.3,0,0.4c-1.4,0.4-2,0.7-3.5,1.2
	c-0.5,0.2-0.9,0.7-0.9,1c0,1.2,0,1.8,0,3c0,0.4-0.2,0.5-0.5,0.2c-0.9-0.9-1.4-1.3-2.3-2.1c-0.3-0.3-1-0.3-1.5-0.1
	c-1.6,0.7-2.3,1-3.9,1.8c-0.5,0.2-0.7,0.1-0.4-0.3c0.9-1.2,1.4-1.8,2.3-2.9c0.3-0.4,0.3-0.9-0.1-1.1c-1.1-0.7-1.7-1-2.9-1.6
	C201.6,175.2,201.7,175,202.3,175"/>
<path class="st2" d="M230.9,194.7c-1.2,0.7-1.8,1.1-3.1,2c-0.4,0.3-0.7,0.9-0.5,1.4c0.3,1.4,0.5,2.1,0.8,3.6
	c0.1,0.5-0.1,0.6-0.5,0.4c-1.1-0.9-1.6-1.4-2.7-2.2c-0.4-0.3-1-0.2-1.4,0.1c-1.3,1-1.9,1.5-3.2,2.5c-0.4,0.3-0.6,0.2-0.4-0.3
	c0.6-1.5,0.9-2.3,1.5-3.7c0.2-0.5,0.1-1.1-0.3-1.3c-1.1-0.7-1.7-1.1-2.8-1.8c-0.4-0.2-0.3-0.4,0.2-0.5c1.5-0.2,2.2-0.3,3.7-0.4
	c0.5,0,1-0.4,1.2-0.9c0.6-1.4,0.8-2.1,1.4-3.3c0.2-0.4,0.4-0.4,0.5,0c0.3,1.3,0.5,1.9,0.8,3.2c0.1,0.4,0.6,0.8,1,0.8
	c1.4,0,2.2-0.1,3.6,0.1C231.2,194.2,231.2,194.5,230.9,194.7"/>
<path class="st2" d="M250.1,196.9c-1,0.3-1.5,0.5-2.6,0.9c-0.3,0.1-0.5,0.6-0.3,1c0.5,1.3,0.7,1.9,1.2,3.2c0.2,0.4,0,0.5-0.4,0.2
	c-1.1-1-1.7-1.5-2.8-2.5c-0.4-0.3-0.9-0.5-1.3-0.4c-1.1,0.4-1.6,0.7-2.7,1.2c-0.4,0.2-0.5,0-0.4-0.4c0.4-1.2,0.6-1.7,1-2.8
	c0.1-0.4,0-0.9-0.4-1.3c-1.1-1.1-1.6-1.6-2.6-2.7c-0.3-0.3-0.3-0.5,0.2-0.4c1.3,0.4,2,0.6,3.3,1c0.4,0.1,0.9,0,1-0.4
	c0.4-1,0.6-1.5,0.9-2.5c0.1-0.3,0.3-0.2,0.5,0.2c0.4,1.3,0.6,1.9,1.1,3.2c0.1,0.4,0.6,0.9,1,1c1.3,0.4,2,0.6,3.3,1.1
	C250.3,196.5,250.4,196.7,250.1,196.9"/>
<path class="st2" d="M267.3,191.8c-1.1,0.4-1.7,0.7-2.8,1.1c-0.4,0.1-0.5,0.6-0.3,1c0.6,1.2,0.9,1.8,1.5,3c0.2,0.4,0,0.5-0.4,0.2
	c-1.3-0.9-1.9-1.4-3.2-2.5c-0.4-0.4-1-0.6-1.4-0.5c-1.1,0.3-1.6,0.5-2.6,0.8c-0.3,0.1-0.5-0.1-0.5-0.4c0.3-1,0.5-1.6,0.8-2.6
	c0.1-0.3-0.1-0.9-0.5-1.3c-1.2-1.2-1.8-1.8-2.9-2.9c-0.4-0.4-0.3-0.5,0.1-0.4c1.4,0.6,2.1,0.8,3.4,1.4c0.4,0.2,0.9,0,1-0.3
	c0.3-1,0.5-1.5,0.8-2.5c0.1-0.3,0.3-0.2,0.5,0.2c0.5,1.3,0.8,2,1.3,3.3c0.2,0.4,0.7,0.9,1.2,1.1c1.4,0.5,2.2,0.6,3.7,0.9
	C267.6,191.4,267.7,191.6,267.3,191.8"/>
<path class="st2" d="M278.5,180.3c-1.1,0.8-1.6,1.1-2.7,1.8c-0.3,0.2-0.5,0.6-0.3,1c0.5,1,0.7,1.4,1.2,2.4c0.2,0.3,0,0.4-0.4,0.2
	c-1.1-0.6-1.7-0.9-2.8-1.6c-0.4-0.2-0.9-0.3-1.2-0.2c-1,0.4-1.5,0.7-2.4,1.1c-0.3,0.1-0.5,0-0.4-0.3c0.3-0.9,0.5-1.3,0.8-2.2
	c0.1-0.3-0.1-0.8-0.4-1c-1-0.8-1.6-1.3-2.6-2.2c-0.3-0.3-0.3-0.4,0.1-0.3c1.2,0.3,1.8,0.4,3.1,0.7c0.4,0.1,0.8-0.2,1-0.5
	c0.4-1,0.5-1.6,0.9-2.7c0.1-0.3,0.3-0.3,0.5,0c0.4,1.2,0.6,1.7,1.1,2.9c0.1,0.4,0.6,0.7,1,0.7c1.3,0.1,2,0.1,3.4,0
	C278.8,179.9,278.9,180.1,278.5,180.3"/>
<path class="st2" d="M287.7,163c-1.1,1.1-1.6,1.6-2.6,2.7c-0.3,0.3-0.5,0.9-0.4,1.2c0.4,0.9,0.5,1.4,0.9,2.3c0.1,0.3,0,0.5-0.4,0.4
	c-1-0.2-1.5-0.4-2.5-0.7c-0.3-0.1-0.8,0-1.2,0.3c-1,0.9-1.5,1.4-2.5,2.2c-0.3,0.3-0.5,0.2-0.3-0.2c0.3-1.1,0.6-1.7,1-2.8
	c0.1-0.4,0-0.8-0.3-1c-0.9-0.5-1.4-0.7-2.3-1.2c-0.3-0.2-0.2-0.4,0.1-0.4c1.2-0.2,1.8-0.3,2.9-0.6c0.4-0.1,0.8-0.5,1-0.9
	c0.4-1.2,0.6-1.8,1.1-3.1c0.1-0.4,0.3-0.5,0.4-0.1c0.3,1,0.5,1.6,0.8,2.6c0.1,0.3,0.5,0.5,0.9,0.3c1.2-0.4,1.9-0.7,3.2-1.2
	C287.9,162.5,288,162.6,287.7,163"/>
<path class="st2" d="M267.8,151.5c1.1,0.1,1.5,0.1,2.8,0c0.4,0,0.7-0.3,0.9-0.7c0.3-1.2,0.5-1.8,0.8-3.1c0.1-0.4,0.3-0.4,0.4-0.1
	c0.4,1.2,0.6,1.8,0.9,2.9c0.1,0.4,0.5,0.6,0.9,0.6c1,0,1.6,0,2.9-0.1c0.4,0,0.5,0.1,0.1,0.4c-0.9,0.7-1.4,1-2.3,1.7
	c-0.3,0.2-0.4,0.8-0.3,1.1c0.4,1,0.6,1.5,1,2.5c0.1,0.3,0,0.4-0.3,0.3c-0.9-0.5-1.4-0.8-2.3-1.3c-0.3-0.2-0.8-0.1-1.1,0.1
	c-0.9,0.7-1.3,1.1-2.1,1.7c-0.3,0.2-0.4,0.1-0.3-0.2c0.3-1,0.4-1.5,0.7-2.6c0.1-0.4-0.1-0.8-0.4-1c-0.9-0.7-1.4-1.1-2.3-1.8
	C267.4,151.7,267.5,151.5,267.8,151.5"/>
<path class="st2" d="M247.8,147.7c1.3,0.4,1.9,0.5,3.2,0.9c0.4,0.1,0.8-0.1,0.9-0.4c0.3-1,0.5-1.5,0.9-2.6c0.1-0.3,0.3-0.3,0.5,0.1
	c0.4,1.3,0.6,1.9,1.1,3.1c0.1,0.4,0.6,0.8,1,0.9c1.3,0.4,1.9,0.5,3.1,0.9c0.4,0.1,0.5,0.3,0.1,0.5c-1,0.4-1.5,0.6-2.5,1
	c-0.3,0.1-0.5,0.5-0.4,0.9c0.4,1.2,0.6,1.8,0.9,3c0.1,0.4,0,0.4-0.4,0.1c-1-1-1.4-1.5-2.4-2.5c-0.3-0.3-0.8-0.5-1.2-0.4
	c-0.9,0.3-1.4,0.5-2.3,0.8c-0.3,0.1-0.5-0.1-0.4-0.4c0.3-0.9,0.5-1.3,0.8-2.3c0.1-0.3-0.1-0.8-0.4-1.1c-1-1-1.6-1.4-2.6-2.4
	C247.3,147.7,247.4,147.6,247.8,147.7"/>
<path class="st2" d="M297.6,146.9c-0.9,0.8-1.4,1.3-2.4,2.2c-0.3,0.3-0.5,0.7-0.4,1c0.3,0.8,0.5,1.1,0.9,1.8c0.1,0.2,0,0.4-0.4,0.3
	c-1-0.1-1.5-0.2-2.4-0.4c-0.3-0.1-0.8,0.1-1.2,0.4c-1,0.9-1.6,1.4-2.6,2.4c-0.3,0.3-0.5,0.3-0.4-0.1c0.5-1.1,0.7-1.6,1.1-2.7
	c0.2-0.4,0-0.7-0.3-0.8c-0.9-0.3-1.4-0.5-2.3-0.8c-0.3-0.1-0.2-0.3,0.2-0.4c1.2-0.3,1.8-0.5,3-0.9c0.4-0.1,0.8-0.5,1-0.9
	c0.5-1.1,0.7-1.7,1.1-2.8c0.2-0.4,0.3-0.4,0.4-0.1c0.3,0.9,0.4,1.4,0.7,2.2c0.1,0.3,0.5,0.4,0.9,0.3c1.2-0.4,1.8-0.6,2.9-0.9
	C297.8,146.5,297.9,146.7,297.6,146.9"/>
<path class="st2" d="M256.7,166.9c0.7-0.2,0.8-0.5,0-0.5c-1.4,0.1-17.3,3.7-31.1,11.8c-15,8.8-19.6,13.1-22.8,15.6
	c-0.8,0.7-1.5,0.7-1.6,0.3c-0.5-1.4-0.8-2.1-1.3-3.4c-0.1-0.4-0.5-0.3-0.7,0.2c-0.6,1.9-0.8,3-1.4,4.7c-0.2,0.5-0.4,1.1-1.4,1.8
	c-2,1.4-2.4,1.6-3.6,2.5c-0.4,0.3-0.7,0.6,0.2,0.8c0.9,0.2,1,0.2,2.2,0.4c0.9,0.2,0.6,0.8,0.5,1.3c-0.4,1.6-0.5,2.2-1,3.8
	c-0.2,0.5,0,0.6,0.5,0.1c1.3-1.4,1.7-1.8,3.1-3.3c0.5-0.5,1-1.2,1.6-1.1c1.4,0.2,1.5,0.3,3.4,0.6c0.8,0.2,0.8-0.2,0.6-0.8
	c-0.7-1.6-0.5-1.4-1-2.8c-0.2-0.4-0.2-1.2,0.3-1.7c7.9-7.7,11.2-10.2,22.1-17.3C233.8,174.5,245.2,170.1,256.7,166.9z"/>
<rect x="327.7" y="131.7" class="st3" width="244.6" height="88.5"/>
<text transform="matrix(0.91 0 0 1 327.7295 144.8882)" class="st2 st4 st5">Organismo di controllo autorizzato</text>
<text transform="matrix(0.96 0 0 1 327.7295 167.8882)" class="st2 st4 st5">dal Mipaaf: IT-BIO-015</text>
<text transform="matrix(0.96 0 0 1 327.7295 190.8887)" class="st2 st4 st5">AGRICOLTURA ITALIA</text>
<text transform="matrix(0.93 0 0 1 327.7295 213.8887)" class="st2 st4 st5">Operatore controllato n.</text>
<text transform="matrix(0.93 0 0 1 481.0137 213.8887)" class="st2 st4 st5">102290</text>
</svg>
