<?xml version="1.0" encoding="utf-8"?>
<!-- Generator: Adobe Illustrator 21.1.0, SVG Export Plug-In . SVG Version: 6.00 Build 0)  -->
<svg version="1.1" id="Ebene_1" xmlns="http://www.w3.org/2000/svg" xmlns:xlink="http://www.w3.org/1999/xlink" x="0px" y="0px"
	 viewBox="0 0 420 119.2" style="enable-background:new 0 0 420 119.2;" xml:space="preserve">
<style type="text/css">
	.st0{fill:#020204;stroke:#000000;stroke-miterlimit:10;}
	.st1{fill:#94C11C;}
	.st2{fill:#FFFFFF;}
	.st3{fill:none;}
	.st4{font-family:'AppleGaramond';}
	.st5{font-size:19px;}
</style>
<rect x="0.5" y="0.5" class="st0" width="419" height="118.2"/>
<g>
	<rect x="14.2" y="8.1" class="st1" width="153.1" height="102"/>
</g>
<path class="st2" d="M73.8,31.7c1.6,0.1,2.4,0.2,4,0.4c0.5,0.1,1-0.2,1.1-0.5c0.3-1.1,0.4-1.6,0.7-2.7c0.1-0.4,0.4-0.3,0.6,0.1
	c0.7,1.2,1,1.8,1.7,3.1c0.2,0.4,0.8,0.8,1.3,0.9c1.5,0.3,2,0.4,3.9,0.9c0.5,0.1,0.6,0.4,0.2,0.5c-1.1,0.4-1.7,0.5-2.8,1
	c-0.4,0.1-0.5,0.6-0.3,1c0.6,1.2,0.9,1.9,1.5,3.2c0.2,0.4,0,0.5-0.4,0.1c-1.3-1.1-1.9-1.5-3.2-2.4C81.7,37,81,36.9,80.6,37
	c-1.1,0.5-1.7,0.8-2.8,1.3c-0.4,0.2-0.6,0-0.5-0.3c0.3-1,0.4-1.7,0.7-2.7c0.1-0.3-0.2-0.9-0.7-1.1c-1.4-0.8-2.1-1.2-3.6-2
	C73.2,31.8,73.3,31.6,73.8,31.7"/>
<path class="st2" d="M57.9,43.3c1.9-0.4,2.5-0.5,4.4-0.8c0.6-0.1,1.1-0.4,1.2-0.8c0.4-1.1,0.6-1.7,1-2.8c0.1-0.4,0.4-0.4,0.6,0
	c0.6,1,0.9,1.6,1.6,2.6c0.2,0.3,0.8,0.6,1.3,0.6c1.7-0.1,2.1-0.2,3.9-0.3c0.5,0,0.6,0.2,0.2,0.4c-1.3,0.9-1.8,1.2-3,2
	c-0.4,0.2-0.6,0.7-0.4,1c0.6,1.1,0.9,1.6,1.4,2.8c0.2,0.4,0,0.5-0.4,0.2c-1.3-0.7-2-1.1-3.3-1.7c-0.5-0.2-1.2-0.2-1.6,0.1
	c-1.3,0.8-1.7,1-3.4,2.1c-0.5,0.3-0.7,0.2-0.5-0.2c0.5-1.4,0.7-1.7,1.2-2.9c0.1-0.4-0.1-0.8-0.6-0.9c-1.5-0.5-2.2-0.6-3.8-1
	C57.2,43.6,57.3,43.4,57.9,43.3"/>
<path class="st2" d="M49.5,58.1c1.8-0.1,2.6-0.2,4.3-0.2c0.5,0,1.2-0.3,1.5-0.7c0.8-1.1,1.2-1.7,2.1-2.8c0.3-0.4,0.5-0.3,0.6,0
	c0.2,1.2,0.2,1.7,0.4,2.9c0,0.4,0.5,0.7,1,0.8c1.7,0.2,1.9,0.3,3.6,0.6c0.5,0.1,0.5,0.3,0,0.4c-1.4,0.4-2,0.7-3.5,1.2
	c-0.5,0.2-0.9,0.7-0.9,1c0,1.2,0,1.8,0,3c0,0.4-0.2,0.5-0.5,0.2c-0.9-0.9-1.4-1.3-2.3-2.1c-0.3-0.3-1-0.3-1.5-0.1
	c-1.6,0.7-2.3,1-3.9,1.8c-0.5,0.2-0.7,0.1-0.4-0.3c0.9-1.2,1.4-1.8,2.3-2.9c0.3-0.4,0.3-0.9-0.1-1.1c-1.1-0.7-1.7-1-2.9-1.6
	C48.8,58.3,48.9,58.1,49.5,58.1"/>
<path class="st2" d="M78.1,77.8c-1.2,0.7-1.8,1.1-3.1,2c-0.4,0.3-0.7,0.9-0.5,1.4c0.3,1.4,0.5,2.1,0.8,3.6c0.1,0.5-0.1,0.6-0.5,0.4
	c-1.1-0.9-1.6-1.4-2.7-2.2c-0.4-0.3-1-0.2-1.4,0.1c-1.3,1-1.9,1.5-3.2,2.5c-0.4,0.3-0.6,0.2-0.4-0.3c0.6-1.5,0.9-2.3,1.5-3.7
	c0.2-0.5,0.1-1.1-0.3-1.3c-1.1-0.7-1.7-1.1-2.8-1.8c-0.4-0.2-0.3-0.4,0.2-0.5c1.5-0.2,2.2-0.3,3.7-0.4c0.5,0,1-0.4,1.2-0.9
	c0.6-1.4,0.8-2.1,1.4-3.3c0.2-0.4,0.4-0.4,0.5,0c0.3,1.3,0.5,1.9,0.8,3.2c0.1,0.4,0.6,0.8,1,0.8c1.4,0,2.2-0.1,3.6,0.1
	C78.4,77.3,78.4,77.6,78.1,77.8"/>
<path class="st2" d="M97.3,80c-1,0.3-1.5,0.5-2.6,0.9c-0.3,0.1-0.5,0.6-0.3,1c0.5,1.3,0.7,1.9,1.2,3.2c0.2,0.4,0,0.5-0.4,0.2
	c-1.1-1-1.7-1.5-2.8-2.5c-0.4-0.3-0.9-0.5-1.3-0.4c-1.1,0.4-1.6,0.7-2.7,1.2c-0.4,0.2-0.5,0-0.4-0.4c0.4-1.2,0.6-1.7,1-2.8
	c0.1-0.4,0-0.9-0.4-1.3C87.5,78,87,77.5,86,76.4c-0.3-0.3-0.3-0.5,0.2-0.4c1.3,0.4,2,0.6,3.3,1c0.4,0.1,0.9,0,1-0.4
	c0.4-1,0.6-1.5,0.9-2.5c0.1-0.3,0.3-0.2,0.5,0.2c0.4,1.3,0.6,1.9,1.1,3.2c0.1,0.4,0.6,0.9,1,1c1.3,0.4,2,0.6,3.3,1.1
	C97.5,79.6,97.6,79.8,97.3,80"/>
<path class="st2" d="M114.5,74.9c-1.1,0.4-1.7,0.7-2.8,1.1c-0.4,0.1-0.5,0.6-0.3,1c0.6,1.2,0.9,1.8,1.5,3c0.2,0.4,0,0.5-0.4,0.2
	c-1.3-0.9-1.9-1.4-3.2-2.5c-0.4-0.4-1-0.6-1.4-0.5c-1.1,0.3-1.6,0.5-2.6,0.8c-0.3,0.1-0.5-0.1-0.5-0.4c0.3-1,0.5-1.6,0.8-2.6
	c0.1-0.3-0.1-0.9-0.5-1.3c-1.2-1.2-1.8-1.8-2.9-2.9c-0.4-0.4-0.3-0.5,0.1-0.4c1.4,0.6,2.1,0.8,3.4,1.4c0.4,0.2,0.9,0,1-0.3
	c0.3-1,0.5-1.5,0.8-2.5c0.1-0.3,0.3-0.2,0.5,0.2c0.5,1.3,0.8,2,1.3,3.3c0.2,0.4,0.7,0.9,1.2,1.1c1.4,0.5,2.2,0.6,3.7,0.9
	C114.8,74.5,114.9,74.7,114.5,74.9"/>
<path class="st2" d="M125.7,63.4c-1.1,0.8-1.6,1.1-2.7,1.8c-0.3,0.2-0.5,0.6-0.3,1c0.5,1,0.7,1.4,1.2,2.4c0.2,0.3,0,0.4-0.4,0.2
	c-1.1-0.6-1.7-0.9-2.8-1.6c-0.4-0.2-0.9-0.3-1.2-0.2c-1,0.4-1.5,0.7-2.4,1.1c-0.3,0.1-0.5,0-0.4-0.3c0.3-0.9,0.5-1.3,0.8-2.2
	c0.1-0.3-0.1-0.8-0.4-1c-1-0.8-1.6-1.3-2.6-2.2c-0.3-0.3-0.3-0.4,0.1-0.3c1.2,0.3,1.8,0.4,3.1,0.7c0.4,0.1,0.8-0.2,1-0.5
	c0.4-1,0.5-1.6,0.9-2.7c0.1-0.3,0.3-0.3,0.5,0c0.4,1.2,0.6,1.7,1.1,2.9c0.1,0.4,0.6,0.7,1,0.7c1.3,0.1,2,0.1,3.4,0
	C126,63,126.1,63.2,125.7,63.4"/>
<path class="st2" d="M134.9,46.1c-1.1,1.1-1.6,1.6-2.6,2.7c-0.3,0.3-0.5,0.9-0.4,1.2c0.4,0.9,0.5,1.4,0.9,2.3c0.1,0.3,0,0.5-0.4,0.4
	c-1-0.2-1.5-0.4-2.5-0.7c-0.3-0.1-0.8,0-1.2,0.3c-1,0.9-1.5,1.4-2.5,2.2c-0.3,0.3-0.5,0.2-0.3-0.2c0.3-1.1,0.6-1.7,1-2.8
	c0.1-0.4,0-0.8-0.3-1c-0.9-0.5-1.4-0.7-2.3-1.2c-0.3-0.2-0.2-0.4,0.1-0.4c1.2-0.2,1.8-0.3,2.9-0.6c0.4-0.1,0.8-0.5,1-0.9
	c0.4-1.2,0.6-1.8,1.1-3.1c0.1-0.4,0.3-0.5,0.4-0.1c0.3,1,0.5,1.6,0.8,2.6c0.1,0.3,0.5,0.5,0.9,0.3c1.2-0.4,1.9-0.7,3.2-1.2
	C135.1,45.6,135.2,45.7,134.9,46.1"/>
<path class="st2" d="M115,34.6c1.1,0.1,1.5,0.1,2.8,0c0.4,0,0.7-0.3,0.9-0.7c0.3-1.2,0.5-1.8,0.8-3.1c0.1-0.4,0.3-0.4,0.4-0.1
	c0.4,1.2,0.6,1.8,0.9,2.9c0.1,0.4,0.5,0.6,0.9,0.6c1,0,1.6,0,2.9-0.1c0.4,0,0.5,0.1,0.1,0.4c-0.9,0.7-1.4,1-2.3,1.7
	c-0.3,0.2-0.4,0.8-0.3,1.1c0.4,1,0.6,1.5,1,2.5c0.1,0.3,0,0.4-0.3,0.3c-0.9-0.5-1.4-0.8-2.3-1.3c-0.3-0.2-0.8-0.1-1.1,0.1
	c-0.9,0.7-1.3,1.1-2.1,1.7c-0.3,0.2-0.4,0.1-0.3-0.2c0.3-1,0.4-1.5,0.7-2.6c0.1-0.4-0.1-0.8-0.4-1c-0.9-0.7-1.4-1.1-2.3-1.8
	C114.6,34.8,114.7,34.6,115,34.6"/>
<path class="st2" d="M95,30.8c1.3,0.4,1.9,0.5,3.2,0.9c0.4,0.1,0.8-0.1,0.9-0.4c0.3-1,0.5-1.5,0.9-2.6c0.1-0.3,0.3-0.3,0.5,0.1
	c0.4,1.3,0.6,1.9,1.1,3.1c0.1,0.4,0.6,0.8,1,0.9c1.3,0.4,1.9,0.5,3.1,0.9c0.4,0.1,0.5,0.3,0.1,0.5c-1,0.4-1.5,0.6-2.5,1
	c-0.3,0.1-0.5,0.5-0.4,0.9c0.4,1.2,0.6,1.8,0.9,3c0.1,0.4,0,0.4-0.4,0.1c-1-1-1.4-1.5-2.4-2.5c-0.3-0.3-0.8-0.5-1.2-0.4
	c-0.9,0.3-1.4,0.5-2.3,0.8c-0.3,0.1-0.5-0.1-0.4-0.4c0.3-0.9,0.5-1.3,0.8-2.3c0.1-0.3-0.1-0.8-0.4-1.1c-1-1-1.6-1.4-2.6-2.4
	C94.5,30.8,94.6,30.7,95,30.8"/>
<path class="st2" d="M144.8,30c-0.9,0.8-1.4,1.3-2.4,2.2c-0.3,0.3-0.5,0.7-0.4,1c0.3,0.8,0.5,1.1,0.9,1.8c0.1,0.2,0,0.4-0.4,0.3
	c-1-0.1-1.5-0.2-2.4-0.4c-0.3-0.1-0.8,0.1-1.2,0.4c-1,0.9-1.6,1.4-2.6,2.4c-0.3,0.3-0.5,0.3-0.4-0.1c0.5-1.1,0.7-1.6,1.1-2.7
	c0.2-0.4,0-0.7-0.3-0.8c-0.9-0.3-1.4-0.5-2.3-0.8c-0.3-0.1-0.2-0.3,0.2-0.4c1.2-0.3,1.8-0.5,3-0.9c0.4-0.1,0.8-0.5,1-0.9
	c0.5-1.1,0.7-1.7,1.1-2.8c0.2-0.4,0.3-0.4,0.4-0.1c0.3,0.9,0.4,1.4,0.7,2.2c0.1,0.3,0.5,0.4,0.9,0.3c1.2-0.4,1.8-0.6,2.9-0.9
	C145,29.6,145.1,29.8,144.8,30"/>
<path class="st2" d="M103.9,50c0.7-0.2,0.8-0.5,0-0.5c-1.4,0.1-17.3,3.7-31.1,11.8c-15,8.8-19.6,13.1-22.8,15.6
	c-0.8,0.7-1.5,0.7-1.6,0.3c-0.5-1.4-0.8-2.1-1.3-3.4c-0.1-0.4-0.5-0.3-0.7,0.2c-0.6,1.9-0.8,3-1.4,4.7c-0.2,0.5-0.4,1.1-1.4,1.8
	c-2,1.4-2.4,1.6-3.6,2.5c-0.4,0.3-0.7,0.6,0.2,0.8s1,0.2,2.2,0.4c0.9,0.2,0.6,0.8,0.5,1.3c-0.4,1.6-0.5,2.2-1,3.8
	c-0.2,0.5,0,0.6,0.5,0.1c1.3-1.4,1.7-1.8,3.1-3.3c0.5-0.5,1-1.2,1.6-1.1c1.4,0.2,1.5,0.3,3.4,0.6c0.8,0.2,0.8-0.2,0.6-0.8
	c-0.7-1.6-0.5-1.4-1-2.8c-0.2-0.4-0.2-1.2,0.3-1.7c7.9-7.7,11.2-10.2,22.1-17.3C81,57.6,92.4,53.2,103.9,50z"/>
<rect x="174.9" y="14.8" class="st3" width="244.6" height="88.5"/>
<text transform="matrix(0.91 0 0 1 174.9242 27.9565)" class="st2 st4 st5">Organismo di controllo autorizzato</text>
<text transform="matrix(0.96 0 0 1 174.9242 50.9565)" class="st2 st4 st5">dal Mipaaf: IT-BIO-015</text>
<text transform="matrix(0.96 0 0 1 174.9242 73.957)" class="st2 st4 st5">AGRICOLTURA ITALIA</text>
<text transform="matrix(0.93 0 0 1 174.9242 96.957)" class="st2 st4 st5">Operatore controllato n.</text>
<text transform="matrix(0.93 0 0 1 328.2083 96.957)" class="st2 st4 st5">102290</text>
</svg>
